<?xml version="1.0" encoding="UTF-8" standalone="no"?>
<svg
   xmlns:dc="http://purl.org/dc/elements/1.1/"
   xmlns:cc="http://creativecommons.org/ns#"
   xmlns:rdf="http://www.w3.org/1999/02/22-rdf-syntax-ns#"
   xmlns:svg="http://www.w3.org/2000/svg"
   xmlns="http://www.w3.org/2000/svg"
   xmlns:sodipodi="http://sodipodi.sourceforge.net/DTD/sodipodi-0.dtd"
   xmlns:inkscape="http://www.inkscape.org/namespaces/inkscape"
   width="58.873203mm"
   height="1.2195418mm"
   viewBox="0 0 58.873202 1.2195417"
   version="1.1"
   id="svg8"
   inkscape:version="1.0.2 (e86c870879, 2021-01-15)"
   sodipodi:docname="apollo87h_label.svg"
   inkscape:export-filename="/home/alvaro/Desktop/Apollo87H/resources/apollo87h_label.png"
   inkscape:export-xdpi="10000"
   inkscape:export-ydpi="10000">
  <defs
     id="defs2">
    <rect
       x="-208.05171"
       y="110.20891"
       width="508.40088"
       height="11.106036"
       id="rect12" />
    <rect
       x="-208.05171"
       y="110.20891"
       width="424.19156"
       height="15.861772"
       id="rect74" />
    <rect
       x="-208.05171"
       y="110.20891"
       width="508.40088"
       height="11.106036"
       id="rect172" />
  </defs>
  <sodipodi:namedview
     id="base"
     pagecolor="#ffffff"
     bordercolor="#666666"
     borderopacity="1.0"
     inkscape:pageopacity="0.0"
     inkscape:pageshadow="2"
     inkscape:zoom="5.6568542"
     inkscape:cx="74.290442"
     inkscape:cy="11.85659"
     inkscape:document-units="mm"
     inkscape:current-layer="text170"
     inkscape:document-rotation="0"
     showgrid="false"
     inkscape:window-width="1366"
     inkscape:window-height="711"
     inkscape:window-x="0"
     inkscape:window-y="20"
     inkscape:window-maximized="1" />
  <metadata
     id="metadata5">
    <rdf:RDF>
      <cc:Work
         rdf:about="">
        <dc:format>image/svg+xml</dc:format>
        <dc:type
           rdf:resource="http://purl.org/dc/dcmitype/StillImage" />
        <dc:title />
      </cc:Work>
    </rdf:RDF>
  </metadata>
  <g
     inkscape:label="Layer 1"
     inkscape:groupmode="layer"
     id="layer1"
     transform="translate(208.04044,-114.16405)">
    <text
       xml:space="preserve"
       id="text10"
       style="font-size:10.5833px;line-height:1;font-family:sans-serif;letter-spacing:0px;word-spacing:0px;white-space:pre;shape-inside:url(#rect12);"
       transform="matrix(0.11979523,0,0,0.11979523,-183.11819,97.170222)"
       inkscape:export-xdpi="5000"
       inkscape:export-ydpi="5000"><tspan
         x="-208.05078"
         y="118.67356"><tspan
           style="font-style:normal;font-variant:normal;font-weight:normal;font-stretch:normal;font-family:'a Astro Space';-inkscape-font-specification:'a Astro Space'">Apollo87H PCB rev. pre-alpha | Designed by Gondolindrim | I love frog daddy
</tspan></tspan></text>
    <g
       aria-label="Apollo87H PCB rev. pre-alpha | Designed by Gondolindrim | I love frog daddy
"
       transform="matrix(0.11979523,0,0,0.11979523,-183.11819,100.93925)"
       id="text170"
       style="font-size:10.5833px;line-height:1;font-family:sans-serif;letter-spacing:0px;word-spacing:0px;white-space:pre;shape-inside:url(#rect172)">
      <path
         d="m -202.33539,117.6297 h -4.36184 l 0.8475,-1.36426 h 3.03892 l -1.34358,-3.85505 -2.19107,6.26317 h -1.69499 l 2.30477,-6.57322 c 0.33761,-0.91639 0.86471,-1.37804 1.58129,-1.38493 0.71658,0.007 1.24023,0.46851 1.57096,1.38493 l 2.31509,6.57322 h -1.69498 z"
         style="font-style:normal;font-variant:normal;font-weight:normal;font-stretch:normal;font-family:'a Astro Space';-inkscape-font-specification:'a Astro Space'"
         id="path174"
         sodipodi:nodetypes="ccccccccccccc" />
      <path
         d="m -197.80854,112.18302 v 6.49054 h -1.5813 v -6.46987 c 0,-0.46853 0.19982,-0.8406 0.59945,-1.11621 0.26871,-0.17915 0.56499,-0.26872 0.88883,-0.26872 h 2.1394 c 0.95773,0 1.72599,0.28594 2.30476,0.85783 0.4892,0.4892 0.7338,1.09209 0.7338,1.80867 v 0.29972 c 0,0.88883 -0.35484,1.58474 -1.06453,2.08772 -0.55121,0.38585 -1.20922,0.57878 -1.97403,0.57878 h -3.01499 l 0.84749,-1.36426 h 2.1675 c 0.64767,0 1.0852,-0.22393 1.31257,-0.67179 0.0896,-0.18603 0.13436,-0.39618 0.13436,-0.63045 v -0.29972 c 0,-0.62011 -0.27905,-1.02319 -0.83715,-1.20922 -0.18604,-0.062 -0.3893,-0.093 -0.60978,-0.093 z"
         style="font-style:normal;font-variant:normal;font-weight:normal;font-stretch:normal;font-family:'a Astro Space';-inkscape-font-specification:'a Astro Space'"
         id="path176"
         sodipodi:nodetypes="cccscsscsscsccscssccc" />
      <path
         d="m -187.84536,118.77691 h -1.0542 q -1.28157,0 -2.18074,-0.9095 -0.85782,-0.86816 -0.85782,-2.07739 v -2.08772 q 0,-1.2609 0.9095,-2.1394 0.89917,-0.84749 2.12906,-0.84749 h 1.0542 q 1.28157,0 2.18074,0.9095 0.85782,0.86817 0.85782,2.07739 v 2.08772 q 0,1.2609 -0.9095,2.1394 -0.89917,0.84749 -2.12906,0.84749 z m -1.0542,-1.36425 h 1.0542 q 0.71313,0 1.14721,-0.64079 0.29972,-0.44442 0.29972,-0.98185 v -2.08772 q 0,-0.81648 -0.5891,-1.30224 -0.38241,-0.32039 -0.85783,-0.32039 h -1.0542 q -0.71313,0 -1.14721,0.63045 -0.31006,0.44441 -0.31006,0.99218 v 2.08772 q 0,0.80615 0.57878,1.29191 0.40307,0.33073 0.87849,0.33073 z"
         style="font-style:normal;font-variant:normal;font-weight:normal;font-stretch:normal;font-family:'a Astro Space';-inkscape-font-specification:'a Astro Space'"
         id="path178" />
      <path
         d="m -181.94393,117.3093 h 3.74136 l 0.7338,1.36426 h -4.56818 q -0.76481,0 -1.20922,-0.57878 -0.27906,-0.36173 -0.27906,-0.80615 v -6.46987 h 1.5813 z"
         style="font-style:normal;font-variant:normal;font-weight:normal;font-stretch:normal;font-family:'a Astro Space';-inkscape-font-specification:'a Astro Space'"
         id="path180" />
      <path
         d="m -175.26736,117.3093 h 3.74137 l 0.7338,1.36426 h -4.56818 q -0.76481,0 -1.20923,-0.57878 -0.27905,-0.36173 -0.27905,-0.80615 v -6.46987 h 1.58129 z"
         style="font-style:normal;font-variant:normal;font-weight:normal;font-stretch:normal;font-family:'a Astro Space';-inkscape-font-specification:'a Astro Space'"
         id="path182" />
      <path
         d="m -166.42038,118.77691 h -1.05419 q -1.28158,0 -2.18074,-0.9095 -0.85783,-0.86816 -0.85783,-2.07739 v -2.08772 q 0,-1.2609 0.9095,-2.1394 0.89917,-0.84749 2.12907,-0.84749 h 1.05419 q 1.28157,0 2.18074,0.9095 0.85783,0.86817 0.85783,2.07739 v 2.08772 q 0,1.2609 -0.90951,2.1394 -0.89916,0.84749 -2.12906,0.84749 z m -1.05419,-1.36425 h 1.05419 q 0.71313,0 1.14721,-0.64079 0.29973,-0.44442 0.29973,-0.98185 v -2.08772 q 0,-0.81648 -0.58911,-1.30224 -0.38241,-0.32039 -0.85783,-0.32039 h -1.05419 q -0.71314,0 -1.14722,0.63045 -0.31006,0.44441 -0.31006,0.99218 v 2.08772 q 0,0.80615 0.57878,1.29191 0.40307,0.33073 0.8785,0.33073 z"
         style="font-style:normal;font-variant:normal;font-weight:normal;font-stretch:normal;font-family:'a Astro Space';-inkscape-font-specification:'a Astro Space'"
         id="path184" />
      <path
         d="m -158.31754,118.67356 h -0.8785 q -1.70532,0 -2.5218,-0.97152 -0.46509,-0.54777 -0.46509,-1.24023 0,-0.98185 0.86816,-1.62263 0.16537,-0.11369 0.34107,-0.20671 -0.74414,-0.69246 -0.78548,-1.63297 0,-0.96118 0.75447,-1.59163 0.7028,-0.58911 1.80867,-0.58911 h 0.8785 q 1.44693,0 2.14973,0.95085 0.41341,0.54777 0.41341,1.22989 0,0.94051 -0.71313,1.57096 -0.0413,0.0413 -0.0724,0.062 1.00252,0.5271 1.17822,1.48828 0.031,0.1757 0.031,0.34106 0,0.97152 -0.83716,1.59163 -0.82682,0.62012 -2.14973,0.62012 z m 0,-1.36426 q 0.97151,0 1.32291,-0.54776 0.11369,-0.19637 0.11369,-0.40308 0,-0.49609 -0.54777,-0.77514 -0.37207,-0.18604 -0.88883,-0.18604 h -0.8785 q -0.97151,0 -1.32291,0.55811 -0.11369,0.19637 -0.11369,0.40307 0,0.50643 0.5581,0.77514 0.37207,0.1757 0.8785,0.1757 z m 0,-5.12628 h -0.8785 q -0.7028,0 -0.94051,0.54777 -0.0723,0.1757 -0.0723,0.37207 0,0.53743 0.45475,0.78547 0.24804,0.13436 0.5581,0.13436 h 0.8785 q 0.69246,0 0.94051,-0.53743 0.0827,-0.18603 0.0827,-0.3824 0,-0.53744 -0.46509,-0.79582 -0.24804,-0.12402 -0.5581,-0.12402 z"
         style="font-style:normal;font-variant:normal;font-weight:normal;font-stretch:normal;font-family:'a Astro Space';-inkscape-font-specification:'a Astro Space'"
         id="path186" />
      <path
         d="m -152.33343,118.67356 h -1.74666 l 3.70002,-6.49054 h -3.88605 l -0.83716,-1.36426 h 5.05394 q 1.10587,0 1.16789,0.96118 0,0.0517 0,0.10336 0,0.7338 -0.47543,1.56062 z"
         style="font-style:normal;font-variant:normal;font-weight:normal;font-stretch:normal;font-family:'a Astro Space';-inkscape-font-specification:'a Astro Space'"
         id="path188" />
      <path
         d="m -146.15295,114.9632 -0.12764,-0.85783 h 3.52794 v -3.28661 h 1.59163 v 7.8548 h -1.59163 v -3.20393 h -3.4003 v 3.20393 h -1.58129 v -7.8548 h 1.58129 z"
         style="font-style:normal;font-variant:normal;font-weight:normal;font-stretch:normal;font-family:'a Astro Space';-inkscape-font-specification:'a Astro Space'"
         id="path190"
         sodipodi:nodetypes="cccccccccccccc" />
      <path
         d="m -134.89786,112.18302 v 6.49054 h -1.58129 v -6.46987 c 0,-0.46853 0.19981,-0.8406 0.59944,-1.11621 0.26872,-0.17915 0.565,-0.26872 0.88883,-0.26872 h 2.1394 c 0.95773,0 1.72599,0.28594 2.30476,0.85783 0.4892,0.4892 0.7338,1.09209 0.7338,1.80867 v 0.29972 c 0,0.88883 -0.35484,1.58474 -1.06453,2.08772 -0.55121,0.38585 -1.20922,0.57878 -1.97403,0.57878 h -3.29791 l 0.84749,-1.36426 h 2.45042 c 0.64767,0 1.0852,-0.22393 1.31258,-0.67179 0.0896,-0.18603 0.13436,-0.39618 0.13436,-0.63045 v -0.29972 c 0,-0.62011 -0.27905,-1.02319 -0.83716,-1.20922 -0.18603,-0.062 -0.38929,-0.093 -0.60978,-0.093 z"
         style="font-style:normal;font-variant:normal;font-weight:normal;font-stretch:normal;font-family:'a Astro Space';-inkscape-font-specification:'a Astro Space'"
         id="path192"
         sodipodi:nodetypes="cccscsscsscsccscssscc" />
      <path
         d="m -127.46681,113.80565 v 1.88102 q 0,0.80615 0.57877,1.29191 0.40308,0.33072 0.8785,0.33072 h 1.05419 q 0.64079,0 1.08521,-0.43408 0.062,-0.062 0.10335,-0.11368 l 1.37459,1.05419 q -0.57878,0.54777 -1.788,0.77515 -0.42375,0.0827 -0.77515,0.0827 h -1.05419 q -1.28157,0 -2.18074,-0.90951 -0.85783,-0.86816 -0.85783,-2.07738 v -1.88102 q 0,-1.2609 0.90951,-2.13939 0.89916,-0.8475 2.12906,-0.8475 h 1.05419 q 1.00252,0 1.94303,0.44442 0.39274,0.19637 0.62012,0.41341 l -1.37459,1.06453 q -0.36174,-0.46508 -1.00252,-0.54777 -0.10335,-0.0103 -0.18604,-0.0103 h -1.05419 q -0.71313,0 -1.14722,0.63045 -0.31005,0.44441 -0.31005,0.99218 z"
         style="font-style:normal;font-variant:normal;font-weight:normal;font-stretch:normal;font-family:'a Astro Space';-inkscape-font-specification:'a Astro Space'"
         id="path194" />
      <path
         d="m -115.83965,114.63247 c 0.66835,0.3514 1.06109,0.84749 1.17822,1.48828 0.0207,0.11713 0.031,0.23082 0.031,0.34106 0,0.64768 -0.27905,1.17822 -0.83716,1.59163 -0.55121,0.41341 -1.26779,0.62012 -2.14973,0.62012 h -3.62767 v -6.46987 c 0,-0.46853 0.19981,-0.8406 0.59944,-1.11621 0.26871,-0.17915 0.56499,-0.26872 0.88883,-0.26872 h 2.1394 c 0.96462,0 1.6812,0.31695 2.14973,0.95085 0.27561,0.36518 0.41341,0.77514 0.41341,1.22989 0,0.62701 -0.23771,1.15066 -0.71313,1.57096 -0.0275,0.0275 -0.0517,0.0482 -0.0724,0.062 z m -4.3518,-0.60978 h 2.57414 c 0.46164,0 0.7717,-0.17914 0.93017,-0.53743 0.0551,-0.12402 0.0827,-0.25149 0.0827,-0.3824 0,-0.36518 -0.15847,-0.63045 -0.47542,-0.79582 -0.15847,-0.0827 -0.33762,-0.12402 -0.53743,-0.12402 h -2.04638 v 5.12628 h 2.04638 c 0.64767,0 1.08864,-0.18259 1.32291,-0.54776 0.0758,-0.13091 0.11369,-0.26527 0.11369,-0.40308 0,-0.33073 -0.18259,-0.58911 -0.54777,-0.77514 -0.24805,-0.12403 -0.54432,-0.18604 -0.88883,-0.18604 h -3.42163 z"
         style="font-style:normal;font-variant:normal;font-weight:normal;font-stretch:normal;font-family:'a Astro Space';-inkscape-font-specification:'a Astro Space'"
         id="path196"
         sodipodi:nodetypes="scscscscsscsccscscsssccscscscc" />
      <path
         d="m -108.729,112.18302 v 6.49054 h -1.58129 v -6.46987 c 0,-0.46853 0.19981,-0.8406 0.59944,-1.11621 0.26872,-0.17915 0.565,-0.26872 0.88883,-0.26872 h 2.1394 c 0.95773,0 1.72599,0.28594 2.30476,0.85783 0.48921,0.4892 0.73381,1.09209 0.73381,1.80867 v 0.29972 c 0,0.89573 -0.35484,1.59163 -1.06453,2.08772 -0.26872,0.18604 -0.565,0.32729 -0.88884,0.42375 l 2.12907,2.37711 h -1.97404 l -1.9637,-2.22208 h -2.46829 l 0.84749,-1.36426 h 2.34427 c 0.64768,0 1.08521,-0.22393 1.31258,-0.67179 0.0896,-0.18603 0.13436,-0.39618 0.13436,-0.63045 v -0.29972 c 0,-0.62011 -0.27905,-1.02319 -0.83716,-1.20922 -0.18603,-0.062 -0.38929,-0.093 -0.60978,-0.093 z"
         style="font-style:normal;font-variant:normal;font-weight:normal;font-stretch:normal;font-family:'a Astro Space';-inkscape-font-specification:'a Astro Space'"
         id="path198"
         sodipodi:nodetypes="cccscsscsscccccccscssssc" />
      <path
         d="m -100.83286,115.46963 v 1.83967 h 4.051417 l 0.744138,1.36426 h -4.888575 q -0.75447,0 -1.20922,-0.56844 -0.28939,-0.37207 -0.28939,-0.81649 v -5.08494 q 0,-0.69246 0.59944,-1.10587 0.40308,-0.27906 0.89917,-0.27906 h 4.888575 l -0.744138,1.36426 h -4.051417 v 1.92235 h 3.731024 v 1.36426 z"
         style="font-style:normal;font-variant:normal;font-weight:normal;font-stretch:normal;font-family:'a Astro Space';-inkscape-font-specification:'a Astro Space'"
         id="path200" />
      <path
         d="m -91.500125,117.08193 2.191074,-6.26317 h 1.694981 l -2.304761,6.57323 q -0.506428,1.37458 -1.581294,1.38492 -1.074866,-0.0103 -1.570958,-1.38492 l -2.315097,-6.57323 h 1.694981 z"
         style="font-style:normal;font-variant:normal;font-weight:normal;font-stretch:normal;font-family:'a Astro Space';-inkscape-font-specification:'a Astro Space'"
         id="path202" />
      <path
         d="m -88.492567,118.23948 q 0,-0.53744 0.454751,-0.82682 0.248046,-0.15503 0.527098,-0.15503 0.537433,0 0.82682,0.45475 0.155029,0.24804 0.155029,0.5271 0,0.53743 -0.454751,0.82682 -0.248046,0.15503 -0.527098,0.15503 -0.537433,0 -0.82682,-0.45476 -0.155029,-0.24804 -0.155029,-0.52709 z"
         style="font-style:normal;font-variant:normal;font-weight:normal;font-stretch:normal;font-family:'a Astro Space';-inkscape-font-specification:'a Astro Space'"
         id="path204" />
      <path
         d="m -80.617106,112.18302 v 6.49054 H -82.1984 v -6.46987 c 0,-0.46853 0.199815,-0.8406 0.599445,-1.11621 0.268717,-0.17915 0.564994,-0.26872 0.888832,-0.26872 h 2.139397 c 0.957734,0 1.725988,0.28594 2.304762,0.85783 0.489202,0.4892 0.733803,1.09209 0.733803,1.80867 v 0.29972 c 0,0.88883 -0.354844,1.58474 -1.064531,2.08772 -0.551213,0.38585 -1.209225,0.57878 -1.974034,0.57878 h -3.19001 l 0.847491,-1.36426 h 2.342519 c 0.647676,0 1.085202,-0.22393 1.312578,-0.67179 0.08957,-0.18603 0.134358,-0.39618 0.134358,-0.63045 v -0.29972 c 0,-0.62011 -0.279052,-1.02319 -0.837156,-1.20922 -0.186034,-0.062 -0.389294,-0.093 -0.60978,-0.093 z"
         style="font-style:normal;font-variant:normal;font-weight:normal;font-stretch:normal;font-family:'a Astro Space';-inkscape-font-specification:'a Astro Space'"
         id="path206"
         sodipodi:nodetypes="cccscsscsscsccscssssc" />
      <path
         d="m -72.844988,112.18302 v 6.49054 h -1.581294 v -6.46987 c 0,-0.46853 0.199815,-0.8406 0.599445,-1.11621 0.268717,-0.17915 0.564994,-0.26872 0.888832,-0.26872 h 2.139397 c 0.957733,0 1.725987,0.28594 2.304762,0.85783 0.489202,0.4892 0.733803,1.09209 0.733803,1.80867 v 0.29972 c 0,0.89573 -0.354844,1.59163 -1.064531,2.08772 -0.268717,0.18604 -0.564994,0.32729 -0.888832,0.42375 l 2.129062,2.37711 h -1.974033 l -1.963699,-2.22208 h -2.383273 l 0.847491,-1.36426 h 2.25925 c 0.647676,0 1.085202,-0.22393 1.312577,-0.67179 0.08957,-0.18603 0.134359,-0.39618 0.134359,-0.63045 v -0.29972 c 0,-0.62011 -0.279052,-1.02319 -0.837156,-1.20922 -0.186035,-0.062 -0.389295,-0.093 -0.60978,-0.093 z"
         style="font-style:normal;font-variant:normal;font-weight:normal;font-stretch:normal;font-family:'a Astro Space';-inkscape-font-specification:'a Astro Space'"
         id="path208"
         sodipodi:nodetypes="cccscsscsscccccccscssssc" />
      <path
         d="m -64.94886,115.46963 v 1.83967 h 4.05142 l 0.744138,1.36426 h -4.888575 q -0.754473,0 -1.209224,-0.56844 -0.289388,-0.37207 -0.289388,-0.81649 v -5.08494 q 0,-0.69246 0.599445,-1.10587 0.403075,-0.27906 0.899167,-0.27906 h 4.888575 l -0.744138,1.36426 h -4.05142 v 1.92235 h 3.731027 v 1.36426 z"
         style="font-style:normal;font-variant:normal;font-weight:normal;font-stretch:normal;font-family:'a Astro Space';-inkscape-font-specification:'a Astro Space'"
         id="path210" />
      <path
         d="m -59.119773,115.46963 v -1.36426 h 4.103095 v 1.36426 z"
         style="font-style:normal;font-variant:normal;font-weight:normal;font-stretch:normal;font-family:'a Astro Space';-inkscape-font-specification:'a Astro Space'"
         id="path212" />
      <path
         d="M -48.815534,117.6297 H -53.3136 l 0.847491,-1.36426 h 3.175153 l -1.343583,-3.85505 -2.191074,6.26317 h -1.694981 l 2.304761,-6.57322 c 0.337619,-0.91639 0.864717,-1.37804 1.581294,-1.38493 0.716577,0.007 1.24023,0.46851 1.570959,1.38493 l 2.315096,6.57322 h -1.694981 z"
         style="font-style:normal;font-variant:normal;font-weight:normal;font-stretch:normal;font-family:'a Astro Space';-inkscape-font-specification:'a Astro Space'"
         id="path214"
         sodipodi:nodetypes="ccccccccccccc" />
      <path
         d="m -44.268013,117.3093 h 3.741362 l 0.733803,1.36426 h -4.568182 q -0.764809,0 -1.209225,-0.57878 -0.279051,-0.36173 -0.279051,-0.80615 v -6.46987 h 1.581293 z"
         style="font-style:normal;font-variant:normal;font-weight:normal;font-stretch:normal;font-family:'a Astro Space';-inkscape-font-specification:'a Astro Space'"
         id="path216" />
      <path
         d="m -37.612108,112.18302 v 6.49054 h -1.581294 v -6.46987 c 0,-0.46853 0.199815,-0.8406 0.599444,-1.11621 0.268717,-0.17915 0.564994,-0.26872 0.888832,-0.26872 h 2.139398 c 0.957733,0 1.725987,0.28594 2.304761,0.85783 0.489202,0.4892 0.733803,1.09209 0.733803,1.80867 v 0.29972 c 0,0.88883 -0.354844,1.58474 -1.064531,2.08772 -0.551213,0.38585 -1.209224,0.57878 -1.974033,0.57878 h -3.280363 l 0.847491,-1.36426 h 2.432872 c 0.647676,0 1.085202,-0.22393 1.312577,-0.67179 0.08957,-0.18603 0.134358,-0.39618 0.134358,-0.63045 v -0.29972 c 0,-0.62011 -0.279052,-1.02319 -0.837155,-1.20922 -0.186035,-0.062 -0.389295,-0.093 -0.60978,-0.093 z"
         style="font-style:normal;font-variant:normal;font-weight:normal;font-stretch:normal;font-family:'a Astro Space';-inkscape-font-specification:'a Astro Space'"
         id="path218"
         sodipodi:nodetypes="cccscsscsscsccscssssc" />
      <path
         d="m -29.767652,114.9632 -0.375354,-0.85783 h 3.775653 v -3.28661 h 1.591629 v 7.8548 h -1.591629 v -3.20393 h -3.400299 v 3.20393 h -1.581294 v -7.8548 h 1.581294 z"
         style="font-style:normal;font-variant:normal;font-weight:normal;font-stretch:normal;font-family:'a Astro Space';-inkscape-font-specification:'a Astro Space'"
         id="path220"
         sodipodi:nodetypes="cccccccccccccc" />
      <path
         d="m -18.243849,117.6297 h -4.494415 l 0.847491,-1.36426 h 3.171503 l -1.343583,-3.85505 -2.191074,6.26317 h -1.694982 l 2.304762,-6.57322 c 0.337618,-0.91639 0.864716,-1.37804 1.581294,-1.38493 0.716577,0.007 1.24023,0.46851 1.570958,1.38493 l 2.315097,6.57322 h -1.694981 z"
         style="font-style:normal;font-variant:normal;font-weight:normal;font-stretch:normal;font-family:'a Astro Space';-inkscape-font-specification:'a Astro Space'"
         id="path222"
         sodipodi:nodetypes="ccccccccccccc" />
      <path
         d="m -12.032361,110.39502 h 0.733803 v 10.18022 h -0.733803 z"
         style="font-style:normal;font-variant:normal;font-weight:normal;font-stretch:normal;font-family:'a Astro Space';-inkscape-font-specification:'a Astro Space'"
         id="path224" />
      <path
         d="m -1.552417,115.68667 v -1.88102 q 0,-0.81648 -0.5891095,-1.30224 -0.3824044,-0.32039 -0.857826,-0.32039 h -2.0463802 v 5.12628 h 2.0463802 q 0.7131325,0 1.1472131,-0.64078 0.2997224,-0.44442 0.2997224,-0.98185 z m -5.0746095,-3.48298 q 0,-0.7028 0.5994447,-1.11621 0.4030749,-0.26872 0.8888318,-0.26872 h 2.1393975 q 1.2815714,0 2.18073846,0.90951 0.85782604,0.86816 0.85782604,2.07738 v 1.88102 q 0,1.2609 -0.90950231,2.1394 -0.89916709,0.84749 -2.12906219,0.84749 h -3.627674 z"
         style="font-style:normal;font-variant:normal;font-weight:normal;font-stretch:normal;font-family:'a Astro Space';-inkscape-font-specification:'a Astro Space'"
         id="path226" />
      <path
         d="m 2.7780539,115.46963 v 1.83967 h 4.0514194 l 0.7441383,1.36426 h -4.888575 q -0.7544735,0 -1.2092246,-0.56844 -0.2893871,-0.37207 -0.2893871,-0.81649 v -5.08494 q 0,-0.69246 0.5994447,-1.10587 0.4030749,-0.27906 0.899167,-0.27906 h 4.888575 l -0.7441383,1.36426 H 2.7780539 v 1.92235 h 3.7310265 v 1.36426 z"
         style="font-style:normal;font-variant:normal;font-weight:normal;font-stretch:normal;font-family:'a Astro Space';-inkscape-font-specification:'a Astro Space'"
         id="path228" />
      <path
         d="m 8.4624467,113.06151 q 0,-0.95084 0.8888318,-1.6123 0.8578265,-0.63045 2.0463805,-0.63045 h 1.054196 q 0.961178,0 1.860345,0.44442 0.372069,0.19637 0.599445,0.41341 l -1.384924,1.06453 q -0.341063,-0.47542 -0.930173,-0.54777 -0.07235,-0.0103 -0.144693,-0.0103 h -1.054196 q -0.775144,0 -1.167884,0.43408 -0.175699,0.21704 -0.175699,0.44441 0,0.40308 0.857826,0.69247 0.268716,0.093 0.909502,0.25838 1.550288,0.40307 2.170403,0.78548 1.012855,0.62011 1.02319,1.63297 0,0.94051 -0.909502,1.60196 -0.899167,0.64079 -2.129062,0.64079 h -1.054196 q -1.0025195,0 -1.9430276,-0.44442 -0.3927396,-0.19637 -0.6201152,-0.41341 l 1.3642535,-1.05419 q 0.3617343,0.45475 1.0128553,0.53743 0.103352,0.0103 0.186034,0.0103 h 1.054196 q 0.837155,0 1.260901,-0.44441 0.186034,-0.20671 0.186034,-0.43408 0,-0.45475 -0.857826,-0.75448 -0.124023,-0.0517 -1.498611,-0.42374 -1.5812942,-0.42375 -2.1497331,-1.02319 -0.4547512,-0.49609 -0.4547512,-1.16789 z"
         style="font-style:normal;font-variant:normal;font-weight:normal;font-stretch:normal;font-family:'a Astro Space';-inkscape-font-specification:'a Astro Space'"
         id="path230" />
      <path
         d="m 16.327568,110.81876 h 1.581294 v 7.8548 h -1.581294 z"
         style="font-style:normal;font-variant:normal;font-weight:normal;font-stretch:normal;font-family:'a Astro Space';-inkscape-font-specification:'a Astro Space'"
         id="path232" />
      <path
         d="m 22.10498,110.81876 h 1.054196 q 1.002519,0 1.943027,0.44442 0.39274,0.19637 0.620116,0.41341 l -1.374589,1.06453 q -0.361734,-0.46508 -1.00252,-0.54777 -0.103352,-0.0103 -0.186034,-0.0103 H 22.10498 q -0.702797,0 -1.136878,0.63045 -0.299722,0.44441 -0.299722,0.99218 v 1.88102 q 0,0.80615 0.578774,1.29191 0.403075,0.33072 0.878496,0.33072 h 2.036045 v -2.5528 h 1.591629 v 2.53213 q 0,0.7028 -0.599444,1.11621 -0.403075,0.26872 -0.888832,0.26872 H 22.12565 q -1.281571,0 -2.180738,-0.90951 -0.857826,-0.86816 -0.857826,-2.07738 v -1.88102 q 0,-1.27123 0.919837,-2.14973 0.878497,-0.83716 2.098057,-0.83716 z"
         style="font-style:normal;font-variant:normal;font-weight:normal;font-stretch:normal;font-family:'a Astro Space';-inkscape-font-specification:'a Astro Space'"
         id="path234" />
      <path
         d="m 28.719546,110.76709 q 0.868162,0 1.405595,1.01285 0.08268,0.16537 0.175699,0.37207 l 2.201409,5.1883 v -6.52155 h 1.581294 v 6.52155 q 0,0.66146 -0.630451,1.0852 -0.444415,0.29972 -0.961178,0.29972 -0.868161,0 -1.405595,-1.01285 -0.08268,-0.16537 -0.175699,-0.37207 l -2.201409,-5.1883 v 6.52155 h -1.581294 v -6.52155 q 0,-0.66145 0.630451,-1.0852 0.444416,-0.29972 0.961178,-0.29972 z"
         style="font-style:normal;font-variant:normal;font-weight:normal;font-stretch:normal;font-family:'a Astro Space';-inkscape-font-specification:'a Astro Space'"
         id="path236" />
      <path
         d="m 37.070428,115.46963 v 1.83967 h 4.051419 l 0.744138,1.36426 H 36.97741 q -0.754473,0 -1.209224,-0.56844 -0.289387,-0.37207 -0.289387,-0.81649 v -5.08494 q 0,-0.69246 0.599444,-1.10587 0.403075,-0.27906 0.899167,-0.27906 h 4.888575 l -0.744138,1.36426 h -4.051419 v 1.92235 h 3.731026 v 1.36426 z"
         style="font-style:normal;font-variant:normal;font-weight:normal;font-stretch:normal;font-family:'a Astro Space';-inkscape-font-specification:'a Astro Space'"
         id="path238" />
      <path
         d="m 48.087811,115.68667 v -1.88102 q 0,-0.81648 -0.589109,-1.30224 -0.382405,-0.32039 -0.857826,-0.32039 h -2.04638 v 5.12628 h 2.04638 q 0.713132,0 1.147213,-0.64078 0.299722,-0.44442 0.299722,-0.98185 z m -5.074609,-3.48298 q 0,-0.7028 0.599444,-1.11621 0.403075,-0.26872 0.888832,-0.26872 h 2.139398 q 1.281571,0 2.180738,0.90951 0.857826,0.86816 0.857826,2.07738 v 1.88102 q 0,1.2609 -0.909502,2.1394 -0.899167,0.84749 -2.129062,0.84749 h -3.627674 z"
         style="font-style:normal;font-variant:normal;font-weight:normal;font-stretch:normal;font-family:'a Astro Space';-inkscape-font-specification:'a Astro Space'"
         id="path240" />
      <path
         d="m 59.487601,114.63247 c 0.668346,0.3514 1.061086,0.84749 1.178219,1.48828 0.02067,0.11713 0.03101,0.23082 0.03101,0.34106 0,0.64768 -0.279052,1.17822 -0.837155,1.59163 -0.551214,0.41341 -1.267792,0.62012 -2.149733,0.62012 h -3.627674 v -6.46987 c 0,-0.46853 0.199815,-0.8406 0.599445,-1.11621 0.268717,-0.17915 0.564994,-0.26872 0.888832,-0.26872 h 2.139397 c 0.964624,0 1.681202,0.31695 2.149733,0.95085 0.275607,0.36518 0.41341,0.77514 0.41341,1.22989 0,0.62701 -0.237711,1.15066 -0.713133,1.57096 -0.02756,0.0275 -0.05168,0.0482 -0.07235,0.062 z m -4.12299,-0.60978 h 2.345326 c 0.461641,0 0.771699,-0.17914 0.930173,-0.53743 0.05512,-0.12402 0.08268,-0.25149 0.08268,-0.3824 0,-0.36518 -0.158474,-0.63045 -0.475422,-0.79582 -0.158474,-0.0827 -0.337618,-0.12402 -0.537433,-0.12402 h -2.04638 v 5.12628 h 2.04638 c 0.647676,0 1.088647,-0.18259 1.322912,-0.54776 0.07579,-0.13091 0.113688,-0.26527 0.113688,-0.40308 0,-0.33073 -0.182589,-0.58911 -0.547768,-0.77514 -0.248046,-0.12403 -0.544323,-0.18604 -0.888832,-0.18604 h -3.192817 z"
         style="font-style:normal;font-variant:normal;font-weight:normal;font-stretch:normal;font-family:'a Astro Space';-inkscape-font-specification:'a Astro Space'"
         id="path242"
         sodipodi:nodetypes="scscscscsscscsscscsssccscscscc" />
      <path
         d="m 65.058307,114.2294 2.191073,-3.41064 h 1.694982 l -2.315097,3.7207 q -0.41341,0.64078 -0.764809,0.89916 v 3.23494 h -1.591629 v -3.21427 q -0.403075,-0.28938 -0.795814,-0.91983 l -2.304762,-3.7207 h 1.694982 z"
         style="font-style:normal;font-variant:normal;font-weight:normal;font-stretch:normal;font-family:'a Astro Space';-inkscape-font-specification:'a Astro Space'"
         id="path244" />
      <path
         d="m 75.496887,110.81876 h 1.054196 q 1.002519,0 1.943027,0.44442 0.39274,0.19637 0.620115,0.41341 l -1.374588,1.06453 q -0.361734,-0.46508 -1.00252,-0.54777 -0.103352,-0.0103 -0.186034,-0.0103 h -1.054196 q -0.702798,0 -1.136878,0.63045 -0.299723,0.44441 -0.299723,0.99218 v 1.88102 q 0,0.80615 0.578775,1.29191 0.403074,0.33072 0.878496,0.33072 h 2.036045 v -2.5528 h 1.591629 v 2.53213 q 0,0.7028 -0.599445,1.11621 -0.403074,0.26872 -0.888831,0.26872 h -2.139398 q -1.281571,0 -2.180738,-0.90951 -0.857826,-0.86816 -0.857826,-2.07738 v -1.88102 q 0,-1.27123 0.919837,-2.14973 0.878497,-0.83716 2.098057,-0.83716 z"
         style="font-style:normal;font-variant:normal;font-weight:normal;font-stretch:normal;font-family:'a Astro Space';-inkscape-font-specification:'a Astro Space'"
         id="path246" />
      <path
         d="m 84.292192,118.77691 h -1.054196 q -1.281572,0 -2.180739,-0.9095 -0.857826,-0.86816 -0.857826,-2.07739 v -2.08772 q 0,-1.2609 0.909503,-2.1394 0.899167,-0.84749 2.129062,-0.84749 h 1.054196 q 1.281571,0 2.180738,0.9095 0.857826,0.86817 0.857826,2.07739 v 2.08772 q 0,1.2609 -0.909502,2.1394 -0.899167,0.84749 -2.129062,0.84749 z m -1.054196,-1.36425 h 1.054196 q 0.713132,0 1.147213,-0.64079 0.299722,-0.44442 0.299722,-0.98185 v -2.08772 q 0,-0.81648 -0.589109,-1.30224 -0.382405,-0.32039 -0.857826,-0.32039 h -1.054196 q -0.713133,0 -1.147213,0.63045 -0.310058,0.44441 -0.310058,0.99218 v 2.08772 q 0,0.80615 0.578774,1.29191 0.403075,0.33073 0.878497,0.33073 z"
         style="font-style:normal;font-variant:normal;font-weight:normal;font-stretch:normal;font-family:'a Astro Space';-inkscape-font-specification:'a Astro Space'"
         id="path248" />
      <path
         d="m 90.183291,110.76709 q 0.868162,0 1.405595,1.01285 0.08268,0.16537 0.175699,0.37207 l 2.201409,5.1883 v -6.52155 h 1.581294 v 6.52155 q 0,0.66146 -0.63045,1.0852 -0.444416,0.29972 -0.961179,0.29972 -0.868161,0 -1.405594,-1.01285 -0.08268,-0.16537 -0.1757,-0.37207 l -2.201409,-5.1883 v 6.52155 h -1.581294 v -6.52155 q 0,-0.66145 0.630451,-1.0852 0.444416,-0.29972 0.961178,-0.29972 z"
         style="font-style:normal;font-variant:normal;font-weight:normal;font-stretch:normal;font-family:'a Astro Space';-inkscape-font-specification:'a Astro Space'"
         id="path250" />
      <path
         d="m 102.09984,115.68667 v -1.88102 q 0,-0.81648 -0.58911,-1.30224 -0.38241,-0.32039 -0.85783,-0.32039 h -2.046381 v 5.12628 h 2.046381 q 0.71313,0 1.14721,-0.64078 0.29973,-0.44442 0.29973,-0.98185 z m -5.074614,-3.48298 q 0,-0.7028 0.599444,-1.11621 0.403075,-0.26872 0.888832,-0.26872 h 2.139398 q 1.28157,0 2.18074,0.90951 0.85782,0.86816 0.85782,2.07738 v 1.88102 q 0,1.2609 -0.9095,2.1394 -0.89917,0.84749 -2.12906,0.84749 h -3.627674 z"
         style="font-style:normal;font-variant:normal;font-weight:normal;font-stretch:normal;font-family:'a Astro Space';-inkscape-font-specification:'a Astro Space'"
         id="path252" />
      <path
         d="m 108.69374,118.77691 h -1.05419 q -1.28158,0 -2.18074,-0.9095 -0.85783,-0.86816 -0.85783,-2.07739 v -2.08772 q 0,-1.2609 0.9095,-2.1394 0.89917,-0.84749 2.12907,-0.84749 h 1.05419 q 1.28157,0 2.18074,0.9095 0.85783,0.86817 0.85783,2.07739 v 2.08772 q 0,1.2609 -0.90951,2.1394 -0.89916,0.84749 -2.12906,0.84749 z m -1.05419,-1.36425 h 1.05419 q 0.71313,0 1.14722,-0.64079 0.29972,-0.44442 0.29972,-0.98185 v -2.08772 q 0,-0.81648 -0.58911,-1.30224 -0.38241,-0.32039 -0.85783,-0.32039 h -1.05419 q -0.71314,0 -1.14722,0.63045 -0.31005,0.44441 -0.31005,0.99218 v 2.08772 q 0,0.80615 0.57877,1.29191 0.40307,0.33073 0.8785,0.33073 z"
         style="font-style:normal;font-variant:normal;font-weight:normal;font-stretch:normal;font-family:'a Astro Space';-inkscape-font-specification:'a Astro Space'"
         id="path254" />
      <path
         d="m 114.59518,117.3093 h 3.74136 l 0.7338,1.36426 h -4.56818 q -0.76481,0 -1.20922,-0.57878 -0.27906,-0.36173 -0.27906,-0.80615 v -6.46987 h 1.5813 z"
         style="font-style:normal;font-variant:normal;font-weight:normal;font-stretch:normal;font-family:'a Astro Space';-inkscape-font-specification:'a Astro Space'"
         id="path256" />
      <path
         d="m 119.74213,110.81876 h 1.5813 v 7.8548 h -1.5813 z"
         style="font-style:normal;font-variant:normal;font-weight:normal;font-stretch:normal;font-family:'a Astro Space';-inkscape-font-specification:'a Astro Space'"
         id="path258" />
      <path
         d="m 124.43433,110.76709 q 0.86816,0 1.40559,1.01285 0.0827,0.16537 0.1757,0.37207 l 2.20141,5.1883 v -6.52155 h 1.5813 v 6.52155 q 0,0.66146 -0.63045,1.0852 -0.44442,0.29972 -0.96118,0.29972 -0.86816,0 -1.4056,-1.01285 -0.0827,-0.16537 -0.1757,-0.37207 l -2.20141,-5.1883 v 6.52155 h -1.58129 v -6.52155 q 0,-0.66145 0.63045,-1.0852 0.44442,-0.29972 0.96118,-0.29972 z"
         style="font-style:normal;font-variant:normal;font-weight:normal;font-stretch:normal;font-family:'a Astro Space';-inkscape-font-specification:'a Astro Space'"
         id="path260" />
      <path
         d="m 136.35087,115.68667 v -1.88102 q 0,-0.81648 -0.58911,-1.30224 -0.3824,-0.32039 -0.85782,-0.32039 h -2.04638 v 5.12628 h 2.04638 q 0.71313,0 1.14721,-0.64078 0.29972,-0.44442 0.29972,-0.98185 z m -5.07461,-3.48298 q 0,-0.7028 0.59945,-1.11621 0.40307,-0.26872 0.88883,-0.26872 h 2.1394 q 1.28157,0 2.18074,0.90951 0.85782,0.86816 0.85782,2.07738 v 1.88102 q 0,1.2609 -0.9095,2.1394 -0.89917,0.84749 -2.12906,0.84749 h -3.62768 z"
         style="font-style:normal;font-variant:normal;font-weight:normal;font-stretch:normal;font-family:'a Astro Space';-inkscape-font-specification:'a Astro Space'"
         id="path262" />
      <path
         d="m 140.75371,112.18302 v 6.49054 h -1.5813 v -6.46987 c 0,-0.46853 0.19982,-0.8406 0.59945,-1.11621 0.26871,-0.17915 0.56499,-0.26872 0.88883,-0.26872 h 2.1394 c 0.95773,0 1.72599,0.28594 2.30476,0.85783 0.4892,0.4892 0.7338,1.09209 0.7338,1.80867 v 0.29972 c 0,0.89573 -0.35484,1.59163 -1.06453,2.08772 -0.26872,0.18604 -0.565,0.32729 -0.88883,0.42375 l 2.12906,2.37711 h -1.97403 l -1.9637,-2.22208 h -2.36293 l 0.84749,-1.36426 h 2.23891 c 0.64767,0 1.0852,-0.22393 1.31257,-0.67179 0.0896,-0.18603 0.13436,-0.39618 0.13436,-0.63045 v -0.29972 c 0,-0.62011 -0.27905,-1.02319 -0.83715,-1.20922 -0.18604,-0.062 -0.3893,-0.093 -0.60978,-0.093 z"
         style="font-style:normal;font-variant:normal;font-weight:normal;font-stretch:normal;font-family:'a Astro Space';-inkscape-font-specification:'a Astro Space'"
         id="path264"
         sodipodi:nodetypes="cccscsscsscccccccscssssc" />
      <path
         d="m 147.21323,110.81876 h 1.5813 v 7.8548 h -1.5813 z"
         style="font-style:normal;font-variant:normal;font-weight:normal;font-stretch:normal;font-family:'a Astro Space';-inkscape-font-specification:'a Astro Space'"
         id="path266" />
      <path
         d="m 157.51747,112.4414 -1.75699,5.08494 h -1.67431 l -1.757,-5.08494 -0.59944,6.23216 h -1.69498 l 0.72347,-6.54222 q 0.10335,-0.8785 0.82682,-1.22989 0.29972,-0.13436 0.63045,-0.13436 0.71313,0 1.0852,0.54777 0.093,0.13435 0.15503,0.28938 l 1.4676,4.29947 1.46761,-4.29947 q 0.23771,-0.64078 0.91984,-0.79581 0.16536,-0.0413 0.32039,-0.0413 0.74414,0 1.16788,0.57877 0.23771,0.34107 0.28939,0.78548 l 0.72347,6.54222 h -1.69498 z"
         style="font-style:normal;font-variant:normal;font-weight:normal;font-stretch:normal;font-family:'a Astro Space';-inkscape-font-specification:'a Astro Space'"
         id="path268" />
      <path
         d="m 164.27672,110.39502 h 0.7338 v 10.18022 h -0.7338 z"
         style="font-style:normal;font-variant:normal;font-weight:normal;font-stretch:normal;font-family:'a Astro Space';-inkscape-font-specification:'a Astro Space'"
         id="path270" />
      <g
         id="g315"
         transform="matrix(1,0,-0.24923663,1,28.598946,0)">
        <path
           d="m 169.7544,110.81876 h 1.5813 v 7.8548 h -1.5813 z"
           style="font-style:normal;font-variant:normal;font-weight:normal;font-stretch:normal;font-family:'a Astro Space';-inkscape-font-specification:'a Astro Space'"
           id="path272" />
        <path
           d="m 177.62988,117.3093 h 3.74136 l 0.7338,1.36426 h -4.56818 q -0.76481,0 -1.20923,-0.57878 -0.27905,-0.36173 -0.27905,-0.80615 v -6.46987 h 1.5813 z"
           style="font-style:normal;font-variant:normal;font-weight:normal;font-stretch:normal;font-family:'a Astro Space';-inkscape-font-specification:'a Astro Space'"
           id="path274" />
        <path
           d="m 186.47685,118.77691 h -1.05419 q -1.28157,0 -2.18074,-0.9095 -0.85783,-0.86816 -0.85783,-2.07739 v -2.08772 q 0,-1.2609 0.90951,-2.1394 0.89916,-0.84749 2.12906,-0.84749 h 1.05419 q 1.28157,0 2.18074,0.9095 0.85783,0.86817 0.85783,2.07739 v 2.08772 q 0,1.2609 -0.9095,2.1394 -0.89917,0.84749 -2.12907,0.84749 z m -1.05419,-1.36425 h 1.05419 q 0.71314,0 1.14722,-0.64079 0.29972,-0.44442 0.29972,-0.98185 v -2.08772 q 0,-0.81648 -0.58911,-1.30224 -0.3824,-0.32039 -0.85783,-0.32039 h -1.05419 q -0.71313,0 -1.14722,0.63045 -0.31005,0.44441 -0.31005,0.99218 v 2.08772 q 0,0.80615 0.57877,1.29191 0.40308,0.33073 0.8785,0.33073 z"
           style="font-style:normal;font-variant:normal;font-weight:normal;font-stretch:normal;font-family:'a Astro Space';-inkscape-font-specification:'a Astro Space'"
           id="path276" />
        <path
           d="m 194.16629,117.08193 2.19107,-6.26317 h 1.69498 l -2.30476,6.57323 q -0.50643,1.37458 -1.58129,1.38492 -1.07487,-0.0103 -1.57096,-1.38492 l -2.3151,-6.57323 h 1.69498 z"
           style="font-style:normal;font-variant:normal;font-weight:normal;font-stretch:normal;font-family:'a Astro Space';-inkscape-font-specification:'a Astro Space'"
           id="path278" />
        <path
           d="m 200.47079,115.46963 v 1.83967 h 4.05142 l 0.74414,1.36426 h -4.88858 q -0.75447,0 -1.20922,-0.56844 -0.28939,-0.37207 -0.28939,-0.81649 v -5.08494 q 0,-0.69246 0.59944,-1.10587 0.40308,-0.27906 0.89917,-0.27906 h 4.88858 l -0.74414,1.36426 h -4.05142 v 1.92235 h 3.73102 v 1.36426 z"
           style="font-style:normal;font-variant:normal;font-weight:normal;font-stretch:normal;font-family:'a Astro Space';-inkscape-font-specification:'a Astro Space'"
           id="path280" />
        <path
           d="m 211.16777,115.46963 v 3.20393 h -1.5813 v -6.46987 q 0,-0.7028 0.59945,-1.11621 0.40307,-0.26872 0.88883,-0.26872 h 4.88858 l -0.74414,1.36426 h -4.05142 v 1.92235 h 3.74136 v 1.36426 z"
           style="font-style:normal;font-variant:normal;font-weight:normal;font-stretch:normal;font-family:'a Astro Space';-inkscape-font-specification:'a Astro Space'"
           id="path282" />
        <path
           d="m 218.34044,112.18302 v 6.49054 h -1.5813 v -6.46987 c 0,-0.46853 0.19982,-0.8406 0.59945,-1.11621 0.26871,-0.17915 0.56499,-0.26872 0.88883,-0.26872 h 2.1394 c 0.95773,0 1.72599,0.28594 2.30476,0.85783 0.4892,0.4892 0.7338,1.09209 0.7338,1.80867 v 0.29972 c 0,0.89573 -0.35484,1.59163 -1.06453,2.08772 -0.26871,0.18604 -0.56499,0.32729 -0.88883,0.42375 l 2.12906,2.37711 h -1.97403 l -1.9637,-2.22208 h -2.43681 l 0.84749,-1.36426 h 2.31279 c 0.64767,0 1.0852,-0.22393 1.31257,-0.67179 0.0896,-0.18603 0.13436,-0.39618 0.13436,-0.63045 v -0.29972 c 0,-0.62011 -0.27905,-1.02319 -0.83715,-1.20922 -0.18603,-0.062 -0.38929,-0.093 -0.60978,-0.093 z"
           style="font-style:normal;font-variant:normal;font-weight:normal;font-stretch:normal;font-family:'a Astro Space';-inkscape-font-specification:'a Astro Space'"
           id="path284"
           sodipodi:nodetypes="cccscsscsscccccccscssssc" />
        <path
           d="m 228.49999,118.77691 h -1.0542 q -1.28157,0 -2.18074,-0.9095 -0.85782,-0.86816 -0.85782,-2.07739 v -2.08772 q 0,-1.2609 0.9095,-2.1394 0.89916,-0.84749 2.12906,-0.84749 h 1.0542 q 1.28157,0 2.18073,0.9095 0.85783,0.86817 0.85783,2.07739 v 2.08772 q 0,1.2609 -0.9095,2.1394 -0.89917,0.84749 -2.12906,0.84749 z m -1.0542,-1.36425 h 1.0542 q 0.71313,0 1.14721,-0.64079 0.29972,-0.44442 0.29972,-0.98185 v -2.08772 q 0,-0.81648 -0.58911,-1.30224 -0.3824,-0.32039 -0.85782,-0.32039 h -1.0542 q -0.71313,0 -1.14721,0.63045 -0.31006,0.44441 -0.31006,0.99218 v 2.08772 q 0,0.80615 0.57877,1.29191 0.40308,0.33073 0.8785,0.33073 z"
           style="font-style:normal;font-variant:normal;font-weight:normal;font-stretch:normal;font-family:'a Astro Space';-inkscape-font-specification:'a Astro Space'"
           id="path286" />
        <path
           d="m 235.47629,110.81876 h 1.05419 q 1.00252,0 1.94303,0.44442 0.39274,0.19637 0.62012,0.41341 l -1.37459,1.06453 q -0.36174,-0.46508 -1.00252,-0.54777 -0.10335,-0.0103 -0.18604,-0.0103 h -1.05419 q -0.7028,0 -1.13688,0.63045 -0.29972,0.44441 -0.29972,0.99218 v 1.88102 q 0,0.80615 0.57877,1.29191 0.40308,0.33072 0.8785,0.33072 h 2.03604 v -2.5528 h 1.59163 v 2.53213 q 0,0.7028 -0.59944,1.11621 -0.40308,0.26872 -0.88883,0.26872 h -2.1394 q -1.28157,0 -2.18074,-0.90951 -0.85783,-0.86816 -0.85783,-2.07738 v -1.88102 q 0,-1.27123 0.91984,-2.14973 0.8785,-0.83716 2.09806,-0.83716 z"
           style="font-style:normal;font-variant:normal;font-weight:normal;font-stretch:normal;font-family:'a Astro Space';-inkscape-font-specification:'a Astro Space'"
           id="path288" />
        <path
           d="m 248.74675,115.68667 v -1.88102 q 0,-0.81648 -0.58911,-1.30224 -0.38241,-0.32039 -0.85783,-0.32039 h -2.04638 v 5.12628 h 2.04638 q 0.71313,0 1.14721,-0.64078 0.29973,-0.44442 0.29973,-0.98185 z m -5.07461,-3.48298 q 0,-0.7028 0.59944,-1.11621 0.40308,-0.26872 0.88883,-0.26872 h 2.1394 q 1.28157,0 2.18074,0.90951 0.85783,0.86816 0.85783,2.07738 v 1.88102 q 0,1.2609 -0.90951,2.1394 -0.89916,0.84749 -2.12906,0.84749 h -3.62767 z"
           style="font-style:normal;font-variant:normal;font-weight:normal;font-stretch:normal;font-family:'a Astro Space';-inkscape-font-specification:'a Astro Space'"
           id="path290" />
        <path
           d="m 256.59122,117.6297 h -4.87524 l 0.84749,-1.36426 h 3.55233 l -1.34359,-3.85505 -2.19107,6.26317 h -1.69498 l 2.30476,-6.57322 c 0.33762,-0.91639 0.86472,-1.37804 1.58129,-1.38493 0.71658,0.007 1.24023,0.46851 1.57096,1.38493 l 2.3151,6.57322 h -1.69498 z"
           style="font-style:normal;font-variant:normal;font-weight:normal;font-stretch:normal;font-family:'a Astro Space';-inkscape-font-specification:'a Astro Space'"
           id="path292"
           sodipodi:nodetypes="ccccccccccccc" />
        <path
           d="m 264.61137,115.68667 v -1.88102 q 0,-0.81648 -0.58911,-1.30224 -0.3824,-0.32039 -0.85782,-0.32039 h -2.04638 v 5.12628 h 2.04638 q 0.71313,0 1.14721,-0.64078 0.29972,-0.44442 0.29972,-0.98185 z m -5.07461,-3.48298 q 0,-0.7028 0.59945,-1.11621 0.40307,-0.26872 0.88883,-0.26872 h 2.1394 q 1.28157,0 2.18073,0.90951 0.85783,0.86816 0.85783,2.07738 v 1.88102 q 0,1.2609 -0.9095,2.1394 -0.89917,0.84749 -2.12906,0.84749 h -3.62768 z"
           style="font-style:normal;font-variant:normal;font-weight:normal;font-stretch:normal;font-family:'a Astro Space';-inkscape-font-specification:'a Astro Space'"
           id="path294" />
        <path
           d="m 272.50749,115.68667 v -1.88102 q 0,-0.81648 -0.58911,-1.30224 -0.3824,-0.32039 -0.85783,-0.32039 h -2.04638 v 5.12628 h 2.04638 q 0.71314,0 1.14722,-0.64078 0.29972,-0.44442 0.29972,-0.98185 z m -5.07461,-3.48298 q 0,-0.7028 0.59944,-1.11621 0.40308,-0.26872 0.88884,-0.26872 h 2.13939 q 1.28157,0 2.18074,0.90951 0.85783,0.86816 0.85783,2.07738 v 1.88102 q 0,1.2609 -0.9095,2.1394 -0.89917,0.84749 -2.12907,0.84749 h -3.62767 z"
           style="font-style:normal;font-variant:normal;font-weight:normal;font-stretch:normal;font-family:'a Astro Space';-inkscape-font-specification:'a Astro Space'"
           id="path296" />
        <path
           d="m 278.54329,114.2294 2.19108,-3.41064 h 1.69498 l -2.3151,3.7207 q -0.41341,0.64078 -0.76481,0.89916 v 3.23494 h -1.59163 v -3.21427 q -0.40307,-0.28938 -0.79581,-0.91983 l -2.30476,-3.7207 h 1.69498 z"
           style="font-style:normal;font-variant:normal;font-weight:normal;font-stretch:normal;font-family:'a Astro Space';-inkscape-font-specification:'a Astro Space'"
           id="path298" />
      </g>
    </g>
  </g>
</svg>
