<?xml version="1.0" encoding="UTF-8" standalone="no"?>
<svg
   width="98.281326mm"
   height="2.2999992mm"
   viewBox="0 0 98.281324 2.2999993"
   version="1.1"
   id="svg8"
   inkscape:version="1.1 (c4e8f9ed74, 2021-05-24)"
   sodipodi:docname="apollo87h_label.svg"
   inkscape:export-filename="/home/alvaro/Desktop/AcheronProject/Apollo87H/resources/apollo87h_label.png"
   inkscape:export-xdpi="5000"
   inkscape:export-ydpi="5000"
   xmlns:inkscape="http://www.inkscape.org/namespaces/inkscape"
   xmlns:sodipodi="http://sodipodi.sourceforge.net/DTD/sodipodi-0.dtd"
   xmlns="http://www.w3.org/2000/svg"
   xmlns:svg="http://www.w3.org/2000/svg"
   xmlns:rdf="http://www.w3.org/1999/02/22-rdf-syntax-ns#"
   xmlns:cc="http://creativecommons.org/ns#"
   xmlns:dc="http://purl.org/dc/elements/1.1/">
  <defs
     id="defs2">
    <rect
       x="-208.05171"
       y="110.20891"
       width="508.40088"
       height="11.106036"
       id="rect12" />
    <rect
       x="-208.05171"
       y="110.20891"
       width="424.19156"
       height="15.861772"
       id="rect74" />
    <rect
       x="-208.05171"
       y="110.20891"
       width="508.40088"
       height="11.106036"
       id="rect172" />
    <rect
       x="-208.05171"
       y="110.20891"
       width="508.40088"
       height="11.106036"
       id="rect2326" />
  </defs>
  <sodipodi:namedview
     id="base"
     pagecolor="#ffffff"
     bordercolor="#666666"
     borderopacity="1.0"
     inkscape:pageopacity="0.0"
     inkscape:pageshadow="2"
     inkscape:zoom="1.4142135"
     inkscape:cx="262.69018"
     inkscape:cy="126.92567"
     inkscape:document-units="mm"
     inkscape:current-layer="g4567"
     inkscape:document-rotation="0"
     showgrid="false"
     inkscape:window-width="1920"
     inkscape:window-height="1043"
     inkscape:window-x="1920"
     inkscape:window-y="200"
     inkscape:window-maximized="1"
     inkscape:pagecheckerboard="0" />
  <metadata
     id="metadata5">
    <rdf:RDF>
      <cc:Work
         rdf:about="">
        <dc:format>image/svg+xml</dc:format>
        <dc:type
           rdf:resource="http://purl.org/dc/dcmitype/StillImage" />
      </cc:Work>
    </rdf:RDF>
  </metadata>
  <g
     inkscape:label="Layer 1"
     inkscape:groupmode="layer"
     id="layer1"
     transform="translate(208.19044,-114.35756)">
    <g
       aria-label="Apollo87H PCB rev. pre-GAMMA | Designed by Gondolindrim | I love frog daddy "
       transform="matrix(0.11979523,0,0,0.11979523,-183.11819,101.28276)"
       id="text2324"
       style="font-size:10.5833px;line-height:1;letter-spacing:0px;word-spacing:0px;white-space:pre;shape-inside:url(#rect2326);stroke:#000000;stroke-width:0;stroke-miterlimit:4;stroke-dasharray:none;stroke-opacity:1">
      <g
         id="g4567"
         style="stroke:#000000;stroke-width:0;stroke-linecap:round;stroke-linejoin:round;stroke-miterlimit:4;stroke-dasharray:none;stroke-opacity:1">
        <g
           id="g1124"
           style="stroke-width:0;stroke-miterlimit:4;stroke-dasharray:none">
          <path
             d="m -198.68438,122.25961 h -7.77925 l 1.38987,-2.23734 h 5.60971 l -2.20342,-6.32212 -3.59326,10.27135 h -2.77972 l 3.77973,-10.77982 c 0.55367,-1.50285 1.41809,-2.25993 2.59325,-2.27123 1.17517,0.0115 2.03393,0.76833 2.57631,2.27123 l 3.79666,10.77982 h -2.7797 z"
             style="font-family:'a Astro Space';-inkscape-font-specification:'a Astro Space';stroke:#000000;stroke-width:0;stroke-linecap:round;stroke-linejoin:round;stroke-miterlimit:4;stroke-dasharray:none;stroke-opacity:1"
             id="path3020"
             sodipodi:nodetypes="ccccccccccccc" />
          <path
             d="m -191.26053,113.32727 v 10.64423 h -2.59327 v -10.61033 c 0,-0.76837 0.3277,-1.37855 0.98308,-1.83054 0.44067,-0.2938 0.92656,-0.44069 1.45764,-0.44069 h 3.50854 c 1.57063,0 2.83055,0.46893 3.77971,1.4068 0.80227,0.80227 1.2034,1.79099 1.2034,2.96615 v 0.49153 c 0,1.45764 -0.58192,2.59891 -1.74578,3.42378 -0.90397,0.63278 -1.98308,0.94917 -3.23733,0.94917 h -5.32159 l 1.38985,-2.23733 h 3.93174 c 1.06215,0 1.77968,-0.36724 2.15256,-1.10171 0.14694,-0.30508 0.22034,-0.64972 0.22034,-1.03391 v -0.49153 c 0,-1.01696 -0.45763,-1.67799 -1.37289,-1.98307 -0.3051,-0.10168 -0.63844,-0.15252 -1.00001,-0.15252 z"
             style="font-family:'a Astro Space';-inkscape-font-specification:'a Astro Space';stroke:#000000;stroke-width:0;stroke-linecap:round;stroke-linejoin:round;stroke-miterlimit:4;stroke-dasharray:none;stroke-opacity:1"
             id="path3022"
             sodipodi:nodetypes="cccscsscsscsccscssccc" />
          <path
             d="m -174.92131,124.14098 h -1.72885 q -2.10172,0 -3.57632,-1.49154 -1.40679,-1.42375 -1.40679,-3.40684 v -3.42377 q 0,-2.06783 1.49154,-3.50853 1.4746,-1.38985 3.49157,-1.38985 h 1.72885 q 2.10172,0 3.57633,1.49154 1.40679,1.42376 1.40679,3.40684 v 3.42377 q 0,2.06783 -1.49155,3.50854 -1.4746,1.38984 -3.49157,1.38984 z m -1.72885,-2.23731 h 1.72885 q 1.16951,0 1.88138,-1.05087 0.49153,-0.72883 0.49153,-1.6102 v -3.42377 q 0,-1.339 -0.9661,-2.13562 -0.62714,-0.52543 -1.40681,-0.52543 h -1.72885 q -1.1695,0 -1.88137,1.03391 -0.50849,0.72882 -0.50849,1.62714 v 3.42377 q 0,1.32206 0.94918,2.11869 0.66102,0.54238 1.44068,0.54238 z"
             style="font-family:'a Astro Space';-inkscape-font-specification:'a Astro Space';stroke:#000000;stroke-width:0;stroke-linecap:round;stroke-linejoin:round;stroke-miterlimit:4;stroke-dasharray:none;stroke-opacity:1"
             id="path3024" />
          <path
             d="m -165.2432,121.73416 h 6.13568 l 1.2034,2.23734 h -7.49163 q -1.25426,0 -1.98307,-0.94918 -0.45765,-0.59322 -0.45765,-1.32205 v -10.61033 h 2.59327 z"
             style="font-family:'a Astro Space';-inkscape-font-specification:'a Astro Space';stroke:#000000;stroke-width:0;stroke-linecap:round;stroke-linejoin:round;stroke-miterlimit:4;stroke-dasharray:none;stroke-opacity:1"
             id="path3026" />
          <path
             d="m -154.29389,121.73416 h 6.1357 l 1.2034,2.23734 h -7.49163 q -1.25426,0 -1.98309,-0.94918 -0.45763,-0.59322 -0.45763,-1.32205 v -10.61033 h 2.59325 z"
             style="font-family:'a Astro Space';-inkscape-font-specification:'a Astro Space';stroke:#000000;stroke-width:0;stroke-linecap:round;stroke-linejoin:round;stroke-miterlimit:4;stroke-dasharray:none;stroke-opacity:1"
             id="path3028" />
          <path
             d="m -139.7852,124.14098 h -1.72883 q -2.10174,0 -3.57632,-1.49154 -1.40681,-1.42375 -1.40681,-3.40684 v -3.42377 q 0,-2.06783 1.49154,-3.50853 1.47461,-1.38985 3.49159,-1.38985 h 1.72883 q 2.10173,0 3.57633,1.49154 1.4068,1.42376 1.4068,3.40684 v 3.42377 q 0,2.06783 -1.49156,3.50854 -1.47458,1.38984 -3.49157,1.38984 z m -1.72883,-2.23731 h 1.72883 q 1.16951,0 1.88138,-1.05087 0.49155,-0.72883 0.49155,-1.6102 v -3.42377 q 0,-1.339 -0.96612,-2.13562 -0.62714,-0.52543 -1.40681,-0.52543 h -1.72883 q -1.16952,0 -1.88139,1.03391 -0.50849,0.72882 -0.50849,1.62714 v 3.42377 q 0,1.32206 0.94918,2.11869 0.66102,0.54238 1.4407,0.54238 z"
             style="font-family:'a Astro Space';-inkscape-font-specification:'a Astro Space';stroke:#000000;stroke-width:0;stroke-linecap:round;stroke-linejoin:round;stroke-miterlimit:4;stroke-dasharray:none;stroke-opacity:1"
             id="path3030" />
          <path
             d="m -126.49686,123.9715 h -1.44071 q -2.79666,0 -4.13565,-1.59326 -0.76273,-0.89832 -0.76273,-2.03393 0,-1.61019 1.42375,-2.66104 0.2712,-0.18645 0.55934,-0.339 -1.22036,-1.13561 -1.28816,-2.67801 0,-1.57629 1.2373,-2.61021 1.15257,-0.96611 2.96615,-0.96611 h 1.44071 q 2.3729,0 3.52547,1.55935 0.67797,0.89832 0.67797,2.01697 0,1.5424 -1.1695,2.57632 -0.0677,0.0677 -0.11874,0.10167 1.6441,0.86443 1.93224,2.44072 0.0508,0.28814 0.0508,0.55933 0,1.59325 -1.37291,2.61021 -1.35595,1.01697 -3.52547,1.01697 z m 0,-2.23734 q 1.59323,0 2.16951,-0.8983 0.18645,-0.32204 0.18645,-0.66104 0,-0.81356 -0.89832,-1.2712 -0.61018,-0.30509 -1.45764,-0.30509 h -1.44071 q -1.59324,0 -2.16952,0.91527 -0.18645,0.32204 -0.18645,0.66102 0,0.83053 0.91527,1.2712 0.61018,0.28814 1.4407,0.28814 z m 0,-8.40689 h -1.44071 q -1.15256,0 -1.5424,0.89832 -0.11857,0.28814 -0.11857,0.61018 0,0.88136 0.74577,1.28814 0.40678,0.22034 0.91527,0.22034 h 1.4407 q 1.13561,0 1.5424,-0.88136 0.13562,-0.30508 0.13562,-0.62712 0,-0.88138 -0.76272,-1.30511 -0.40678,-0.20339 -0.91527,-0.20339 z"
             style="font-family:'a Astro Space';-inkscape-font-specification:'a Astro Space';stroke:#000000;stroke-width:0;stroke-linecap:round;stroke-linejoin:round;stroke-miterlimit:4;stroke-dasharray:none;stroke-opacity:1"
             id="path3032" />
          <path
             d="m -116.68316,123.9715 h -2.86446 l 6.06789,-10.64423 h -6.37297 l -1.37291,-2.23733 h 8.28826 q 1.81359,0 1.9153,1.57629 0,0.0848 0,0.16951 0,1.2034 -0.77969,2.55935 z"
             style="font-family:'a Astro Space';-inkscape-font-specification:'a Astro Space';stroke:#000000;stroke-width:0;stroke-linecap:round;stroke-linejoin:round;stroke-miterlimit:4;stroke-dasharray:none;stroke-opacity:1"
             id="path3034" />
          <path
             d="m -106.54742,117.88665 -1.20063,-1.4068 h 6.77698 v -5.38991 h 2.610212 v 12.88156 h -2.610212 v -5.25432 h -5.57635 v 5.25432 h -2.59326 v -12.88156 h 2.59326 z"
             style="font-family:'a Astro Space';-inkscape-font-specification:'a Astro Space';stroke:#000000;stroke-width:0;stroke-linecap:round;stroke-linejoin:round;stroke-miterlimit:4;stroke-dasharray:none;stroke-opacity:1"
             id="path3036"
             sodipodi:nodetypes="cccccccccccccc" />
          <path
             d="m -88.089525,113.32727 v 10.64423 h -2.593253 v -10.61033 c 0,-0.76837 0.327681,-1.37855 0.983058,-1.83054 0.44069,-0.2938 0.926577,-0.44069 1.457645,-0.44069 h 3.508531 c 1.570639,0 2.830555,0.46893 3.779714,1.4068 0.802269,0.80227 1.203403,1.79099 1.203403,2.96615 v 0.49153 c 0,1.45764 -0.581924,2.59891 -1.745787,3.42378 -0.903962,0.63278 -1.983072,0.94917 -3.23733,0.94917 h -5.224273 l 1.38985,-2.23733 h 3.834423 c 1.062153,0 1.779685,-0.36724 2.152579,-1.10171 0.14694,-0.30508 0.220345,-0.64972 0.220345,-1.03391 v -0.49153 c 0,-1.01696 -0.457631,-1.67799 -1.372909,-1.98307 -0.305082,-0.10168 -0.63842,-0.15252 -1.000015,-0.15252 z"
             style="font-family:'a Astro Space';-inkscape-font-specification:'a Astro Space';stroke:#000000;stroke-width:0;stroke-linecap:round;stroke-linejoin:round;stroke-miterlimit:4;stroke-dasharray:none;stroke-opacity:1"
             id="path3038"
             sodipodi:nodetypes="cccscsscsscsccscssscc" />
          <path
             d="m -75.9029,115.98832 v 3.08479 q 0,1.32206 0.949159,2.11869 0.661035,0.54236 1.440705,0.54236 h 1.72883 q 1.05087,0 1.779701,-0.71187 0.101677,-0.10168 0.169489,-0.18643 l 2.254273,1.72883 q -0.949176,0.89832 -2.932248,1.27121 -0.694933,0.13563 -1.271215,0.13563 h -1.72883 q -2.101723,0 -3.576326,-1.49156 -1.406807,-1.42375 -1.406807,-3.40682 v -3.0848 q 0,-2.06783 1.49156,-3.50851 1.474586,-1.38987 3.491573,-1.38987 h 1.72883 q 1.644092,0 3.186491,0.72883 0.644078,0.32204 1.016972,0.67798 l -2.254273,1.74578 q -0.593239,-0.76271 -1.644092,-0.89832 -0.16949,-0.0169 -0.305098,-0.0169 h -1.72883 q -1.169505,0 -1.881395,1.03391 -0.508469,0.72882 -0.508469,1.62714 z"
             style="font-family:'a Astro Space';-inkscape-font-specification:'a Astro Space';stroke:#000000;stroke-width:0;stroke-linecap:round;stroke-linejoin:round;stroke-miterlimit:4;stroke-dasharray:none;stroke-opacity:1"
             id="path3040" />
          <path
             d="m -56.834823,117.34427 c 1.096068,0.57628 1.740145,1.38985 1.932234,2.44072 0.03395,0.19209 0.05084,0.37853 0.05084,0.55932 0,1.06217 -0.457631,1.93224 -1.372909,2.61021 -0.903963,0.67798 -2.079125,1.01698 -3.525472,1.01698 h -5.949233 v -10.61033 c 0,-0.76837 0.32768,-1.37855 0.983057,-1.83054 0.440674,-0.2938 0.926561,-0.44069 1.457646,-0.44069 h 3.50853 c 1.581939,0 2.757101,0.51978 3.525472,1.55935 0.451989,0.59888 0.677976,1.2712 0.677976,2.01697 0,1.02827 -0.389835,1.88704 -1.169505,2.57632 -0.0451,0.0451 -0.08479,0.079 -0.118733,0.10167 z m -6.757767,-1.00002 h 3.842476 c 0.757071,0 1.265557,-0.29378 1.525442,-0.88136 0.09036,-0.20339 0.135624,-0.41243 0.135624,-0.62712 0,-0.59888 -0.259884,-1.03391 -0.77967,-1.30511 -0.259884,-0.13563 -0.553683,-0.20339 -0.881363,-0.20339 h -3.355982 v 8.40689 h 3.355982 c 1.062153,0 1.785326,-0.29944 2.169519,-0.8983 0.124309,-0.21469 0.186447,-0.43503 0.186447,-0.66104 0,-0.54238 -0.29944,-0.96611 -0.898321,-1.2712 -0.406792,-0.2034 -0.892663,-0.30509 -1.457645,-0.30509 h -5.232326 z"
             style="font-family:'a Astro Space';-inkscape-font-specification:'a Astro Space';stroke:#000000;stroke-width:0;stroke-linecap:round;stroke-linejoin:round;stroke-miterlimit:4;stroke-dasharray:none;stroke-opacity:1"
             id="path3042"
             sodipodi:nodetypes="scscscscsscsccscscsssccscscscc" />
          <path
             d="m -45.173641,113.32727 v 10.64423 h -2.593252 v -10.61033 c 0,-0.76837 0.32768,-1.37855 0.983057,-1.83054 0.44069,-0.2938 0.926578,-0.44069 1.457646,-0.44069 h 3.50853 c 1.570639,0 2.830555,0.46893 3.779715,1.4068 0.802285,0.80227 1.203419,1.79099 1.203419,2.96615 v 0.49153 c 0,1.46896 -0.581924,2.61021 -1.745787,3.42378 -0.44069,0.30509 -0.926577,0.53674 -1.457662,0.69493 l 3.49159,3.89837 h -3.237347 l -3.220389,-3.64413 h -3.868223 l 1.389849,-2.23733 h 3.664835 c 1.06217,0 1.779701,-0.36724 2.152579,-1.10171 0.146941,-0.30508 0.220345,-0.64972 0.220345,-1.03391 v -0.49153 c 0,-1.01696 -0.457631,-1.67799 -1.372909,-1.98307 -0.305081,-0.10168 -0.63842,-0.15252 -1.000015,-0.15252 z"
             style="font-family:'a Astro Space';-inkscape-font-specification:'a Astro Space';stroke:#000000;stroke-width:0;stroke-linecap:round;stroke-linejoin:round;stroke-miterlimit:4;stroke-dasharray:none;stroke-opacity:1"
             id="path3044"
             sodipodi:nodetypes="cccscsscsscccccccscssssc" />
          <path
             d="m -32.224287,118.71718 v 3.01698 h 6.644162 l 1.220357,2.23734 h -8.017068 q -1.237301,0 -1.983073,-0.93222 -0.474588,-0.61018 -0.474588,-1.33901 v -8.3391 q 0,-1.13561 0.983058,-1.81359 0.661035,-0.45764 1.474603,-0.45764 h 8.017068 l -1.220357,2.23733 h -6.644162 v 3.15258 h 6.11873 v 2.23733 z"
             style="font-family:'a Astro Space';-inkscape-font-specification:'a Astro Space';stroke:#000000;stroke-width:0;stroke-linecap:round;stroke-linejoin:round;stroke-miterlimit:4;stroke-dasharray:none;stroke-opacity:1"
             id="path3046" />
          <path
             d="m -16.918975,121.36129 3.593274,-10.27135 H -10.546 l -3.779716,10.77983 q -0.830521,2.25426 -2.593259,2.27121 -1.762737,-0.0169 -2.576308,-2.27121 l -3.796666,-10.77983 h 2.779701 z"
             style="font-family:'a Astro Space';-inkscape-font-specification:'a Astro Space';stroke:#000000;stroke-width:0;stroke-linecap:round;stroke-linejoin:round;stroke-miterlimit:4;stroke-dasharray:none;stroke-opacity:1"
             id="path3048" />
          <path
             d="m -11.9867,123.25962 q 0,-0.88138 0.745774,-1.35595 0.406785,-0.25424 0.864419,-0.25424 0.8813691,0 1.3559522,0.74577 0.2542414,0.40677 0.2542414,0.86442 0,0.88136 -0.7457735,1.35595 -0.4067855,0.25425 -0.8644201,0.25425 -0.881368,0 -1.355951,-0.74579 -0.254242,-0.40678 -0.254242,-0.86441 z"
             style="font-family:'a Astro Space';-inkscape-font-specification:'a Astro Space';stroke:#000000;stroke-width:0;stroke-linecap:round;stroke-linejoin:round;stroke-miterlimit:4;stroke-dasharray:none;stroke-opacity:1"
             id="path3050" />
          <path
             d="M 0.92874162,113.32727 V 123.9715 H -1.6645173 v -10.61033 c 0,-0.76837 0.3276886,-1.37855 0.98306581,-1.83054 0.44068514,-0.2938 0.92656757,-0.44069 1.45764895,-0.44069 H 4.284723 c 1.5706455,0 2.8305514,0.46893 3.7797176,1.4068 0.8022717,0.80227 1.2034076,1.79099 1.2034076,2.96615 v 0.49153 c 0,1.45764 -0.58193,2.59891 -1.7457883,3.42378 -0.9039673,0.63278 -1.9830807,0.94917 -3.2373369,0.94917 h -5.17752598 l 1.38985136,-2.23733 H 4.284723 c 1.0621628,0 1.7796879,-0.36724 2.1525755,-1.10171 0.1468912,-0.30508 0.2203417,-0.64972 0.2203417,-1.03391 v -0.49153 c 0,-1.01696 -0.4576341,-1.67799 -1.3729023,-1.98307 C 4.9796495,113.37814 4.6463113,113.3273 4.284723,113.3273 Z"
             style="font-family:'a Astro Space';-inkscape-font-specification:'a Astro Space';stroke:#000000;stroke-width:0;stroke-linecap:round;stroke-linejoin:round;stroke-miterlimit:4;stroke-dasharray:none;stroke-opacity:1"
             id="path3052"
             sodipodi:nodetypes="cccscsscsscsccscssssc" />
          <path
             d="m 13.674705,113.32727 v 10.64423 h -2.593259 v -10.61033 c 0,-0.76837 0.327688,-1.37855 0.983065,-1.83054 0.440686,-0.2938 0.926568,-0.44069 1.457649,-0.44069 h 3.508526 c 1.570644,0 2.83055,0.46893 3.779717,1.4068 0.802272,0.80227 1.203408,1.79099 1.203408,2.96615 v 0.49153 c 0,1.46896 -0.58193,2.61021 -1.745788,3.42378 -0.440685,0.30509 -0.926568,0.53674 -1.457649,0.69493 l 3.491576,3.89837 h -3.237335 l -3.220388,-3.64413 h -3.991069 l 1.389852,-2.23733 h 3.787676 c 1.062163,0 1.779688,-0.36724 2.152574,-1.10171 0.146891,-0.30508 0.220343,-0.64972 0.220343,-1.03391 v -0.49153 c 0,-1.01696 -0.457634,-1.67799 -1.372902,-1.98307 -0.30509,-0.10168 -0.638428,-0.15252 -1.000015,-0.15252 z"
             style="font-family:'a Astro Space';-inkscape-font-specification:'a Astro Space';stroke:#000000;stroke-width:0;stroke-linecap:round;stroke-linejoin:round;stroke-miterlimit:4;stroke-dasharray:none;stroke-opacity:1"
             id="path3054"
             sodipodi:nodetypes="cccscsscsscccccccscssssc" />
          <path
             d="m 26.624039,118.71718 v 3.01698 h 6.644167 l 1.220356,2.23734 h -8.017067 q -1.237306,0 -1.983079,-0.93222 -0.474585,-0.61018 -0.474585,-1.33901 v -8.3391 q 0,-1.13561 0.983066,-1.81359 0.661027,-0.45764 1.474598,-0.45764 h 8.017067 l -1.220356,2.23733 h -6.644167 v 3.15258 h 6.118735 v 2.23733 z"
             style="font-family:'a Astro Space';-inkscape-font-specification:'a Astro Space';stroke:#000000;stroke-width:0;stroke-linecap:round;stroke-linejoin:round;stroke-miterlimit:4;stroke-dasharray:none;stroke-opacity:1"
             id="path3056" />
          <path
             d="m 36.183509,118.71718 v -2.23733 h 6.728911 v 2.23733 z"
             style="font-family:'a Astro Space';-inkscape-font-specification:'a Astro Space';stroke:#000000;stroke-width:0;stroke-linecap:round;stroke-linejoin:round;stroke-miterlimit:4;stroke-dasharray:none;stroke-opacity:1"
             id="path3058" />
          <path
             d="m 49.234534,111.08994 h 1.728839 q 1.644093,0 3.186488,0.72883 0.644076,0.32204 1.016964,0.67797 l -2.254271,1.74579 q -0.593229,-0.76271 -1.644091,-0.89832 -0.169495,-0.0169 -0.30509,-0.0169 h -1.728839 q -1.152559,0 -1.864435,1.03391 -0.491532,0.72882 -0.491532,1.62714 v 3.08479 q 0,1.32206 0.949166,2.11868 0.661027,0.54237 1.4407,0.54237 h 3.339033 v -4.18649 h 2.610207 v 4.15259 q 0,1.15257 -0.983065,1.83054 -0.661027,0.44069 -1.457649,0.44069 h -3.508526 q -2.101727,0 -3.576325,-1.49156 -1.4068,-1.42374 -1.4068,-3.40682 v -3.08479 q 0,-2.08477 1.508498,-3.52547 1.440698,-1.37291 3.440728,-1.37291 z"
             style="font-family:'a Astro Space';-inkscape-font-specification:'a Astro Space';stroke:#000000;stroke-width:0;stroke-linecap:round;stroke-linejoin:round;stroke-miterlimit:4;stroke-dasharray:none;stroke-opacity:1"
             id="path3060" />
          <path
             d="m 65.70936,122.25961 h -7.603556 l 1.389851,-2.23734 h 5.434032 l -2.203422,-6.32212 -3.593274,10.27135 H 56.35329 l 3.779716,-10.77982 c 0.553682,-1.50285 1.418101,-2.25993 2.593259,-2.27123 1.175158,0.0115 2.033928,0.76833 2.57631,2.27123 l 3.796665,10.77982 h -2.779701 z"
             style="font-family:'a Astro Space';-inkscape-font-specification:'a Astro Space';stroke:#000000;stroke-width:0;stroke-linecap:round;stroke-linejoin:round;stroke-miterlimit:4;stroke-dasharray:none;stroke-opacity:1"
             id="path3062"
             sodipodi:nodetypes="ccccccccccccc" />
          <path
             d="m 82.353666,113.751 -2.8814,8.3391 H 76.726463 L 73.845064,113.751 72.862,123.9715 h -2.779703 l 1.186459,-10.72898 q 0.169493,-1.44071 1.355952,-2.01697 0.491532,-0.22035 1.033913,-0.22035 1.169509,0 1.779688,0.89832 0.152549,0.22033 0.254241,0.47457 l 2.406815,7.05096 2.406815,-7.05096 q 0.389837,-1.05085 1.508496,-1.30509 0.271192,-0.0677 0.525432,-0.0677 1.220358,0 1.915283,0.94916 0.389837,0.55934 0.474583,1.28815 l 1.186459,10.72898 H 83.33673 Z"
             style="font-family:'a Astro Space';-inkscape-font-specification:'a Astro Space';stroke:#000000;stroke-width:0;stroke-linecap:round;stroke-linejoin:round;stroke-miterlimit:4;stroke-dasharray:none;stroke-opacity:1"
             id="path3064" />
          <path
             d="m 99.896303,113.751 -2.881399,8.3391 H 94.2691 l -2.881398,-8.3391 -0.983064,10.2205 h -2.779703 l 1.186459,-10.72898 q 0.169493,-1.44071 1.355952,-2.01697 0.491532,-0.22035 1.033912,-0.22035 1.16951,0 1.779688,0.89832 0.152549,0.22033 0.254242,0.47457 l 2.406815,7.05096 2.406815,-7.05096 q 0.389837,-1.05085 1.508496,-1.30509 0.271192,-0.0677 0.525436,-0.0677 1.22035,0 1.91528,0.94916 0.38984,0.55934 0.47458,1.28815 l 1.18646,10.72898 h -2.7797 z"
             style="font-family:'a Astro Space';-inkscape-font-specification:'a Astro Space';stroke:#000000;stroke-width:0;stroke-linecap:round;stroke-linejoin:round;stroke-miterlimit:4;stroke-dasharray:none;stroke-opacity:1"
             id="path3066" />
          <path
             d="m 113.86262,122.25961 h -7.60356 l 1.38985,-2.23734 h 5.43403 l -2.20342,-6.32212 -3.59327,10.27135 h -2.7797 l 3.77971,-10.77982 c 0.55368,-1.50285 1.4181,-2.25993 2.59326,-2.27123 1.17516,0.0115 2.03393,0.76833 2.57631,2.27123 l 3.79667,10.77982 h -2.77971 z"
             style="font-family:'a Astro Space';-inkscape-font-specification:'a Astro Space';stroke:#000000;stroke-width:0;stroke-linecap:round;stroke-linejoin:round;stroke-miterlimit:4;stroke-dasharray:none;stroke-opacity:1"
             id="path3068"
             sodipodi:nodetypes="ccccccccccccc" />
          <path
             d="m 124.04921,110.39502 h 1.2034 v 16.69515 h -1.2034 z"
             style="font-family:'a Astro Space';-inkscape-font-specification:'a Astro Space';stroke:#000000;stroke-width:0;stroke-linecap:round;stroke-linejoin:round;stroke-miterlimit:4;stroke-dasharray:none;stroke-opacity:1"
             id="path3070" />
          <path
             d="m 141.2359,119.07311 v -3.08479 q 0,-1.339 -0.96612,-2.13562 -0.62713,-0.52543 -1.4068,-0.52543 H 135.507 v 8.40689 h 3.35598 q 1.16951,0 1.88138,-1.05085 0.49154,-0.72883 0.49154,-1.6102 z m -8.32216,-5.71194 q 0,-1.15257 0.98307,-1.83054 0.66102,-0.44069 1.45764,-0.44069 h 3.50853 q 2.10173,0 3.57632,1.49156 1.40681,1.42374 1.40681,3.40682 v 3.08479 q 0,2.06783 -1.49155,3.50854 -1.4746,1.38985 -3.49158,1.38985 h -5.94924 z"
             style="font-family:'a Astro Space';-inkscape-font-specification:'a Astro Space';stroke:#000000;stroke-width:0;stroke-linecap:round;stroke-linejoin:round;stroke-miterlimit:4;stroke-dasharray:none;stroke-opacity:1"
             id="path3072" />
          <path
             d="m 148.3377,118.71718 v 3.01698 h 6.64416 l 1.22036,2.23734 h -8.01707 q -1.2373,0 -1.98308,-0.93222 -0.47458,-0.61018 -0.47458,-1.33901 v -8.3391 q 0,-1.13561 0.98306,-1.81359 0.66103,-0.45764 1.4746,-0.45764 h 8.01707 l -1.22036,2.23733 h -6.64416 v 3.15258 h 6.11873 v 2.23733 z"
             style="font-family:'a Astro Space';-inkscape-font-specification:'a Astro Space';stroke:#000000;stroke-width:0;stroke-linecap:round;stroke-linejoin:round;stroke-miterlimit:4;stroke-dasharray:none;stroke-opacity:1"
             id="path3074" />
          <path
             d="m 157.65987,114.76796 q 0,-1.55934 1.45765,-2.64411 1.4068,-1.03391 3.35598,-1.03391 h 1.72884 q 1.5763,0 3.0509,0.72883 0.61017,0.32204 0.98306,0.67797 l -2.27122,1.74579 q -0.55933,-0.77967 -1.52545,-0.89832 -0.11865,-0.0169 -0.23729,-0.0169 h -1.72884 q -1.2712,0 -1.91528,0.71187 -0.28814,0.35594 -0.28814,0.72882 0,0.66103 1.4068,1.13562 0.44069,0.15252 1.49155,0.42373 2.54241,0.66102 3.55937,1.28816 1.66105,1.01695 1.67799,2.678 0,1.5424 -1.49154,2.62715 -1.4746,1.05087 -3.49158,1.05087 h -1.72884 q -1.64409,0 -3.18649,-0.72883 -0.64407,-0.32204 -1.01696,-0.67797 l 2.23732,-1.72883 q 0.59323,0.74577 1.66104,0.88136 0.1695,0.0169 0.30509,0.0169 h 1.72884 q 1.3729,0 2.06783,-0.72881 0.30509,-0.339 0.30509,-0.71188 0,-0.74577 -1.4068,-1.23731 -0.2034,-0.0848 -2.45767,-0.69492 -2.59326,-0.69493 -3.52547,-1.67799 -0.74578,-0.81357 -0.74578,-1.91529 z"
             style="font-family:'a Astro Space';-inkscape-font-specification:'a Astro Space';stroke:#000000;stroke-width:0;stroke-linecap:round;stroke-linejoin:round;stroke-miterlimit:4;stroke-dasharray:none;stroke-opacity:1"
             id="path3076" />
          <path
             d="m 170.55836,111.08994 h 2.59326 v 12.88156 h -2.59326 z"
             style="font-family:'a Astro Space';-inkscape-font-specification:'a Astro Space';stroke:#000000;stroke-width:0;stroke-linecap:round;stroke-linejoin:round;stroke-miterlimit:4;stroke-dasharray:none;stroke-opacity:1"
             id="path3078" />
          <path
             d="m 180.03308,111.08994 h 1.72884 q 1.64409,0 3.18649,0.72883 0.64408,0.32204 1.01696,0.67797 l -2.25427,1.74579 q -0.59323,-0.76271 -1.64409,-0.89832 -0.16949,-0.0169 -0.30509,-0.0169 h -1.72884 q -1.15256,0 -1.86443,1.03391 -0.49153,0.72882 -0.49153,1.62714 v 3.08479 q 0,1.32206 0.94916,2.11868 0.66103,0.54237 1.4407,0.54237 h 3.33903 v -4.18649 h 2.61021 v 4.15259 q 0,1.15257 -0.98306,1.83054 -0.66103,0.44069 -1.45765,0.44069 h -3.50853 q -2.10172,0 -3.57632,-1.49156 -1.4068,-1.42374 -1.4068,-3.40682 v -3.08479 q 0,-2.08477 1.50849,-3.52547 1.4407,-1.37291 3.44073,-1.37291 z"
             style="font-family:'a Astro Space';-inkscape-font-specification:'a Astro Space';stroke:#000000;stroke-width:0;stroke-linecap:round;stroke-linejoin:round;stroke-miterlimit:4;stroke-dasharray:none;stroke-opacity:1"
             id="path3080" />
          <path
             d="m 190.88071,111.0052 q 1.42375,0 2.30512,1.66103 0.13559,0.2712 0.28814,0.61018 l 3.61022,8.50861 v -10.69508 h 2.59326 v 10.69508 q 0,1.08477 -1.03392,1.77968 -0.72882,0.49153 -1.57629,0.49153 -1.42375,0 -2.30512,-1.66103 -0.13559,-0.2712 -0.28814,-0.61018 l -3.61022,-8.50861 v 10.69509 h -2.59326 v -10.69509 q 0,-1.08475 1.03391,-1.77968 0.72883,-0.49153 1.5763,-0.49153 z"
             style="font-family:'a Astro Space';-inkscape-font-specification:'a Astro Space';stroke:#000000;stroke-width:0;stroke-linecap:round;stroke-linejoin:round;stroke-miterlimit:4;stroke-dasharray:none;stroke-opacity:1"
             id="path3082" />
          <path
             d="m 204.57582,118.71718 v 3.01698 h 6.64417 l 1.22035,2.23734 h -8.01707 q -1.2373,0 -1.98308,-0.93222 -0.47458,-0.61018 -0.47458,-1.33901 v -8.3391 q 0,-1.13561 0.98307,-1.81359 0.66102,-0.45764 1.47459,-0.45764 h 8.01707 l -1.22035,2.23733 h -6.64417 v 3.15258 h 6.11873 v 2.23733 z"
             style="font-family:'a Astro Space';-inkscape-font-specification:'a Astro Space';stroke:#000000;stroke-width:0;stroke-linecap:round;stroke-linejoin:round;stroke-miterlimit:4;stroke-dasharray:none;stroke-opacity:1"
             id="path3084" />
          <path
             d="m 222.64389,119.07311 v -3.08479 q 0,-1.339 -0.96612,-2.13562 -0.62713,-0.52543 -1.4068,-0.52543 h -3.35598 v 8.40689 h 3.35598 q 1.16951,0 1.88138,-1.05085 0.49154,-0.72883 0.49154,-1.6102 z m -8.32216,-5.71194 q 0,-1.15257 0.98307,-1.83054 0.66102,-0.44069 1.45764,-0.44069 h 3.50853 q 2.10173,0 3.57633,1.49156 1.4068,1.42374 1.4068,3.40682 v 3.08479 q 0,2.06783 -1.49155,3.50854 -1.4746,1.38985 -3.49158,1.38985 h -5.94924 z"
             style="font-family:'a Astro Space';-inkscape-font-specification:'a Astro Space';stroke:#000000;stroke-width:0;stroke-linecap:round;stroke-linejoin:round;stroke-miterlimit:4;stroke-dasharray:none;stroke-opacity:1"
             id="path3086" />
          <path
             d="m 241.33909,117.34427 c 1.09606,0.57628 1.74013,1.38985 1.93223,2.44072 0.0339,0.19209 0.0508,0.37853 0.0508,0.55932 0,1.06217 -0.45763,1.93224 -1.3729,2.61021 -0.90397,0.67798 -2.07913,1.01698 -3.52547,1.01698 h -5.94924 v -10.61033 c 0,-0.76837 0.32768,-1.37855 0.98306,-1.83054 0.44069,-0.2938 0.92657,-0.44069 1.45765,-0.44069 h 3.50853 c 1.58194,0 2.7571,0.51978 3.52547,1.55935 0.45199,0.59888 0.67798,1.2712 0.67798,2.01697 0,1.02827 -0.38984,1.88704 -1.16951,2.57632 -0.0452,0.0451 -0.0848,0.079 -0.11865,0.10167 z m -7.12603,-1.00002 h 4.21073 c 0.75707,0 1.26556,-0.29378 1.52544,-0.88136 0.0904,-0.20339 0.1356,-0.41243 0.1356,-0.62712 0,-0.59888 -0.25989,-1.03391 -0.77967,-1.30511 -0.2599,-0.13563 -0.55368,-0.20339 -0.88137,-0.20339 h -3.35599 v 8.40689 h 3.35599 c 1.06216,0 1.78533,-0.29944 2.16952,-0.8983 0.12429,-0.21469 0.18644,-0.43503 0.18644,-0.66104 0,-0.54238 -0.29944,-0.96611 -0.89832,-1.2712 -0.40678,-0.2034 -0.89266,-0.30509 -1.45764,-0.30509 h -5.60059 z"
             style="font-family:'a Astro Space';-inkscape-font-specification:'a Astro Space';stroke:#000000;stroke-width:0;stroke-linecap:round;stroke-linejoin:round;stroke-miterlimit:4;stroke-dasharray:none;stroke-opacity:1"
             id="path3088"
             sodipodi:nodetypes="scscscscsscscsscscsssccscscscc" />
          <path
             d="m 250.47482,116.68325 3.59327,-5.59331 h 2.77971 l -3.79667,6.1018 q -0.67797,1.05085 -1.25426,1.47458 v 5.30518 h -2.6102 v -5.27128 q -0.66103,-0.47457 -1.30511,-1.50848 l -3.77971,-6.1018 h 2.7797 z"
             style="font-family:'a Astro Space';-inkscape-font-specification:'a Astro Space';stroke:#000000;stroke-width:0;stroke-linecap:round;stroke-linejoin:round;stroke-miterlimit:4;stroke-dasharray:none;stroke-opacity:1"
             id="path3090" />
          <path
             d="m 267.59368,111.08994 h 1.72883 q 1.6441,0 3.18649,0.72883 0.64408,0.32204 1.01697,0.67797 l -2.25427,1.74579 q -0.59323,-0.76271 -1.6441,-0.89832 -0.16949,-0.0169 -0.30509,-0.0169 h -1.72883 q -1.15256,0 -1.86444,1.03391 -0.49153,0.72882 -0.49153,1.62714 v 3.08479 q 0,1.32206 0.94916,2.11868 0.66103,0.54237 1.4407,0.54237 h 3.33904 v -4.18649 h 2.61021 v 4.15259 q 0,1.15257 -0.98307,1.83054 -0.66103,0.44069 -1.45765,0.44069 h -3.50853 q -2.10172,0 -3.57632,-1.49156 -1.4068,-1.42374 -1.4068,-3.40682 v -3.08479 q 0,-2.08477 1.5085,-3.52547 1.4407,-1.37291 3.44073,-1.37291 z"
             style="font-family:'a Astro Space';-inkscape-font-specification:'a Astro Space';stroke:#000000;stroke-width:0;stroke-linecap:round;stroke-linejoin:round;stroke-miterlimit:4;stroke-dasharray:none;stroke-opacity:1"
             id="path3092" />
          <path
             d="m 282.01762,124.14098 h -1.72884 q -2.10172,0 -3.57632,-1.49154 -1.4068,-1.42375 -1.4068,-3.40684 v -3.42377 q 0,-2.06783 1.49155,-3.50853 1.4746,-1.38985 3.49157,-1.38985 h 1.72884 q 2.10173,0 3.57633,1.49154 1.4068,1.42376 1.4068,3.40684 v 3.42377 q 0,2.06783 -1.49155,3.50854 -1.4746,1.38984 -3.49158,1.38984 z m -1.72884,-2.23731 h 1.72884 q 1.16951,0 1.88139,-1.05087 0.49153,-0.72883 0.49153,-1.6102 v -3.42377 q 0,-1.339 -0.96612,-2.13562 -0.62712,-0.52543 -1.4068,-0.52543 h -1.72884 q -1.1695,0 -1.88138,1.03391 -0.50848,0.72882 -0.50848,1.62714 v 3.42377 q 0,1.32206 0.94917,2.11869 0.66102,0.54238 1.44069,0.54238 z"
             style="font-family:'a Astro Space';-inkscape-font-specification:'a Astro Space';stroke:#000000;stroke-width:0;stroke-linecap:round;stroke-linejoin:round;stroke-miterlimit:4;stroke-dasharray:none;stroke-opacity:1"
             id="path3094" />
          <path
             d="m 291.67879,111.0052 q 1.42375,0 2.30512,1.66103 0.13559,0.2712 0.28814,0.61018 l 3.61022,8.50861 v -10.69508 h 2.59327 v 10.69508 q 0,1.08477 -1.03392,1.77968 -0.72883,0.49153 -1.57629,0.49153 -1.42376,0 -2.30512,-1.66103 -0.1356,-0.2712 -0.28814,-0.61018 l -3.61023,-8.50861 v 10.69509 h -2.59326 v -10.69509 q 0,-1.08475 1.03392,-1.77968 0.72882,-0.49153 1.57629,-0.49153 z"
             style="font-family:'a Astro Space';-inkscape-font-specification:'a Astro Space';stroke:#000000;stroke-width:0;stroke-linecap:round;stroke-linejoin:round;stroke-miterlimit:4;stroke-dasharray:none;stroke-opacity:1"
             id="path3096" />
          <path
             d="m 311.22144,119.07311 v -3.08479 q 0,-1.339 -0.9661,-2.13562 -0.62714,-0.52543 -1.40681,-0.52543 h -3.35598 v 8.40689 h 3.35598 q 1.16951,0 1.88138,-1.05085 0.49153,-0.72883 0.49153,-1.6102 z m -8.32214,-5.71194 q 0,-1.15257 0.98306,-1.83054 0.66102,-0.44069 1.45764,-0.44069 h 3.50853 q 2.10173,0 3.57633,1.49156 1.40679,1.42374 1.40679,3.40682 v 3.08479 q 0,2.06783 -1.49154,3.50854 -1.47461,1.38985 -3.49158,1.38985 h -5.94923 z"
             style="font-family:'a Astro Space';-inkscape-font-specification:'a Astro Space';stroke:#000000;stroke-width:0;stroke-linecap:round;stroke-linejoin:round;stroke-miterlimit:4;stroke-dasharray:none;stroke-opacity:1"
             id="path3098" />
          <path
             d="m 322.03519,124.14098 h -1.72883 q -2.10174,0 -3.57633,-1.49154 -1.4068,-1.42375 -1.4068,-3.40684 v -3.42377 q 0,-2.06783 1.49154,-3.50853 1.4746,-1.38985 3.49159,-1.38985 h 1.72883 q 2.10172,0 3.57633,1.49154 1.4068,1.42376 1.4068,3.40684 v 3.42377 q 0,2.06783 -1.49156,3.50854 -1.47458,1.38984 -3.49157,1.38984 z m -1.72883,-2.23731 h 1.72883 q 1.1695,0 1.88138,-1.05087 0.49154,-0.72883 0.49154,-1.6102 v -3.42377 q 0,-1.339 -0.96611,-2.13562 -0.62714,-0.52543 -1.40681,-0.52543 h -1.72883 q -1.16952,0 -1.8814,1.03391 -0.50848,0.72882 -0.50848,1.62714 v 3.42377 q 0,1.32206 0.94917,2.11869 0.66102,0.54238 1.44071,0.54238 z"
             style="font-family:'a Astro Space';-inkscape-font-specification:'a Astro Space';stroke:#000000;stroke-width:0;stroke-linecap:round;stroke-linejoin:round;stroke-miterlimit:4;stroke-dasharray:none;stroke-opacity:1"
             id="path3100" />
          <path
             d="m 331.71331,121.73416 h 6.13569 l 1.2034,2.23734 h -7.49163 q -1.25426,0 -1.98309,-0.94918 -0.45763,-0.59322 -0.45763,-1.32205 v -10.61033 h 2.59326 z"
             style="font-family:'a Astro Space';-inkscape-font-specification:'a Astro Space';stroke:#000000;stroke-width:0;stroke-linecap:round;stroke-linejoin:round;stroke-miterlimit:4;stroke-dasharray:none;stroke-opacity:1"
             id="path3102" />
          <path
             d="m 340.15411,111.08994 h 2.59327 v 12.88156 h -2.59327 z"
             style="font-family:'a Astro Space';-inkscape-font-specification:'a Astro Space';stroke:#000000;stroke-width:0;stroke-linecap:round;stroke-linejoin:round;stroke-miterlimit:4;stroke-dasharray:none;stroke-opacity:1"
             id="path3104" />
          <path
             d="m 347.84913,111.0052 q 1.42375,0 2.30511,1.66103 0.13562,0.2712 0.28814,0.61018 l 3.61022,8.50861 v -10.69508 h 2.59327 v 10.69508 q 0,1.08477 -1.03393,1.77968 -0.72881,0.49153 -1.57628,0.49153 -1.42376,0 -2.30512,-1.66103 -0.13563,-0.2712 -0.28815,-0.61018 l -3.61022,-8.50861 v 10.69509 h -2.59325 v -10.69509 q 0,-1.08475 1.03391,-1.77968 0.72883,-0.49153 1.5763,-0.49153 z"
             style="font-family:'a Astro Space';-inkscape-font-specification:'a Astro Space';stroke:#000000;stroke-width:0;stroke-linecap:round;stroke-linejoin:round;stroke-miterlimit:4;stroke-dasharray:none;stroke-opacity:1"
             id="path3106" />
          <path
             d="m 367.39178,119.07311 v -3.08479 q 0,-1.339 -0.96612,-2.13562 -0.62712,-0.52543 -1.40679,-0.52543 h -3.35598 v 8.40689 h 3.35598 q 1.1695,0 1.88138,-1.05085 0.49153,-0.72883 0.49153,-1.6102 z m -8.32216,-5.71194 q 0,-1.15257 0.98307,-1.83054 0.66102,-0.44069 1.45765,-0.44069 h 3.50853 q 2.10172,0 3.57633,1.49156 1.40679,1.42374 1.40679,3.40682 v 3.08479 q 0,2.06783 -1.49155,3.50854 -1.4746,1.38985 -3.49157,1.38985 h -5.94925 z"
             style="font-family:'a Astro Space';-inkscape-font-specification:'a Astro Space';stroke:#000000;stroke-width:0;stroke-linecap:round;stroke-linejoin:round;stroke-miterlimit:4;stroke-dasharray:none;stroke-opacity:1"
             id="path3108" />
          <path
             d="m 374.61219,113.32727 v 10.64423 h -2.59325 v -10.61033 c 0,-0.76837 0.3277,-1.37855 0.98307,-1.83054 0.44068,-0.2938 0.92657,-0.44069 1.45765,-0.44069 h 3.50851 c 1.57066,0 2.83058,0.46893 3.77973,1.4068 0.80227,0.80227 1.20341,1.79099 1.20341,2.96615 v 0.49153 c 0,1.46896 -0.58193,2.61021 -1.74579,3.42378 -0.44069,0.30509 -0.92658,0.53674 -1.45764,0.69493 l 3.49157,3.89837 h -3.23733 l -3.22039,-3.64413 h -4.05736 l 1.38985,-2.23733 h 3.85395 c 1.06217,0 1.77971,-0.36724 2.15258,-1.10171 0.14694,-0.30508 0.22035,-0.64972 0.22035,-1.03391 v -0.49153 c 0,-1.01696 -0.45763,-1.67799 -1.37291,-1.98307 -0.30508,-0.10168 -0.63842,-0.15252 -1.00002,-0.15252 z"
             style="font-family:'a Astro Space';-inkscape-font-specification:'a Astro Space';stroke:#000000;stroke-width:0;stroke-linecap:round;stroke-linejoin:round;stroke-miterlimit:4;stroke-dasharray:none;stroke-opacity:1"
             id="path3110"
             sodipodi:nodetypes="cccscsscsscccccccscssssc" />
          <path
             d="m 385.20561,111.08994 h 2.59327 v 12.88156 h -2.59327 z"
             style="font-family:'a Astro Space';-inkscape-font-specification:'a Astro Space';stroke:#000000;stroke-width:0;stroke-linecap:round;stroke-linejoin:round;stroke-miterlimit:4;stroke-dasharray:none;stroke-opacity:1"
             id="path3112" />
          <path
             d="m 402.10415,113.751 -2.88139,8.3391 h -2.7458 l -2.88141,-8.3391 -0.98306,10.2205 h -2.7797 l 1.18646,-10.72898 q 0.16949,-1.44071 1.35596,-2.01697 0.49153,-0.22035 1.03391,-0.22035 1.1695,0 1.77968,0.89832 0.15252,0.22033 0.25425,0.47457 l 2.4068,7.05096 2.40682,-7.05096 q 0.38984,-1.05085 1.5085,-1.30509 0.27119,-0.0677 0.52543,-0.0677 1.22036,0 1.91528,0.94916 0.38983,0.55934 0.47459,1.28815 l 1.18646,10.72898 h -2.7797 z"
             style="font-family:'a Astro Space';-inkscape-font-specification:'a Astro Space';stroke:#000000;stroke-width:0;stroke-linecap:round;stroke-linejoin:round;stroke-miterlimit:4;stroke-dasharray:none;stroke-opacity:1"
             id="path3114" />
          <path
             d="m 413.18905,110.39502 h 1.20341 v 16.69515 h -1.20341 z"
             style="font-family:'a Astro Space';-inkscape-font-specification:'a Astro Space';stroke:#000000;stroke-width:0;stroke-linecap:round;stroke-linejoin:round;stroke-miterlimit:4;stroke-dasharray:none;stroke-opacity:1"
             id="path3116" />
          <g
             id="g5720"
             transform="matrix(1.63996,0,-0.36210214,1.63996,176.14695,-70.6484)"
             style="stroke:#000000;stroke-width:0;stroke-miterlimit:4;stroke-dasharray:none;stroke-opacity:1">
            <path
               d="m 176.24494,110.81876 h 1.5813 v 7.8548 h -1.5813 z"
               style="font-family:'a Astro Space';-inkscape-font-specification:'a Astro Space';stroke:#000000;stroke-width:0;stroke-linecap:round;stroke-linejoin:round;stroke-miterlimit:4;stroke-dasharray:none;stroke-opacity:1"
               id="path3118" />
            <path
               d="m 184.12042,117.3093 h 3.74136 l 0.7338,1.36426 h -4.56818 q -0.76481,0 -1.20923,-0.57878 -0.27905,-0.36173 -0.27905,-0.80615 v -6.46987 h 1.5813 z"
               style="font-family:'a Astro Space';-inkscape-font-specification:'a Astro Space';stroke:#000000;stroke-width:0;stroke-linecap:round;stroke-linejoin:round;stroke-miterlimit:4;stroke-dasharray:none;stroke-opacity:1"
               id="path3120" />
            <path
               d="m 192.96739,118.77691 h -1.05419 q -1.28157,0 -2.18074,-0.9095 -0.85783,-0.86816 -0.85783,-2.07739 v -2.08772 q 0,-1.2609 0.9095,-2.1394 0.89917,-0.84749 2.12907,-0.84749 h 1.05419 q 1.28157,0 2.18074,0.9095 0.85783,0.86817 0.85783,2.07739 v 2.08772 q 0,1.2609 -0.9095,2.1394 -0.89917,0.84749 -2.12907,0.84749 z m -1.05419,-1.36425 h 1.05419 q 0.71314,0 1.14722,-0.64079 0.29972,-0.44442 0.29972,-0.98185 v -2.08772 q 0,-0.81648 -0.58911,-1.30224 -0.38241,-0.32039 -0.85783,-0.32039 h -1.05419 q -0.71314,0 -1.14722,0.63045 -0.31005,0.44441 -0.31005,0.99218 v 2.08772 q 0,0.80615 0.57877,1.29191 0.40308,0.33073 0.8785,0.33073 z"
               style="font-family:'a Astro Space';-inkscape-font-specification:'a Astro Space';stroke:#000000;stroke-width:0;stroke-linecap:round;stroke-linejoin:round;stroke-miterlimit:4;stroke-dasharray:none;stroke-opacity:1"
               id="path3122" />
            <path
               d="m 200.65683,117.08193 2.19107,-6.26317 h 1.69498 l -2.30476,6.57323 q -0.50643,1.37458 -1.58129,1.38492 -1.07487,-0.0103 -1.57096,-1.38492 l -2.3151,-6.57323 h 1.69498 z"
               style="font-family:'a Astro Space';-inkscape-font-specification:'a Astro Space';stroke:#000000;stroke-width:0;stroke-linecap:round;stroke-linejoin:round;stroke-miterlimit:4;stroke-dasharray:none;stroke-opacity:1"
               id="path3124" />
            <path
               d="m 206.96133,115.46963 v 1.83967 h 4.05142 l 0.74413,1.36426 h -4.88857 q -0.75447,0 -1.20922,-0.56844 -0.28939,-0.37207 -0.28939,-0.81649 v -5.08494 q 0,-0.69246 0.59944,-1.10587 0.40308,-0.27906 0.89917,-0.27906 h 4.88857 l -0.74413,1.36426 h -4.05142 v 1.92235 h 3.73102 v 1.36426 z"
               style="font-family:'a Astro Space';-inkscape-font-specification:'a Astro Space';stroke:#000000;stroke-width:0;stroke-linecap:round;stroke-linejoin:round;stroke-miterlimit:4;stroke-dasharray:none;stroke-opacity:1"
               id="path3126" />
            <path
               d="m 217.65831,115.46963 v 3.20393 h -1.5813 v -6.46987 q 0,-0.7028 0.59945,-1.11621 0.40307,-0.26872 0.88883,-0.26872 h 4.88858 l -0.74414,1.36426 h -4.05142 v 1.92235 h 3.74136 v 1.36426 z"
               style="font-family:'a Astro Space';-inkscape-font-specification:'a Astro Space';stroke:#000000;stroke-width:0;stroke-linecap:round;stroke-linejoin:round;stroke-miterlimit:4;stroke-dasharray:none;stroke-opacity:1"
               id="path3128" />
            <path
               d="m 224.83098,112.18302 v 6.49054 h -1.5813 v -6.46987 c 0,-0.46853 0.19982,-0.8406 0.59945,-1.11621 0.26871,-0.17915 0.56499,-0.26872 0.88883,-0.26872 h 2.1394 c 0.95773,0 1.72599,0.28594 2.30476,0.85783 0.4892,0.4892 0.7338,1.09209 0.7338,1.80867 v 0.29972 c 0,0.89573 -0.35484,1.59163 -1.06453,2.08772 -0.26872,0.18604 -0.565,0.32729 -0.88883,0.42375 l 2.12906,2.37711 h -1.97403 l -1.9637,-2.22208 h -2.55861 l 0.84749,-1.36426 h 2.43459 c 0.64767,0 1.0852,-0.22393 1.31257,-0.67179 0.0896,-0.18603 0.13436,-0.39618 0.13436,-0.63045 v -0.29972 c 0,-0.62011 -0.27905,-1.02319 -0.83715,-1.20922 -0.18604,-0.062 -0.3893,-0.093 -0.60978,-0.093 z"
               style="font-family:'a Astro Space';-inkscape-font-specification:'a Astro Space';stroke:#000000;stroke-width:0;stroke-linecap:round;stroke-linejoin:round;stroke-miterlimit:4;stroke-dasharray:none;stroke-opacity:1"
               id="path3130"
               sodipodi:nodetypes="cccscsscsscccccccscssssc" />
            <path
               d="m 234.99053,118.77691 h -1.0542 q -1.28157,0 -2.18074,-0.9095 -0.85783,-0.86816 -0.85783,-2.07739 v -2.08772 q 0,-1.2609 0.90951,-2.1394 0.89916,-0.84749 2.12906,-0.84749 h 1.0542 q 1.28157,0 2.18073,0.9095 0.85783,0.86817 0.85783,2.07739 v 2.08772 q 0,1.2609 -0.9095,2.1394 -0.89917,0.84749 -2.12906,0.84749 z m -1.0542,-1.36425 h 1.0542 q 0.71313,0 1.14721,-0.64079 0.29972,-0.44442 0.29972,-0.98185 v -2.08772 q 0,-0.81648 -0.58911,-1.30224 -0.3824,-0.32039 -0.85782,-0.32039 h -1.0542 q -0.71313,0 -1.14721,0.63045 -0.31006,0.44441 -0.31006,0.99218 v 2.08772 q 0,0.80615 0.57877,1.29191 0.40308,0.33073 0.8785,0.33073 z"
               style="font-family:'a Astro Space';-inkscape-font-specification:'a Astro Space';stroke:#000000;stroke-width:0;stroke-linecap:round;stroke-linejoin:round;stroke-miterlimit:4;stroke-dasharray:none;stroke-opacity:1"
               id="path3132" />
            <path
               d="m 241.96683,110.81876 h 1.05419 q 1.00252,0 1.94303,0.44442 0.39274,0.19637 0.62012,0.41341 l -1.37459,1.06453 q -0.36174,-0.46508 -1.00252,-0.54777 -0.10336,-0.0103 -0.18604,-0.0103 h -1.05419 q -0.7028,0 -1.13688,0.63045 -0.29972,0.44441 -0.29972,0.99218 v 1.88102 q 0,0.80615 0.57877,1.29191 0.40308,0.33072 0.8785,0.33072 h 2.03604 v -2.5528 h 1.59163 v 2.53213 q 0,0.7028 -0.59944,1.11621 -0.40308,0.26872 -0.88884,0.26872 h -2.13939 q -1.28157,0 -2.18074,-0.90951 -0.85783,-0.86816 -0.85783,-2.07738 v -1.88102 q 0,-1.27123 0.91984,-2.14973 0.8785,-0.83716 2.09806,-0.83716 z"
               style="font-family:'a Astro Space';-inkscape-font-specification:'a Astro Space';stroke:#000000;stroke-width:0;stroke-linecap:round;stroke-linejoin:round;stroke-miterlimit:4;stroke-dasharray:none;stroke-opacity:1"
               id="path3134" />
            <path
               d="m 255.23729,115.68667 v -1.88102 q 0,-0.81648 -0.58911,-1.30224 -0.38241,-0.32039 -0.85783,-0.32039 h -2.04638 v 5.12628 h 2.04638 q 0.71313,0 1.14721,-0.64078 0.29973,-0.44442 0.29973,-0.98185 z m -5.07461,-3.48298 q 0,-0.7028 0.59944,-1.11621 0.40308,-0.26872 0.88883,-0.26872 h 2.1394 q 1.28157,0 2.18074,0.90951 0.85783,0.86816 0.85783,2.07738 v 1.88102 q 0,1.2609 -0.90951,2.1394 -0.89916,0.84749 -2.12906,0.84749 h -3.62767 z"
               style="font-family:'a Astro Space';-inkscape-font-specification:'a Astro Space';stroke:#000000;stroke-width:0;stroke-linecap:round;stroke-linejoin:round;stroke-miterlimit:4;stroke-dasharray:none;stroke-opacity:1"
               id="path3136" />
            <path
               d="m 263.08176,117.6297 h -4.5543 l 0.84749,-1.36426 h 3.23139 l -1.34359,-3.85505 -2.19107,6.26317 h -1.69498 l 2.30476,-6.57322 c 0.33762,-0.91639 0.86472,-1.37804 1.58129,-1.38493 0.71658,0.007 1.24023,0.46851 1.57096,1.38493 l 2.3151,6.57322 h -1.69498 z"
               style="font-family:'a Astro Space';-inkscape-font-specification:'a Astro Space';stroke:#000000;stroke-width:0;stroke-linecap:round;stroke-linejoin:round;stroke-miterlimit:4;stroke-dasharray:none;stroke-opacity:1"
               id="path3138"
               sodipodi:nodetypes="ccccccccccccc" />
            <path
               d="m 271.10191,115.68667 v -1.88102 q 0,-0.81648 -0.58911,-1.30224 -0.3824,-0.32039 -0.85783,-0.32039 h -2.04638 v 5.12628 h 2.04638 q 0.71314,0 1.14722,-0.64078 0.29972,-0.44442 0.29972,-0.98185 z m -5.07461,-3.48298 q 0,-0.7028 0.59945,-1.11621 0.40307,-0.26872 0.88883,-0.26872 h 2.13939 q 1.28158,0 2.18074,0.90951 0.85783,0.86816 0.85783,2.07738 v 1.88102 q 0,1.2609 -0.9095,2.1394 -0.89917,0.84749 -2.12907,0.84749 h -3.62767 z"
               style="font-family:'a Astro Space';-inkscape-font-specification:'a Astro Space';stroke:#000000;stroke-width:0;stroke-linecap:round;stroke-linejoin:round;stroke-miterlimit:4;stroke-dasharray:none;stroke-opacity:1"
               id="path3140" />
            <path
               d="m 278.99803,115.68667 v -1.88102 q 0,-0.81648 -0.58911,-1.30224 -0.38241,-0.32039 -0.85783,-0.32039 h -2.04638 v 5.12628 h 2.04638 q 0.71314,0 1.14722,-0.64078 0.29972,-0.44442 0.29972,-0.98185 z m -5.07461,-3.48298 q 0,-0.7028 0.59944,-1.11621 0.40308,-0.26872 0.88884,-0.26872 h 2.13939 q 1.28157,0 2.18074,0.90951 0.85783,0.86816 0.85783,2.07738 v 1.88102 q 0,1.2609 -0.9095,2.1394 -0.89917,0.84749 -2.12907,0.84749 h -3.62767 z"
               style="font-family:'a Astro Space';-inkscape-font-specification:'a Astro Space';stroke:#000000;stroke-width:0;stroke-linecap:round;stroke-linejoin:round;stroke-miterlimit:4;stroke-dasharray:none;stroke-opacity:1"
               id="path3142" />
            <path
               d="m 285.03383,114.2294 2.19108,-3.41064 h 1.69498 l -2.3151,3.7207 q -0.41341,0.64078 -0.76481,0.89916 v 3.23494 h -1.59163 v -3.21427 q -0.40307,-0.28938 -0.79581,-0.91983 l -2.30476,-3.7207 h 1.69498 z"
               style="font-family:'a Astro Space';-inkscape-font-specification:'a Astro Space';stroke:#000000;stroke-width:0;stroke-linecap:round;stroke-linejoin:round;stroke-miterlimit:4;stroke-dasharray:none;stroke-opacity:1"
               id="path3144" />
          </g>
        </g>
      </g>
    </g>
  </g>
</svg>
