<?xml version="1.0" encoding="UTF-8" standalone="no"?>
<svg
   width="39.729191mm"
   height="6.1328931mm"
   viewBox="0 0 39.72919 6.1328933"
   version="1.1"
   id="svg8"
   inkscape:version="1.1.1 (3bf5ae0d25, 2021-09-20, custom)"
   sodipodi:docname="apollo87h_label.svg"
   inkscape:export-filename="/home/alvaro/Desktop/AcheronProject/Apollo87H/resources/apollo87h_label_no_outline.png"
   inkscape:export-xdpi="5000"
   inkscape:export-ydpi="5000"
   xmlns:inkscape="http://www.inkscape.org/namespaces/inkscape"
   xmlns:sodipodi="http://sodipodi.sourceforge.net/DTD/sodipodi-0.dtd"
   xmlns="http://www.w3.org/2000/svg"
   xmlns:svg="http://www.w3.org/2000/svg"
   xmlns:rdf="http://www.w3.org/1999/02/22-rdf-syntax-ns#"
   xmlns:cc="http://creativecommons.org/ns#"
   xmlns:dc="http://purl.org/dc/elements/1.1/">
  <defs
     id="defs2">
    <rect
       x="-8.3373413"
       y="52.204136"
       width="202.7422"
       height="114.19224"
       id="rect2634" />
    <rect
       x="55.171597"
       y="-117.49468"
       width="812.12262"
       height="274.33664"
       id="rect2831" />
    <rect
       x="-208.05171"
       y="110.20891"
       width="508.40088"
       height="11.106036"
       id="rect12" />
    <rect
       x="-208.05171"
       y="110.20891"
       width="424.19156"
       height="15.861772"
       id="rect74" />
    <rect
       x="-208.05171"
       y="110.20891"
       width="508.40088"
       height="11.106036"
       id="rect172" />
    <rect
       x="-208.05171"
       y="110.20891"
       width="508.40088"
       height="11.106036"
       id="rect2326" />
    <rect
       x="55.171597"
       y="-117.49468"
       width="812.12262"
       height="274.33664"
       id="rect20391" />
    <rect
       x="-8.3373413"
       y="52.204136"
       width="202.7422"
       height="114.19224"
       id="rect34814" />
    <rect
       x="-8.3373413"
       y="52.204136"
       width="202.7422"
       height="114.19224"
       id="rect4903" />
    <rect
       x="-8.3373413"
       y="52.204136"
       width="202.7422"
       height="114.19224"
       id="rect917" />
    <rect
       x="-8.3373413"
       y="52.204136"
       width="202.7422"
       height="114.19224"
       id="rect4691" />
    <rect
       x="-8.3373413"
       y="52.204136"
       width="202.7422"
       height="114.19224"
       id="rect12043" />
    <rect
       x="-8.3373413"
       y="52.204136"
       width="202.7422"
       height="114.19224"
       id="rect12049" />
  </defs>
  <sodipodi:namedview
     id="base"
     pagecolor="#ffffff"
     bordercolor="#666666"
     borderopacity="1.0"
     inkscape:pageopacity="0.0"
     inkscape:pageshadow="2"
     inkscape:zoom="3.9999998"
     inkscape:cx="85.000004"
     inkscape:cy="55.375003"
     inkscape:document-units="mm"
     inkscape:current-layer="text12047"
     inkscape:document-rotation="0"
     showgrid="false"
     inkscape:window-width="1310"
     inkscape:window-height="969"
     inkscape:window-x="2168"
     inkscape:window-y="914"
     inkscape:window-maximized="0"
     inkscape:pagecheckerboard="0" />
  <metadata
     id="metadata5">
    <rdf:RDF>
      <cc:Work
         rdf:about="">
        <dc:format>image/svg+xml</dc:format>
        <dc:type
           rdf:resource="http://purl.org/dc/dcmitype/StillImage" />
      </cc:Work>
    </rdf:RDF>
  </metadata>
  <g
     inkscape:label="Layer 1"
     inkscape:groupmode="layer"
     id="layer1"
     transform="translate(200.13264,-108.73463)">
    <g
       aria-label="Apollo87H PCB rev. pre-GAMMA | Designed by Gondolindrim | I love frog daddy "
       transform="matrix(0.11979523,0,0,0.11979523,-183.11819,101.28276)"
       id="text2324"
       style="font-size:10.5833px;line-height:1;letter-spacing:0px;word-spacing:0px;white-space:pre;shape-inside:url(#rect2326);stroke:#000000;stroke-width:0;stroke-miterlimit:4;stroke-dasharray:none;stroke-opacity:1">
      <g
         id="g4567"
         style="stroke:#000000;stroke-width:0;stroke-linecap:round;stroke-linejoin:round;stroke-miterlimit:4;stroke-dasharray:none;stroke-opacity:1">
        <g
           aria-label="Apollo87H pcb rev. pre-gamma Designed by Gondolindrim I love frog daddy"
           transform="matrix(2.20863,0,0,2.20863,-695.30495,398.30184)"
           id="text20389"
           style="font-size:40px;line-height:1.25;font-family:'a Astro Space';-inkscape-font-specification:'a Astro Space';text-align:center;text-anchor:middle;shape-inside:url(#rect20391);stroke:none">
          <text
             xml:space="preserve"
             transform="matrix(1.2493566,0,0,1.2493566,211.55249,-135.51984)"
             id="text915"
             style="font-style:normal;font-weight:normal;font-size:5.33333px;line-height:1.25;font-family:sans-serif;white-space:pre;shape-inside:url(#rect917);fill:#000000;fill-opacity:1;stroke:none"><tspan
               x="33.443883"
               y="56.925075"
               id="tspan17620"><tspan
                 style="font-family:pirulen;-inkscape-font-specification:pirulen"
                 id="tspan17618">Apollo87h PCB rev. delta rc1
</tspan></tspan><tspan
               x="38.355883"
               y="63.757072"
               id="tspan17624"><tspan
                 style="font-family:pirulen;-inkscape-font-specification:pirulen"
                 id="tspan17622">designed by Gondolindrim
</tspan></tspan><tspan
               x="40.582561"
               y="70.589069"
               id="tspan17628"><tspan
                 style="font-family:pirulen;-inkscape-font-specification:pirulen"
                 id="tspan17626">for the acheron project</tspan></tspan></text>
          <g
             aria-label="Apollo87h PCB rev. delta rc1
designed by Gondolindrim
for the acheron project"
             transform="matrix(1.2493566,0,0,1.2493566,484.897,-171.63237)"
             id="text12047"
             style="font-size:5.33333px;font-family:sans-serif;shape-inside:url(#rect12049);stroke-width:0.453777">
            <path
               d="m -181.43526,20.009796 -2.47999,-3.754664 h -0.51734 l -2.496,3.754664 h 0.78934 l 1.968,-3.023998 1.936,3.023998 z"
               style="stroke:#000000;stroke-width:0.45377686;stroke-miterlimit:4;stroke-dasharray:none"
               id="path16905" />
            <path
               d="m -178.01125,18.62313 c 0.85333,0 1.17866,-0.367999 1.17866,-0.906666 v -0.554666 c 0,-0.538666 -0.32533,-0.906666 -1.17866,-0.906666 h -3.07734 v 3.754664 h 0.70934 V 18.62313 Z m 0.46933,-0.901332 c 0,0.224 -0.14933,0.346666 -0.46933,0.346666 h -2.368 v -1.258666 h 2.368 c 0.32,0 0.46933,0.122667 0.46933,0.346667 z"
               style="stroke:#000000;stroke-width:0.45377686;stroke-miterlimit:4;stroke-dasharray:none"
               id="path16907" />
            <path
               d="m -172.70459,20.009796 c 0.85334,0 1.17867,-0.367999 1.17867,-0.906666 v -1.941332 c 0,-0.538666 -0.32533,-0.906666 -1.17867,-0.906666 h -2.47999 c -0.85334,0 -1.17867,0.368 -1.17867,0.906666 v 1.941332 c 0,0.538667 0.32533,0.906666 1.17867,0.906666 z m 0.46934,-0.901332 c 0,0.223999 -0.14934,0.346666 -0.46934,0.346666 h -2.47999 c -0.32,0 -0.46934,-0.122667 -0.46934,-0.346666 v -1.951999 c 0,-0.224 0.14934,-0.346667 0.46934,-0.346667 h 2.47999 c 0.32,0 0.46934,0.122667 0.46934,0.346667 z"
               style="stroke:#000000;stroke-width:0.45377686;stroke-miterlimit:4;stroke-dasharray:none"
               id="path16909" />
            <path
               d="M -167.09925,20.009796 V 19.45513 h -3.04533 v -3.199998 h -0.71467 v 3.754664 z"
               style="stroke:#000000;stroke-width:0.45377686;stroke-miterlimit:4;stroke-dasharray:none"
               id="path16911" />
            <path
               d="M -162.84325,20.009796 V 19.45513 h -3.04534 v -3.199998 h -0.71466 v 3.754664 z"
               style="stroke:#000000;stroke-width:0.45377686;stroke-miterlimit:4;stroke-dasharray:none"
               id="path16913" />
            <path
               d="m -158.81658,20.009796 c 0.85333,0 1.17866,-0.367999 1.17866,-0.906666 v -1.941332 c 0,-0.538666 -0.32533,-0.906666 -1.17866,-0.906666 h -2.48 c -0.85334,0 -1.17867,0.368 -1.17867,0.906666 v 1.941332 c 0,0.538667 0.32533,0.906666 1.17867,0.906666 z m 0.46933,-0.901332 c 0,0.223999 -0.14933,0.346666 -0.46933,0.346666 h -2.48 c -0.32,0 -0.46934,-0.122667 -0.46934,-0.346666 v -1.951999 c 0,-0.224 0.14934,-0.346667 0.46934,-0.346667 h 2.48 c 0.32,0 0.46933,0.122667 0.46933,0.346667 z"
               style="stroke:#000000;stroke-width:0.45377686;stroke-miterlimit:4;stroke-dasharray:none"
               id="path16915" />
            <path
               d="m -153.91525,20.009796 c 0.928,0 1.18933,-0.383999 1.18933,-0.810666 v -0.613333 c 0,-0.362666 -0.208,-0.538666 -0.49067,-0.613333 0.26667,-0.05333 0.44267,-0.298666 0.44267,-0.623999 v -0.282667 c 0,-0.501333 -0.32,-0.810666 -1.152,-0.810666 h -1.872 c -0.832,0 -1.152,0.309333 -1.152,0.810666 v 0.282667 c 0,0.325333 0.176,0.570666 0.44267,0.623999 -0.28267,0.07467 -0.49067,0.250667 -0.49067,0.613333 v 0.613333 c 0,0.426667 0.26134,0.810666 1.18934,0.810666 z m 0.48,-0.943999 c 0,0.304 -0.19734,0.389333 -0.48,0.389333 h -1.89333 c -0.28267,0 -0.48,-0.08533 -0.48,-0.389333 v -0.469333 c 0,-0.234667 0.19733,-0.32 0.48,-0.32 h 1.89333 c 0.28266,0 0.48,0.08533 0.48,0.32 z m -0.048,-1.637332 c 0,0.207999 -0.112,0.293333 -0.44267,0.293333 h -1.872 c -0.33066,0 -0.44266,-0.08533 -0.44266,-0.293333 v -0.325334 c 0,-0.207999 0.112,-0.293333 0.44266,-0.293333 h 1.872 c 0.33067,0 0.44267,0.08533 0.44267,0.293333 z"
               style="stroke:#000000;stroke-width:0.45377686;stroke-miterlimit:4;stroke-dasharray:none"
               id="path16917" />
            <path
               d="m -150.52859,20.009796 2.50133,-3.306664 v -0.448 h -4.20266 v 0.554666 h 3.40266 l -2.50666,3.199998 z"
               style="stroke:#000000;stroke-width:0.45377686;stroke-miterlimit:4;stroke-dasharray:none"
               id="path16919" />
            <path
               d="m -143.08859,20.009796 v -3.754664 h -0.70934 v 1.493332 h -3.07199 v -1.493332 h -0.70934 v 3.754664 h 0.70934 v -1.706665 h 3.07199 v 1.706665 z"
               style="stroke:#000000;stroke-width:0.45377686;stroke-miterlimit:4;stroke-dasharray:none"
               id="path16921" />
            <path
               d="m -136.65126,18.62313 c 0.85333,0 1.17866,-0.367999 1.17866,-0.906666 v -0.554666 c 0,-0.538666 -0.32533,-0.906666 -1.17866,-0.906666 h -3.07733 v 3.754664 h 0.70933 V 18.62313 Z m 0.46933,-0.901332 c 0,0.224 -0.14933,0.346666 -0.46933,0.346666 h -2.368 v -1.258666 h 2.368 c 0.32,0 0.46933,0.122667 0.46933,0.346667 z"
               style="stroke:#000000;stroke-width:0.45377686;stroke-miterlimit:4;stroke-dasharray:none"
               id="path16923" />
            <path
               d="M -130.8006,20.009796 V 19.45513 h -3.024 c -0.32,0 -0.46933,-0.122667 -0.46933,-0.346666 v -1.951999 c 0,-0.224 0.14933,-0.346667 0.46933,-0.346667 h 3.024 v -0.554666 h -3.024 c -0.85333,0 -1.17866,0.368 -1.17866,0.906666 v 1.941332 c 0,0.538667 0.32533,0.906666 1.17866,0.906666 z"
               style="stroke:#000000;stroke-width:0.45377686;stroke-miterlimit:4;stroke-dasharray:none"
               id="path16925" />
            <path
               d="m -127.1366,20.009796 c 0.928,0 1.18934,-0.383999 1.18934,-0.810666 v -0.549333 c 0,-0.362666 -0.208,-0.538666 -0.49067,-0.613333 0.26667,-0.05333 0.44267,-0.298666 0.44267,-0.623999 v -0.346667 c 0,-0.501333 -0.32,-0.810666 -1.152,-0.810666 h -3.056 v 3.754664 z m 0.48,-0.943999 c 0,0.304 -0.19733,0.389333 -0.48,0.389333 h -2.35733 v -1.114666 h 2.35733 c 0.28267,0 0.48,0.08533 0.48,0.32 z m -0.048,-1.573333 c 0,0.208 -0.112,0.293334 -0.44266,0.293334 h -2.34667 v -0.976 h 2.34667 c 0.33066,0 0.44266,0.08533 0.44266,0.293333 z"
               style="stroke:#000000;stroke-width:0.45377686;stroke-miterlimit:4;stroke-dasharray:none"
               id="path16927" />
            <path
               d="m -118.2886,20.009796 -0.88533,-1.685332 c 0.66666,-0.064 0.928,-0.410666 0.928,-0.895999 v -0.266667 c 0,-0.538666 -0.32534,-0.906666 -1.17867,-0.906666 h -3.18933 v 3.754664 h 0.70933 v -1.674665 h 1.97867 l 0.88,1.674665 z m -0.66667,-2.575998 c 0,0.224 -0.14933,0.346666 -0.46933,0.346666 h -2.48 v -0.970666 h 2.48 c 0.32,0 0.46933,0.122667 0.46933,0.346667 z"
               style="stroke:#000000;stroke-width:0.45377686;stroke-miterlimit:4;stroke-dasharray:none"
               id="path16929" />
            <path
               d="M -113.81393,20.009796 V 19.45513 h -3.152 v -1.151999 h 2.992 v -0.554667 h -2.992 v -0.938666 h 3.152 v -0.554666 h -3.86134 v 3.754664 z"
               style="stroke:#000000;stroke-width:0.45377686;stroke-miterlimit:4;stroke-dasharray:none"
               id="path16931" />
            <path
               d="m -110.5446,20.009796 2.47999,-3.754664 h -0.784 l -1.94133,3.023998 -1.96266,-3.023998 h -0.80534 l 2.496,3.754664 z"
               style="stroke:#000000;stroke-width:0.45377686;stroke-miterlimit:4;stroke-dasharray:none"
               id="path16933" />
            <path
               d="m -107.6486,20.009796 v -0.693333 h -0.83733 v 0.693333 z"
               style="stroke:#000000;stroke-width:0.45377686;stroke-miterlimit:4;stroke-dasharray:none"
               id="path16935" />
            <path
               d="m -100.8326,20.009796 c 1.061331,0 1.386661,-0.367999 1.386661,-1.071999 v -1.573332 c 0,-0.741333 -0.32533,-1.109333 -1.386661,-1.109333 h -3.44 v 3.754664 z m 0.67733,-1.077332 c 0,0.399999 -0.14933,0.522666 -0.67733,0.522666 h -2.73067 v -2.645332 h 2.73067 c 0.528,0 0.67733,0.122667 0.67733,0.554667 z"
               style="stroke:#000000;stroke-width:0.45377686;stroke-miterlimit:4;stroke-dasharray:none"
               id="path16937" />
            <path
               d="M -94.917939,20.009796 V 19.45513 h -3.152 v -1.151999 h 2.992 v -0.554667 h -2.992 v -0.938666 h 3.152 v -0.554666 h -3.86133 v 3.754664 z"
               style="stroke:#000000;stroke-width:0.45377686;stroke-miterlimit:4;stroke-dasharray:none"
               id="path16939" />
            <path
               d="M -90.555279,20.009796 V 19.45513 h -3.04533 v -3.199998 h -0.71466 v 3.754664 z"
               style="stroke:#000000;stroke-width:0.45377686;stroke-miterlimit:4;stroke-dasharray:none"
               id="path16941" />
            <path
               d="m -88.773939,20.009796 v -3.199998 h 1.91467 v -0.554666 h -4.592 v 0.554666 h 1.968 v 3.199998 z"
               style="stroke:#000000;stroke-width:0.45377686;stroke-miterlimit:4;stroke-dasharray:none"
               id="path16943" />
            <path
               d="m -82.224609,20.009796 -2.48,-3.754664 h -0.51733 l -2.496,3.754664 h 0.78933 l 1.968,-3.023998 1.936,3.023998 z"
               style="stroke:#000000;stroke-width:0.45377686;stroke-miterlimit:4;stroke-dasharray:none"
               id="path16945" />
            <path
               d="m -74.885949,20.009796 -0.88533,-1.685332 c 0.66667,-0.064 0.928,-0.410666 0.928,-0.895999 v -0.266667 c 0,-0.538666 -0.32533,-0.906666 -1.17867,-0.906666 h -3.18933 v 3.754664 h 0.70934 v -1.674665 h 1.97866 l 0.88,1.674665 z m -0.66666,-2.575998 c 0,0.224 -0.14934,0.346666 -0.46934,0.346666 h -2.47999 v -0.970666 h 2.47999 c 0.32,0 0.46934,0.122667 0.46934,0.346667 z"
               style="stroke:#000000;stroke-width:0.45377686;stroke-miterlimit:4;stroke-dasharray:none"
               id="path16947" />
            <path
               d="M -70.096609,20.009796 V 19.45513 h -3.024 c -0.32,0 -0.46933,-0.122667 -0.46933,-0.346666 v -1.951999 c 0,-0.224 0.14933,-0.346667 0.46933,-0.346667 h 3.024 v -0.554666 h -3.024 c -0.85333,0 -1.17867,0.368 -1.17867,0.906666 v 1.941332 c 0,0.538667 0.32534,0.906666 1.17867,0.906666 z"
               style="stroke:#000000;stroke-width:0.45377686;stroke-miterlimit:4;stroke-dasharray:none"
               id="path16949" />
            <path
               d="m -68.101949,20.009796 v -3.754664 h -0.98666 l -0.73067,0.826666 h 0.74667 l 0.26133,-0.298666 v 3.226664 z"
               style="stroke:#000000;stroke-width:0.45377686;stroke-miterlimit:4;stroke-dasharray:none"
               id="path16951" />
            <path
               d="m -178.22992,26.841793 c 1.06133,0 1.38666,-0.368 1.38666,-1.071999 v -1.573333 c 0,-0.741332 -0.32533,-1.109332 -1.38666,-1.109332 h -3.44 v 3.754664 z m 0.67733,-1.077332 c 0,0.399999 -0.14933,0.522666 -0.67733,0.522666 h -2.73067 v -2.645332 h 2.73067 c 0.528,0 0.67733,0.122667 0.67733,0.554666 z"
               style="font-family:pirulen;-inkscape-font-specification:pirulen;stroke:none;stroke-width:0.907554;stroke-miterlimit:4;stroke-dasharray:none;stroke-opacity:1"
               id="path16953" />
            <path
               d="m -172.31525,26.841793 v -0.554666 h -3.152 v -1.151999 h 2.992 v -0.554667 h -2.992 v -0.938666 h 3.152 v -0.554666 h -3.86134 v 3.754664 z"
               style="font-family:pirulen;-inkscape-font-specification:pirulen;stroke:none;stroke-width:0.907554;stroke-miterlimit:4;stroke-dasharray:none;stroke-opacity:1"
               id="path16955" />
            <path
               d="m -168.40059,26.841793 c 0.85333,0 1.17867,-0.368 1.17867,-0.906666 v -0.464 c 0,-0.538666 -0.32534,-0.906666 -1.17867,-0.906666 h -2.208 c -0.32,0 -0.46933,-0.122666 -0.46933,-0.346666 v -0.229333 c 0,-0.224 0.14933,-0.346667 0.46933,-0.346667 h 3.17867 v -0.554666 h -3.17867 c -0.85333,0 -1.17867,0.368 -1.17867,0.906666 v 0.218666 c 0,0.538667 0.32534,0.906667 1.17867,0.906667 h 2.208 c 0.32,0 0.46933,0.122666 0.46933,0.346666 v 0.474666 c 0,0.224 -0.14933,0.346667 -0.46933,0.346667 h -3.264 v 0.554666 z"
               style="font-family:pirulen;-inkscape-font-specification:pirulen;stroke:none;stroke-width:0.907554;stroke-miterlimit:4;stroke-dasharray:none;stroke-opacity:1"
               id="path16957" />
            <path
               d="m -165.90459,26.841793 v -3.754664 h -0.70933 v 3.754664 z"
               style="font-family:pirulen;-inkscape-font-specification:pirulen;stroke:none;stroke-width:0.907554;stroke-miterlimit:4;stroke-dasharray:none;stroke-opacity:1"
               id="path16959" />
            <path
               d="m -162.21392,26.841793 c 0.89066,0 1.33866,-0.266666 1.33866,-0.799999 v -1.248 h -0.70933 v 1.248 c 0,0.165333 -0.208,0.245333 -0.62933,0.245333 h -1.65867 c -0.42133,0 -0.62933,-0.08533 -0.62933,-0.256 v -2.133332 c 0,-0.170667 0.208,-0.256 0.62933,-0.256 h 2.93867 v -0.554666 h -2.93867 c -0.89066,0 -1.33866,0.272 -1.33866,0.810666 v 2.133332 c 0,0.538666 0.448,0.810666 1.33866,0.810666 z"
               style="font-family:pirulen;-inkscape-font-specification:pirulen;stroke:none;stroke-width:0.907554;stroke-miterlimit:4;stroke-dasharray:none;stroke-opacity:1"
               id="path16961" />
            <path
               d="m -155.24859,26.841793 v -3.754664 h -0.61867 v 2.789331 l -3.73867,-2.789331 h -0.61333 v 3.754664 h 0.61867 v -2.922665 l 4.00533,2.922665 z"
               style="font-family:pirulen;-inkscape-font-specification:pirulen;stroke:none;stroke-width:0.907554;stroke-miterlimit:4;stroke-dasharray:none;stroke-opacity:1"
               id="path16963" />
            <path
               d="m -150.69393,26.841793 v -0.554666 h -3.152 v -1.151999 h 2.992 v -0.554667 h -2.992 v -0.938666 h 3.152 v -0.554666 h -3.86133 v 3.754664 z"
               style="font-family:pirulen;-inkscape-font-specification:pirulen;stroke:none;stroke-width:0.907554;stroke-miterlimit:4;stroke-dasharray:none;stroke-opacity:1"
               id="path16965" />
            <path
               d="m -146.65127,26.841793 c 1.06134,0 1.38667,-0.368 1.38667,-1.071999 v -1.573333 c 0,-0.741332 -0.32533,-1.109332 -1.38667,-1.109332 h -3.43999 v 3.754664 z m 0.67734,-1.077332 c 0,0.399999 -0.14934,0.522666 -0.67734,0.522666 h -2.73066 v -2.645332 h 2.73066 c 0.528,0 0.67734,0.122667 0.67734,0.554666 z"
               style="font-family:pirulen;-inkscape-font-specification:pirulen;stroke:none;stroke-width:0.907554;stroke-miterlimit:4;stroke-dasharray:none;stroke-opacity:1"
               id="path16967" />
            <path
               d="m -138.8646,26.841793 c 0.928,0 1.18933,-0.384 1.18933,-0.810666 v -0.549333 c 0,-0.362666 -0.208,-0.538666 -0.49066,-0.613333 0.26666,-0.05333 0.44266,-0.298666 0.44266,-0.624 v -0.346666 c 0,-0.501333 -0.32,-0.810666 -1.152,-0.810666 h -3.05599 v 3.754664 z m 0.48,-0.943999 c 0,0.304 -0.19733,0.389333 -0.48,0.389333 h -2.35733 v -1.114666 h 2.35733 c 0.28267,0 0.48,0.08533 0.48,0.32 z m -0.048,-1.573333 c 0,0.208 -0.112,0.293334 -0.44267,0.293334 h -2.34666 v -0.976 h 2.34666 c 0.33067,0 0.44267,0.08533 0.44267,0.293333 z"
               style="font-family:pirulen;-inkscape-font-specification:pirulen;stroke:none;stroke-width:0.907554;stroke-miterlimit:4;stroke-dasharray:none;stroke-opacity:1"
               id="path16969" />
            <path
               d="m -134.47527,26.841793 v -1.525332 l 2.39467,-2.229332 h -0.896 l -1.856,1.717332 -1.856,-1.717332 h -0.90666 l 2.41066,2.229332 v 1.525332 z"
               style="font-family:pirulen;-inkscape-font-specification:pirulen;stroke:none;stroke-width:0.907554;stroke-miterlimit:4;stroke-dasharray:none;stroke-opacity:1"
               id="path16971" />
            <path
               d="m -126.0966,26.841793 c 0.89066,0 1.33866,-0.266666 1.33866,-0.799999 v -1.248 h -0.70933 v 1.248 c 0,0.165333 -0.208,0.245333 -0.62933,0.245333 h -1.65867 c -0.42133,0 -0.62933,-0.08533 -0.62933,-0.256 v -2.133332 c 0,-0.170667 0.208,-0.256 0.62933,-0.256 h 2.93866 v -0.554666 h -2.93866 c -0.89067,0 -1.33867,0.272 -1.33867,0.810666 v 2.133332 c 0,0.538666 0.448,0.810666 1.33867,0.810666 z"
               style="font-family:pirulen;-inkscape-font-specification:pirulen;stroke:none;stroke-width:0.907554;stroke-miterlimit:4;stroke-dasharray:none;stroke-opacity:1"
               id="path16973" />
            <path
               d="m -120.46994,26.841793 c 0.85333,0 1.17866,-0.368 1.17866,-0.906666 v -1.941332 c 0,-0.538666 -0.32533,-0.906666 -1.17866,-0.906666 h -2.48 c -0.85333,0 -1.17866,0.368 -1.17866,0.906666 v 1.941332 c 0,0.538666 0.32533,0.906666 1.17866,0.906666 z m 0.46933,-0.901333 c 0,0.224 -0.14933,0.346667 -0.46933,0.346667 h -2.48 c -0.32,0 -0.46933,-0.122667 -0.46933,-0.346667 v -1.951998 c 0,-0.224 0.14933,-0.346667 0.46933,-0.346667 h 2.48 c 0.32,0 0.46933,0.122667 0.46933,0.346667 z"
               style="font-family:pirulen;-inkscape-font-specification:pirulen;stroke:none;stroke-width:0.907554;stroke-miterlimit:4;stroke-dasharray:none;stroke-opacity:1"
               id="path16975" />
            <path
               d="m -113.65395,26.841793 v -3.754664 h -0.61866 v 2.789331 l -3.73867,-2.789331 h -0.61333 v 3.754664 h 0.61867 v -2.922665 l 4.00533,2.922665 z"
               style="font-family:pirulen;-inkscape-font-specification:pirulen;stroke:none;stroke-width:0.907554;stroke-miterlimit:4;stroke-dasharray:none;stroke-opacity:1"
               id="path16977" />
            <path
               d="m -109.52061,26.841793 c 1.06133,0 1.38667,-0.368 1.38667,-1.071999 v -1.573333 c 0,-0.741332 -0.32534,-1.109332 -1.38667,-1.109332 h -3.44 v 3.754664 z m 0.67733,-1.077332 c 0,0.399999 -0.14933,0.522666 -0.67733,0.522666 h -2.73067 v -2.645332 h 2.73067 c 0.528,0 0.67733,0.122667 0.67733,0.554666 z"
               style="font-family:pirulen;-inkscape-font-specification:pirulen;stroke:none;stroke-width:0.907554;stroke-miterlimit:4;stroke-dasharray:none;stroke-opacity:1"
               id="path16979" />
            <path
               d="m -103.83528,26.841793 c 0.85333,0 1.17867,-0.368 1.17867,-0.906666 v -1.941332 c 0,-0.538666 -0.32534,-0.906666 -1.17867,-0.906666 h -2.48 c -0.85333,0 -1.17866,0.368 -1.17866,0.906666 v 1.941332 c 0,0.538666 0.32533,0.906666 1.17866,0.906666 z m 0.46933,-0.901333 c 0,0.224 -0.14933,0.346667 -0.46933,0.346667 h -2.48 c -0.32,0 -0.46933,-0.122667 -0.46933,-0.346667 v -1.951998 c 0,-0.224 0.14933,-0.346667 0.46933,-0.346667 h 2.48 c 0.32,0 0.46933,0.122667 0.46933,0.346667 z"
               style="font-family:pirulen;-inkscape-font-specification:pirulen;stroke:none;stroke-width:0.907554;stroke-miterlimit:4;stroke-dasharray:none;stroke-opacity:1"
               id="path16981" />
            <path
               d="m -98.229949,26.841793 v -0.554666 h -3.045331 v -3.199998 h -0.71466 v 3.754664 z"
               style="font-family:pirulen;-inkscape-font-specification:pirulen;stroke:none;stroke-width:0.907554;stroke-miterlimit:4;stroke-dasharray:none;stroke-opacity:1"
               id="path16983" />
            <path
               d="m -96.997949,26.841793 v -3.754664 h -0.70933 v 3.754664 z"
               style="font-family:pirulen;-inkscape-font-specification:pirulen;stroke:none;stroke-width:0.907554;stroke-miterlimit:4;stroke-dasharray:none;stroke-opacity:1"
               id="path16985" />
            <path
               d="m -91.307279,26.841793 v -3.754664 h -0.61867 v 2.789331 l -3.73866,-2.789331 h -0.61334 v 3.754664 h 0.61867 v -2.922665 l 4.00533,2.922665 z"
               style="font-family:pirulen;-inkscape-font-specification:pirulen;stroke:none;stroke-width:0.907554;stroke-miterlimit:4;stroke-dasharray:none;stroke-opacity:1"
               id="path16987" />
            <path
               d="m -87.173949,26.841793 c 1.06134,0 1.38667,-0.368 1.38667,-1.071999 v -1.573333 c 0,-0.741332 -0.32533,-1.109332 -1.38667,-1.109332 h -3.43999 v 3.754664 z m 0.67734,-1.077332 c 0,0.399999 -0.14934,0.522666 -0.67734,0.522666 h -2.73066 v -2.645332 h 2.73066 c 0.528,0 0.67734,0.122667 0.67734,0.554666 z"
               style="font-family:pirulen;-inkscape-font-specification:pirulen;stroke:none;stroke-width:0.907554;stroke-miterlimit:4;stroke-dasharray:none;stroke-opacity:1"
               id="path16989" />
            <path
               d="m -80.795279,26.841793 -0.88533,-1.685332 c 0.66666,-0.064 0.928,-0.410667 0.928,-0.896 v -0.266666 c 0,-0.538666 -0.32534,-0.906666 -1.17867,-0.906666 h -3.18933 v 3.754664 h 0.70933 v -1.674665 h 1.97867 l 0.88,1.674665 z m -0.66667,-2.575998 c 0,0.224 -0.14933,0.346666 -0.46933,0.346666 h -2.48 v -0.970666 h 2.48 c 0.32,0 0.46933,0.122667 0.46933,0.346667 z"
               style="font-family:pirulen;-inkscape-font-specification:pirulen;stroke:none;stroke-width:0.907554;stroke-miterlimit:4;stroke-dasharray:none;stroke-opacity:1"
               id="path16991" />
            <path
               d="m -79.445949,26.841793 v -3.754664 h -0.70933 v 3.754664 z"
               style="font-family:pirulen;-inkscape-font-specification:pirulen;stroke:none;stroke-width:0.907554;stroke-miterlimit:4;stroke-dasharray:none;stroke-opacity:1"
               id="path16993" />
            <path
               d="m -73.008609,26.841793 v -3.754664 h -0.608 l -2.21867,3.066665 -2.22933,-3.066665 h -0.66133 v 3.754664 h 0.656 v -2.623998 l 1.91466,2.623998 h 0.58133 l 1.90934,-2.629332 v 2.629332 z"
               style="font-family:pirulen;-inkscape-font-specification:pirulen;stroke:none;stroke-width:0.907554;stroke-miterlimit:4;stroke-dasharray:none;stroke-opacity:1"
               id="path16995" />
            <path
               d="m -175.79524,32.127124 v -0.554666 h -2.93867 v -1.098666 h 3.152 v -0.554666 h -3.86133 v 3.754664 h 0.70933 v -1.546666 z"
               style="font-family:pirulen;-inkscape-font-specification:pirulen;stroke:none;stroke-width:0.907554;stroke-miterlimit:4;stroke-dasharray:none;stroke-opacity:1"
               id="path16997" />
            <path
               d="m -171.56591,33.67379 c 0.85333,0 1.17866,-0.368 1.17866,-0.906666 v -1.941332 c 0,-0.538667 -0.32533,-0.906666 -1.17866,-0.906666 h -2.48 c -0.85334,0 -1.17867,0.367999 -1.17867,0.906666 v 1.941332 c 0,0.538666 0.32533,0.906666 1.17867,0.906666 z m 0.46933,-0.901333 c 0,0.224 -0.14934,0.346667 -0.46933,0.346667 h -2.48 c -0.32,0 -0.46934,-0.122667 -0.46934,-0.346667 v -1.951998 c 0,-0.224 0.14934,-0.346667 0.46934,-0.346667 h 2.48 c 0.31999,0 0.46933,0.122667 0.46933,0.346667 z"
               style="font-family:pirulen;-inkscape-font-specification:pirulen;stroke:none;stroke-width:0.907554;stroke-miterlimit:4;stroke-dasharray:none;stroke-opacity:1"
               id="path16999" />
            <path
               d="m -165.39525,33.67379 -0.88533,-1.685332 c 0.66666,-0.064 0.928,-0.410667 0.928,-0.896 v -0.266666 c 0,-0.538667 -0.32534,-0.906666 -1.17867,-0.906666 h -3.18933 v 3.754664 h 0.70933 v -1.674666 h 1.97867 l 0.88,1.674666 z m -0.66667,-2.575998 c 0,0.224 -0.14933,0.346666 -0.46933,0.346666 h -2.48 v -0.970666 h 2.48 c 0.32,0 0.46933,0.122667 0.46933,0.346667 z"
               style="font-family:pirulen;-inkscape-font-specification:pirulen;stroke:none;stroke-width:0.907554;stroke-miterlimit:4;stroke-dasharray:none;stroke-opacity:1"
               id="path17001" />
            <path
               d="m -159.66192,33.67379 v -3.199998 h 1.91467 v -0.554666 h -4.592 v 0.554666 h 1.968 v 3.199998 z"
               style="font-family:pirulen;-inkscape-font-specification:pirulen;stroke:none;stroke-width:0.907554;stroke-miterlimit:4;stroke-dasharray:none;stroke-opacity:1"
               id="path17003" />
            <path
               d="m -152.78193,33.67379 v -3.754664 h -0.70933 v 1.493332 h -3.072 v -1.493332 h -0.70933 v 3.754664 h 0.70933 v -1.706666 h 3.072 v 1.706666 z"
               style="font-family:pirulen;-inkscape-font-specification:pirulen;stroke:none;stroke-width:0.907554;stroke-miterlimit:4;stroke-dasharray:none;stroke-opacity:1"
               id="path17005" />
            <path
               d="m -148.22726,33.67379 v -0.554666 h -3.152 v -1.152 h 2.992 v -0.554666 h -2.992 v -0.938666 h 3.152 v -0.554666 h -3.86133 v 3.754664 z"
               style="font-family:pirulen;-inkscape-font-specification:pirulen;stroke:none;stroke-width:0.907554;stroke-miterlimit:4;stroke-dasharray:none;stroke-opacity:1"
               id="path17007" />
            <path
               d="m -139.81127,33.67379 -2.48,-3.754664 h -0.51733 l -2.496,3.754664 h 0.78933 l 1.968,-3.023998 1.936,3.023998 z"
               style="font-family:pirulen;-inkscape-font-specification:pirulen;stroke:none;stroke-width:0.907554;stroke-miterlimit:4;stroke-dasharray:none;stroke-opacity:1"
               id="path17009" />
            <path
               d="m -135.2886,33.67379 v -0.554666 h -3.024 c -0.32,0 -0.46933,-0.122667 -0.46933,-0.346667 v -1.951998 c 0,-0.224 0.14933,-0.346667 0.46933,-0.346667 h 3.024 v -0.554666 h -3.024 c -0.85333,0 -1.17866,0.367999 -1.17866,0.906666 v 1.941332 c 0,0.538666 0.32533,0.906666 1.17866,0.906666 z"
               style="font-family:pirulen;-inkscape-font-specification:pirulen;stroke:none;stroke-width:0.907554;stroke-miterlimit:4;stroke-dasharray:none;stroke-opacity:1"
               id="path17011" />
            <path
               d="m -130.2006,33.67379 v -3.754664 h -0.70933 v 1.493332 h -3.072 v -1.493332 h -0.70934 v 3.754664 h 0.70934 v -1.706666 h 3.072 v 1.706666 z"
               style="font-family:pirulen;-inkscape-font-specification:pirulen;stroke:none;stroke-width:0.907554;stroke-miterlimit:4;stroke-dasharray:none;stroke-opacity:1"
               id="path17013" />
            <path
               d="m -125.64594,33.67379 v -0.554666 h -3.15199 v -1.152 h 2.99199 v -0.554666 h -2.99199 v -0.938666 h 3.15199 v -0.554666 h -3.86133 v 3.754664 z"
               style="font-family:pirulen;-inkscape-font-specification:pirulen;stroke:none;stroke-width:0.907554;stroke-miterlimit:4;stroke-dasharray:none;stroke-opacity:1"
               id="path17015" />
            <path
               d="m -120.71794,33.67379 -0.88533,-1.685332 c 0.66666,-0.064 0.928,-0.410667 0.928,-0.896 v -0.266666 c 0,-0.538667 -0.32534,-0.906666 -1.17867,-0.906666 h -3.18933 v 3.754664 h 0.70933 v -1.674666 h 1.97867 l 0.88,1.674666 z m -0.66667,-2.575998 c 0,0.224 -0.14933,0.346666 -0.46933,0.346666 h -2.48 v -0.970666 h 2.48 c 0.32,0 0.46933,0.122667 0.46933,0.346667 z"
               style="font-family:pirulen;-inkscape-font-specification:pirulen;stroke:none;stroke-width:0.907554;stroke-miterlimit:4;stroke-dasharray:none;stroke-opacity:1"
               id="path17017" />
            <path
               d="m -116.47261,33.67379 c 0.85334,0 1.17867,-0.368 1.17867,-0.906666 v -1.941332 c 0,-0.538667 -0.32533,-0.906666 -1.17867,-0.906666 h -2.47999 c -0.85334,0 -1.17867,0.367999 -1.17867,0.906666 v 1.941332 c 0,0.538666 0.32533,0.906666 1.17867,0.906666 z m 0.46934,-0.901333 c 0,0.224 -0.14934,0.346667 -0.46934,0.346667 h -2.47999 c -0.32,0 -0.46934,-0.122667 -0.46934,-0.346667 v -1.951998 c 0,-0.224 0.14934,-0.346667 0.46934,-0.346667 h 2.47999 c 0.32,0 0.46934,0.122667 0.46934,0.346667 z"
               style="font-family:pirulen;-inkscape-font-specification:pirulen;stroke:none;stroke-width:0.907554;stroke-miterlimit:4;stroke-dasharray:none;stroke-opacity:1"
               id="path17019" />
            <path
               d="m -109.65661,33.67379 v -3.754664 h -0.61866 v 2.789331 l -3.73867,-2.789331 h -0.61333 v 3.754664 h 0.61867 v -2.922665 l 4.00533,2.922665 z"
               style="font-family:pirulen;-inkscape-font-specification:pirulen;stroke:none;stroke-width:0.907554;stroke-miterlimit:4;stroke-dasharray:none;stroke-opacity:1"
               id="path17021" />
            <path
               d="m -103.21927,32.287124 c 0.85333,0 1.17866,-0.367999 1.17866,-0.906666 v -0.554666 c 0,-0.538667 -0.32533,-0.906666 -1.17866,-0.906666 h -3.07734 v 3.754664 h 0.70934 v -1.386666 z m 0.46933,-0.901332 c 0,0.223999 -0.14933,0.346666 -0.46933,0.346666 h -2.368 v -1.258666 h 2.368 c 0.32,0 0.46933,0.122667 0.46933,0.346667 z"
               style="font-family:pirulen;-inkscape-font-specification:pirulen;stroke:none;stroke-width:0.907554;stroke-miterlimit:4;stroke-dasharray:none;stroke-opacity:1"
               id="path17023" />
            <path
               d="m -97.219279,33.67379 -0.88533,-1.685332 c 0.66667,-0.064 0.928,-0.410667 0.928,-0.896 v -0.266666 c 0,-0.538667 -0.32533,-0.906666 -1.17867,-0.906666 h -3.189331 v 3.754664 h 0.70934 v -1.674666 h 1.978661 l 0.88,1.674666 z m -0.66666,-2.575998 c 0,0.224 -0.14934,0.346666 -0.46934,0.346666 h -2.479991 v -0.970666 h 2.479991 c 0.32,0 0.46934,0.122667 0.46934,0.346667 z"
               style="font-family:pirulen;-inkscape-font-specification:pirulen;stroke:none;stroke-width:0.907554;stroke-miterlimit:4;stroke-dasharray:none;stroke-opacity:1"
               id="path17025" />
            <path
               d="m -92.973939,33.67379 c 0.85333,0 1.17866,-0.368 1.17866,-0.906666 v -1.941332 c 0,-0.538667 -0.32533,-0.906666 -1.17866,-0.906666 h -2.48 c -0.85333,0 -1.17867,0.367999 -1.17867,0.906666 v 1.941332 c 0,0.538666 0.32534,0.906666 1.17867,0.906666 z m 0.46933,-0.901333 c 0,0.224 -0.14933,0.346667 -0.46933,0.346667 h -2.48 c -0.32,0 -0.46933,-0.122667 -0.46933,-0.346667 v -1.951998 c 0,-0.224 0.14933,-0.346667 0.46933,-0.346667 h 2.48 c 0.32,0 0.46933,0.122667 0.46933,0.346667 z"
               style="font-family:pirulen;-inkscape-font-specification:pirulen;stroke:none;stroke-width:0.907554;stroke-miterlimit:4;stroke-dasharray:none;stroke-opacity:1"
               id="path17027" />
            <path
               d="m -90.472609,33.67379 c 0.832,0 1.17333,-0.336 1.17333,-0.799999 v -2.954665 h -0.70933 v 2.954665 c 0,0.165333 -0.13867,0.245333 -0.464,0.245333 h -1.02933 v 0.554666 z"
               style="font-family:pirulen;-inkscape-font-specification:pirulen;stroke:none;stroke-width:0.907554;stroke-miterlimit:4;stroke-dasharray:none;stroke-opacity:1"
               id="path17029" />
            <path
               d="m -84.760609,33.67379 v -0.554666 h -3.152 v -1.152 h 2.992 v -0.554666 h -2.992 v -0.938666 h 3.152 v -0.554666 h -3.86134 v 3.754664 z"
               style="font-family:pirulen;-inkscape-font-specification:pirulen;stroke:none;stroke-width:0.907554;stroke-miterlimit:4;stroke-dasharray:none;stroke-opacity:1"
               id="path17031" />
            <path
               d="m -79.981949,33.67379 v -0.554666 h -3.024 c -0.32,0 -0.46933,-0.122667 -0.46933,-0.346667 v -1.951998 c 0,-0.224 0.14933,-0.346667 0.46933,-0.346667 h 3.024 v -0.554666 h -3.024 c -0.85333,0 -1.17867,0.367999 -1.17867,0.906666 v 1.941332 c 0,0.538666 0.32534,0.906666 1.17867,0.906666 z"
               style="font-family:pirulen;-inkscape-font-specification:pirulen;stroke:none;stroke-width:0.907554;stroke-miterlimit:4;stroke-dasharray:none;stroke-opacity:1"
               id="path17033" />
            <path
               d="m -76.931289,33.67379 v -3.199998 h 1.91467 v -0.554666 h -4.592 v 0.554666 h 1.968 v 3.199998 z"
               style="font-family:pirulen;-inkscape-font-specification:pirulen;stroke:none;stroke-width:0.907554;stroke-miterlimit:4;stroke-dasharray:none;stroke-opacity:1"
               id="path17035" />
          </g>
        </g>
      </g>
    </g>
  </g>
</svg>
