<?xml version="1.0" encoding="UTF-8" standalone="no"?>
<svg
   width="34.701641mm"
   height="6.2249999mm"
   viewBox="0 0 34.70164 6.2250001"
   version="1.1"
   id="svg8"
   inkscape:version="1.1 (c4e8f9ed74, 2021-05-24)"
   sodipodi:docname="apollo87h_label.svg"
   inkscape:export-filename="/home/alvaro/Desktop/AcheronProject/Apollo87H/resources/apollo87h_label.png"
   inkscape:export-xdpi="5000"
   inkscape:export-ydpi="5000"
   xmlns:inkscape="http://www.inkscape.org/namespaces/inkscape"
   xmlns:sodipodi="http://sodipodi.sourceforge.net/DTD/sodipodi-0.dtd"
   xmlns="http://www.w3.org/2000/svg"
   xmlns:svg="http://www.w3.org/2000/svg"
   xmlns:rdf="http://www.w3.org/1999/02/22-rdf-syntax-ns#"
   xmlns:cc="http://creativecommons.org/ns#"
   xmlns:dc="http://purl.org/dc/elements/1.1/">
  <defs
     id="defs2">
    <rect
       x="55.171597"
       y="-117.49468"
       width="812.12262"
       height="274.33664"
       id="rect2831" />
    <rect
       x="-208.05171"
       y="110.20891"
       width="508.40088"
       height="11.106036"
       id="rect12" />
    <rect
       x="-208.05171"
       y="110.20891"
       width="424.19156"
       height="15.861772"
       id="rect74" />
    <rect
       x="-208.05171"
       y="110.20891"
       width="508.40088"
       height="11.106036"
       id="rect172" />
    <rect
       x="-208.05171"
       y="110.20891"
       width="508.40088"
       height="11.106036"
       id="rect2326" />
    <rect
       x="55.171597"
       y="-117.49468"
       width="812.12262"
       height="274.33664"
       id="rect20391" />
  </defs>
  <sodipodi:namedview
     id="base"
     pagecolor="#ffffff"
     bordercolor="#666666"
     borderopacity="1.0"
     inkscape:pageopacity="0.0"
     inkscape:pageshadow="2"
     inkscape:zoom="3.9999998"
     inkscape:cx="84.375004"
     inkscape:cy="56.875003"
     inkscape:document-units="mm"
     inkscape:current-layer="text20389"
     inkscape:document-rotation="0"
     showgrid="false"
     inkscape:window-width="1920"
     inkscape:window-height="1043"
     inkscape:window-x="1920"
     inkscape:window-y="200"
     inkscape:window-maximized="1"
     inkscape:pagecheckerboard="0" />
  <metadata
     id="metadata5">
    <rdf:RDF>
      <cc:Work
         rdf:about="">
        <dc:format>image/svg+xml</dc:format>
        <dc:type
           rdf:resource="http://purl.org/dc/dcmitype/StillImage" />
      </cc:Work>
    </rdf:RDF>
  </metadata>
  <g
     inkscape:label="Layer 1"
     inkscape:groupmode="layer"
     id="layer1"
     transform="translate(195.87346,-107.61057)">
    <g
       aria-label="Apollo87H PCB rev. pre-GAMMA | Designed by Gondolindrim | I love frog daddy "
       transform="matrix(0.11979523,0,0,0.11979523,-183.11819,101.28276)"
       id="text2324"
       style="font-size:10.5833px;line-height:1;letter-spacing:0px;word-spacing:0px;white-space:pre;shape-inside:url(#rect2326);stroke:#000000;stroke-width:0;stroke-miterlimit:4;stroke-dasharray:none;stroke-opacity:1">
      <g
         id="g4567"
         style="stroke:#000000;stroke-width:0;stroke-linecap:round;stroke-linejoin:round;stroke-miterlimit:4;stroke-dasharray:none;stroke-opacity:1">
        <g
           aria-label="Apollo87H pcb rev. pre-gamma
Designed by Gondolindrim
I love frog daddy"
           transform="matrix(2.20863,0,0,2.20863,-695.30495,398.30184)"
           id="text20389"
           style="font-size:40px;line-height:1.25;font-family:'a Astro Space';-inkscape-font-specification:'a Astro Space';text-align:center;text-anchor:middle;shape-inside:url(#rect20391);stroke:none">
          <g
             id="g21968"
             transform="matrix(0.17381301,0,0,0.17381301,252.07113,-176.14689)"
             style="stroke:none;stroke-width:4.89258;stroke-linecap:round;stroke-linejoin:round;stroke-miterlimit:4;stroke-dasharray:none;stroke-opacity:1">
            <path
               d="M 107.62012,142.05817 H 90.884064 l 3.203125,-5.15625 h 11.736051 l -5.07812,-14.57031 -8.281253,23.67187 h -6.40625 l 8.710938,-24.84374 c 1.276041,-3.46355 3.26823,-5.20834 5.976565,-5.23438 2.70833,0.0261 4.6875,1.77086 5.9375,5.23438 l 8.75,24.84374 h -6.40625 z"
               id="path21782"
               sodipodi:nodetypes="ccccccccccccc"
               style="stroke:none;stroke-width:4.89258;stroke-linecap:round;stroke-linejoin:round;stroke-miterlimit:4;stroke-dasharray:none;stroke-opacity:1" />
            <path
               d="m 124.72949,121.47224 v 24.53124 h -5.97656 v -24.45312 c 0,-1.77083 0.75521,-3.17708 2.26562,-4.21875 1.01563,-0.67708 2.13542,-1.01562 3.35938,-1.01562 h 8.08594 c 3.61979,0 6.52343,1.08073 8.71093,3.24218 1.84896,1.84896 2.77344,4.12761 2.77344,6.83594 v 1.13281 c 0,3.35938 -1.34115,5.98959 -4.02344,7.89063 -2.08333,1.45833 -4.57031,2.1875 -7.46093,2.1875 h -12.56306 l 3.20312,-5.15625 h 9.35994 c 2.44791,0 4.10156,-0.84636 4.96093,-2.53907 0.33855,-0.70312 0.50782,-1.49739 0.50782,-2.38281 v -1.13281 c 0,-2.34375 -1.05469,-3.86718 -3.16407,-4.57031 -0.70312,-0.23437 -1.47135,-0.35156 -2.30468,-0.35156 z"
               id="path21784"
               sodipodi:nodetypes="cccscsscsscsccscssssc"
               style="stroke:none;stroke-width:4.89258;stroke-linecap:round;stroke-linejoin:round;stroke-miterlimit:4;stroke-dasharray:none;stroke-opacity:1" />
            <path
               d="m 162.38574,146.39411 h -3.98437 q -4.84375,0 -8.24219,-3.4375 -3.24219,-3.28125 -3.24219,-7.85156 v -7.89063 q 0,-4.76562 3.4375,-8.08593 3.39844,-3.20313 8.04688,-3.20313 h 3.98437 q 4.84375,0 8.24219,3.4375 3.24219,3.28125 3.24219,7.85156 v 7.89063 q 0,4.76562 -3.4375,8.08593 -3.39844,3.20313 -8.04688,3.20313 z m -3.98437,-5.15625 h 3.98437 q 2.69531,0 4.33594,-2.42188 1.13281,-1.67968 1.13281,-3.71093 v -7.89063 q 0,-3.08593 -2.22656,-4.92187 -1.44531,-1.21094 -3.24219,-1.21094 h -3.98437 q -2.69532,0 -4.33594,2.38281 -1.17188,1.67969 -1.17188,3.75 v 7.89063 q 0,3.04687 2.1875,4.88281 1.52344,1.25 3.32032,1.25 z"
               id="path21786"
               style="stroke:none;stroke-width:4.89258;stroke-linecap:round;stroke-linejoin:round;stroke-miterlimit:4;stroke-dasharray:none;stroke-opacity:1" />
            <path
               d="m 184.69043,140.84723 h 14.14062 l 2.77344,5.15625 h -17.26562 q -2.89063,0 -4.57032,-2.1875 -1.05468,-1.36718 -1.05468,-3.04687 v -24.45312 h 5.97656 z"
               id="path21788"
               style="stroke:none;stroke-width:4.89258;stroke-linecap:round;stroke-linejoin:round;stroke-miterlimit:4;stroke-dasharray:none;stroke-opacity:1" />
            <path
               d="m 209.9248,140.84723 h 14.14063 l 2.77344,5.15625 h -17.26563 q -2.89062,0 -4.57031,-2.1875 -1.05469,-1.36718 -1.05469,-3.04687 v -24.45312 h 5.97656 z"
               id="path21790"
               style="stroke:none;stroke-width:4.89258;stroke-linecap:round;stroke-linejoin:round;stroke-miterlimit:4;stroke-dasharray:none;stroke-opacity:1" />
            <path
               d="m 243.3623,146.39411 h -3.98437 q -4.84375,0 -8.24219,-3.4375 -3.24219,-3.28125 -3.24219,-7.85156 v -7.89063 q 0,-4.76562 3.4375,-8.08593 3.39844,-3.20313 8.04688,-3.20313 h 3.98437 q 4.84375,0 8.24219,3.4375 3.24219,3.28125 3.24219,7.85156 v 7.89063 q 0,4.76562 -3.4375,8.08593 -3.39844,3.20313 -8.04688,3.20313 z m -3.98437,-5.15625 h 3.98437 q 2.69532,0 4.33594,-2.42188 1.13281,-1.67968 1.13281,-3.71093 v -7.89063 q 0,-3.08593 -2.22656,-4.92187 -1.44531,-1.21094 -3.24219,-1.21094 h -3.98437 q -2.69531,0 -4.33594,2.38281 -1.17187,1.67969 -1.17187,3.75 v 7.89063 q 0,3.04687 2.1875,4.88281 1.52343,1.25 3.32031,1.25 z"
               id="path21792"
               style="stroke:none;stroke-width:4.89258;stroke-linecap:round;stroke-linejoin:round;stroke-miterlimit:4;stroke-dasharray:none;stroke-opacity:1" />
            <path
               d="m 273.9873,146.00348 h -3.32031 q -6.44531,0 -9.53125,-3.67187 -1.75781,-2.07031 -1.75781,-4.6875 0,-3.71094 3.28125,-6.13281 0.625,-0.42969 1.28906,-0.78125 -2.8125,-2.61719 -2.96875,-6.17188 0,-3.63281 2.85156,-6.01562 2.65625,-2.22656 6.83594,-2.22656 h 3.32031 q 5.46875,0 8.125,3.59375 1.5625,2.07031 1.5625,4.64843 0,3.55469 -2.69531,5.9375 -0.15625,0.15625 -0.27344,0.23438 3.78907,1.99218 4.45313,5.625 0.11719,0.66406 0.11719,1.28906 0,3.67187 -3.16407,6.01562 -3.125,2.34375 -8.125,2.34375 z m 0,-5.15625 q 3.67188,0 5,-2.07031 0.42969,-0.74219 0.42969,-1.52344 0,-1.875 -2.07031,-2.92968 -1.40625,-0.70313 -3.35938,-0.70313 h -3.32031 q -3.67187,0 -5,2.10938 -0.42969,0.74218 -0.42969,1.52343 0,1.91407 2.10938,2.92969 1.40625,0.66406 3.32031,0.66406 z m 0,-19.37499 h -3.32031 q -2.65625,0 -3.55469,2.07031 -0.27343,0.66406 -0.27343,1.40625 0,2.03125 1.71875,2.96875 0.9375,0.50781 2.10937,0.50781 h 3.32031 q 2.61719,0 3.55469,-2.03125 0.3125,-0.70312 0.3125,-1.44531 0,-2.03125 -1.75781,-3.00781 -0.9375,-0.46875 -2.10938,-0.46875 z"
               id="path21794"
               style="stroke:none;stroke-width:4.89258;stroke-linecap:round;stroke-linejoin:round;stroke-miterlimit:4;stroke-dasharray:none;stroke-opacity:1" />
            <path
               d="m 296.60449,146.00348 h -6.60156 l 13.98437,-24.53124 h -14.6875 l -3.16406,-5.15625 h 19.10156 q 4.17969,0 4.41407,3.63281 0,0.19531 0,0.39062 0,2.77344 -1.79688,5.89844 z"
               id="path21796"
               style="stroke:none;stroke-width:4.89258;stroke-linecap:round;stroke-linejoin:round;stroke-miterlimit:4;stroke-dasharray:none;stroke-opacity:1" />
            <path
               d="m 319.96387,131.98005 -0.63432,-3.24219 h 13.48588 v -12.42187 h 6.01562 v 29.68749 h -6.01562 v -12.10937 h -12.85156 v 12.10937 h -5.97657 v -29.68749 h 5.97657 z"
               id="path21798"
               sodipodi:nodetypes="cccccccccccccc"
               style="stroke:none;stroke-width:4.89258;stroke-linecap:round;stroke-linejoin:round;stroke-miterlimit:4;stroke-dasharray:none;stroke-opacity:1" />
            <path
               d="m 362.50293,121.47224 v 24.53124 h -5.97656 v -24.45312 c 0,-1.77083 0.75521,-3.17708 2.26562,-4.21875 1.01563,-0.67708 2.13542,-1.01562 3.35938,-1.01562 h 8.08593 c 3.61979,0 6.52344,1.08073 8.71094,3.24218 1.84896,1.84896 2.77344,4.12761 2.77344,6.83594 v 1.13281 c 0,3.35938 -1.34115,5.98959 -4.02344,7.89063 -2.08333,1.45833 -4.57031,2.1875 -7.46094,2.1875 h -12.56306 l 3.20313,-5.15625 h 9.35993 c 2.44792,0 4.10157,-0.84636 4.96094,-2.53907 0.33854,-0.70312 0.50781,-1.49739 0.50781,-2.38281 v -1.13281 c 0,-2.34375 -1.05469,-3.86718 -3.16406,-4.57031 -0.70313,-0.23437 -1.47136,-0.35156 -2.30469,-0.35156 z"
               id="path21800"
               sodipodi:nodetypes="cccscsscsscsccscssssc"
               style="stroke:none;stroke-width:4.89258;stroke-linecap:round;stroke-linejoin:round;stroke-miterlimit:4;stroke-dasharray:none;stroke-opacity:1" />
            <path
               d="m 390.58887,127.60505 v 7.10937 q 0,3.04688 2.1875,4.88281 1.52343,1.25 3.32031,1.25 h 3.98437 q 2.42188,0 4.10157,-1.64062 0.23437,-0.23438 0.39062,-0.42969 l 5.19531,3.98438 q -2.1875,2.07031 -6.75781,2.92968 -1.60156,0.3125 -2.92969,0.3125 h -3.98437 q -4.84375,0 -8.24219,-3.4375 -3.24219,-3.28125 -3.24219,-7.85156 v -7.10937 q 0,-4.76563 3.4375,-8.08594 3.39844,-3.20312 8.04688,-3.20312 h 3.98437 q 3.78907,0 7.34375,1.67968 1.48438,0.74219 2.34375,1.5625 l -5.19531,4.02344 q -1.36719,-1.75781 -3.78906,-2.07031 -0.39063,-0.0391 -0.70313,-0.0391 h -3.98437 q -2.69531,0 -4.33594,2.38281 -1.17187,1.67969 -1.17187,3.75 z"
               id="path21802"
               style="stroke:none;stroke-width:4.89258;stroke-linecap:round;stroke-linejoin:round;stroke-miterlimit:4;stroke-dasharray:none;stroke-opacity:1" />
            <path
               d="m 434.53418,130.73005 c 2.52604,1.32812 4.01041,3.20312 4.45312,5.625 0.0781,0.44271 0.11719,0.87239 0.11719,1.28906 0,2.44792 -1.05469,4.45312 -3.16406,6.01562 -2.08333,1.5625 -4.79167,2.34375 -8.125,2.34375 h -13.71094 v -24.45312 c 0,-1.77083 0.75521,-3.17708 2.26563,-4.21875 1.01562,-0.67708 2.13541,-1.01562 3.35937,-1.01562 h 8.08594 c 3.64583,0 6.35417,1.19792 8.125,3.59375 1.04167,1.38021 1.5625,2.92968 1.5625,4.64843 0,2.36979 -0.89844,4.34896 -2.69531,5.9375 -0.10417,0.10417 -0.19531,0.18229 -0.27344,0.23438 z m -15.58454,-2.30469 h 8.86579 c 1.74479,0 2.91667,-0.67708 3.51562,-2.03125 0.20833,-0.46875 0.3125,-0.95052 0.3125,-1.44531 0,-1.38021 -0.59896,-2.38281 -1.79687,-3.00781 -0.59896,-0.3125 -1.27604,-0.46875 -2.03125,-0.46875 h -7.73438 v 19.37499 h 7.73438 c 2.44791,0 4.11458,-0.6901 5,-2.07031 0.28646,-0.49479 0.42969,-1.0026 0.42969,-1.52344 0,-1.25 -0.69011,-2.22656 -2.07032,-2.92968 -0.9375,-0.46875 -2.05729,-0.70313 -3.35937,-0.70313 h -12.06891 z"
               id="path21804"
               sodipodi:nodetypes="ccscscscsscscccscsssccscscscc"
               style="stroke:none;stroke-width:4.89258;stroke-linecap:round;stroke-linejoin:round;stroke-miterlimit:4;stroke-dasharray:none;stroke-opacity:1" />
            <path
               d="m 461.40918,121.47224 v 24.53124 h -5.97656 v -24.45312 c 0,-1.77083 0.75521,-3.17708 2.26562,-4.21875 1.01563,-0.67708 2.13542,-1.01562 3.35938,-1.01562 h 8.08593 c 3.61979,0 6.52344,1.08073 8.71094,3.24218 1.84896,1.84896 2.77344,4.12761 2.77344,6.83594 v 1.13281 c 0,3.38542 -1.34115,6.01563 -4.02344,7.89063 -1.01563,0.70312 -2.13542,1.23698 -3.35937,1.60156 l 8.04687,8.98437 h -7.46094 l -7.42187,-8.39843 h -9.89694 l 3.20313,-5.15625 h 9.42818 c 2.44792,0 4.10157,-0.84636 4.96094,-2.53907 0.33854,-0.70312 0.50781,-1.49739 0.50781,-2.38281 v -1.13281 c 0,-2.34375 -1.05469,-3.86718 -3.16406,-4.57031 -0.70313,-0.23437 -1.47136,-0.35156 -2.30469,-0.35156 z"
               id="path21806"
               sodipodi:nodetypes="cccscsscsscccccccscssssc"
               style="stroke:none;stroke-width:4.89258;stroke-linecap:round;stroke-linejoin:round;stroke-miterlimit:4;stroke-dasharray:none;stroke-opacity:1" />
            <path
               d="m 491.25293,133.89411 v 6.95312 h 15.3125 l 2.8125,5.15625 h -18.47656 q -2.85157,0 -4.57032,-2.14843 -1.09375,-1.40625 -1.09375,-3.08594 v -19.21875 q 0,-2.61719 2.26563,-4.17969 1.52344,-1.05468 3.39844,-1.05468 h 18.47656 l -2.8125,5.15625 h -15.3125 v 7.26562 h 14.10156 v 5.15625 z"
               id="path21808"
               style="stroke:none;stroke-width:4.89258;stroke-linecap:round;stroke-linejoin:round;stroke-miterlimit:4;stroke-dasharray:none;stroke-opacity:1" />
            <path
               d="m 526.52637,139.98786 8.28125,-23.67187 h 6.40625 l -8.71094,24.84374 q -1.91406,5.19532 -5.97656,5.23438 -4.0625,-0.0391 -5.9375,-5.23438 l -8.75,-24.84374 h 6.40625 z"
               id="path21810"
               style="stroke:none;stroke-width:4.89258;stroke-linecap:round;stroke-linejoin:round;stroke-miterlimit:4;stroke-dasharray:none;stroke-opacity:1" />
            <path
               d="m 537.89355,144.36286 q 0,-2.03125 1.71875,-3.125 0.9375,-0.58594 1.99219,-0.58594 2.03125,0 3.125,1.71875 0.58594,0.9375 0.58594,1.99219 0,2.03125 -1.71875,3.125 -0.9375,0.58594 -1.99219,0.58594 -2.03125,0 -3.125,-1.71875 -0.58594,-0.9375 -0.58594,-1.99219 z"
               id="path21812"
               style="stroke:none;stroke-width:4.89258;stroke-linecap:round;stroke-linejoin:round;stroke-miterlimit:4;stroke-dasharray:none;stroke-opacity:1" />
            <path
               d="m 567.65918,121.47224 v 24.53124 h -5.97656 v -24.45312 c 0,-1.77083 0.75521,-3.17708 2.26562,-4.21875 1.01563,-0.67708 2.13542,-1.01562 3.35938,-1.01562 h 8.08593 c 3.61979,0 6.52344,1.08073 8.71094,3.24218 1.84896,1.84896 2.77344,4.12761 2.77344,6.83594 v 1.13281 c 0,3.35938 -1.34115,5.98959 -4.02344,7.89063 -2.08333,1.45833 -4.57031,2.1875 -7.46094,2.1875 h -12.56306 l 3.20313,-5.15625 h 9.35993 c 2.44792,0 4.10157,-0.84636 4.96094,-2.53907 0.33854,-0.70312 0.50781,-1.49739 0.50781,-2.38281 v -1.13281 c 0,-2.34375 -1.05469,-3.86718 -3.16406,-4.57031 -0.70313,-0.23437 -1.47136,-0.35156 -2.30469,-0.35156 z"
               id="path21814"
               sodipodi:nodetypes="cccscsscsscsccscssssc"
               style="stroke:none;stroke-width:4.89258;stroke-linecap:round;stroke-linejoin:round;stroke-miterlimit:4;stroke-dasharray:none;stroke-opacity:1" />
            <path
               d="m 597.03418,121.47224 v 24.53124 h -5.97656 v -24.45312 c 0,-1.77083 0.75521,-3.17708 2.26562,-4.21875 1.01563,-0.67708 2.13542,-1.01562 3.35938,-1.01562 h 8.08593 c 3.61979,0 6.52344,1.08073 8.71094,3.24218 1.84896,1.84896 2.77344,4.12761 2.77344,6.83594 v 1.13281 c 0,3.38542 -1.34115,6.01563 -4.02344,7.89063 -1.01563,0.70312 -2.13542,1.23698 -3.35937,1.60156 l 8.04687,8.98437 h -7.46094 l -7.42187,-8.39843 h -9.89694 l 3.20313,-5.15625 h 9.42818 c 2.44792,0 4.10157,-0.84636 4.96094,-2.53907 0.33854,-0.70312 0.50781,-1.49739 0.50781,-2.38281 v -1.13281 c 0,-2.34375 -1.05469,-3.86718 -3.16406,-4.57031 -0.70313,-0.23437 -1.47136,-0.35156 -2.30469,-0.35156 z"
               id="path21816"
               sodipodi:nodetypes="cccscsscsscccccccscssssc"
               style="stroke:none;stroke-width:4.89258;stroke-linecap:round;stroke-linejoin:round;stroke-miterlimit:4;stroke-dasharray:none;stroke-opacity:1" />
            <path
               d="m 626.87793,133.89411 v 6.95312 h 15.3125 l 2.8125,5.15625 h -18.47656 q -2.85157,0 -4.57032,-2.14843 -1.09375,-1.40625 -1.09375,-3.08594 v -19.21875 q 0,-2.61719 2.26563,-4.17969 1.52344,-1.05468 3.39844,-1.05468 h 18.47656 l -2.8125,5.15625 h -15.3125 v 7.26562 h 14.10156 v 5.15625 z"
               id="path21818"
               style="stroke:none;stroke-width:4.89258;stroke-linecap:round;stroke-linejoin:round;stroke-miterlimit:4;stroke-dasharray:none;stroke-opacity:1" />
            <path
               d="m 648.90918,133.89411 v -5.15625 h 15.50781 v 5.15625 z"
               id="path21820"
               style="stroke:none;stroke-width:4.89258;stroke-linecap:round;stroke-linejoin:round;stroke-miterlimit:4;stroke-dasharray:none;stroke-opacity:1" />
            <path
               d="m 678.9873,116.31599 h 3.98438 q 3.78906,0 7.34375,1.67968 1.48437,0.74219 2.34375,1.5625 l -5.19531,4.02344 q -1.36719,-1.75781 -3.78907,-2.07031 -0.39062,-0.0391 -0.70312,-0.0391 h -3.98438 q -2.65625,0 -4.29687,2.38281 -1.13281,1.67969 -1.13281,3.75 v 7.10937 q 0,3.04688 2.1875,4.88281 1.52343,1.25 3.32031,1.25 h 7.69531 v -9.64843 h 6.01563 v 9.57031 q 0,2.65625 -2.26563,4.21875 -1.52344,1.01562 -3.35937,1.01562 h -8.08594 q -4.84375,0 -8.24219,-3.4375 -3.24219,-3.28125 -3.24219,-7.85156 v -7.10937 q 0,-4.80469 3.47657,-8.125 3.32031,-3.16406 7.92968,-3.16406 z"
               id="path21822"
               style="stroke:none;stroke-width:4.89258;stroke-linecap:round;stroke-linejoin:round;stroke-miterlimit:4;stroke-dasharray:none;stroke-opacity:1" />
            <path
               d="M 716.95605,142.05817 H 700.22 l 3.20313,-5.15625 h 11.73605 l -5.07813,-14.57031 -8.28125,23.67187 h -6.40625 l 8.71094,-24.84374 c 1.27604,-3.46355 3.26823,-5.20834 5.97656,-5.23438 2.70833,0.0261 4.6875,1.77086 5.9375,5.23438 l 8.75,24.84374 h -6.40625 z"
               id="path21824"
               sodipodi:nodetypes="ccccccccccccc"
               style="stroke:none;stroke-width:4.89258;stroke-linecap:round;stroke-linejoin:round;stroke-miterlimit:4;stroke-dasharray:none;stroke-opacity:1" />
            <path
               d="m 755.31543,122.4488 -6.64063,19.21875 h -6.32812 l -6.64063,-19.21875 -2.26562,23.55468 h -6.40625 l 2.73437,-24.72656 q 0.39063,-3.32031 3.125,-4.64843 1.13282,-0.50782 2.38282,-0.50782 2.69531,0 4.10156,2.07032 0.35156,0.50781 0.58594,1.09375 l 5.54687,16.24999 5.54688,-16.24999 q 0.89843,-2.42188 3.47656,-3.00782 0.625,-0.15625 1.21094,-0.15625 2.8125,0 4.41406,2.1875 0.89844,1.28907 1.09375,2.96875 l 2.73437,24.72656 h -6.40625 z"
               id="path21826"
               style="stroke:none;stroke-width:4.89258;stroke-linecap:round;stroke-linejoin:round;stroke-miterlimit:4;stroke-dasharray:none;stroke-opacity:1" />
            <path
               d="m 795.74512,122.4488 -6.64063,19.21875 h -6.32812 l -6.64063,-19.21875 -2.26562,23.55468 h -6.40625 l 2.73437,-24.72656 q 0.39063,-3.32031 3.125,-4.64843 1.13281,-0.50782 2.38281,-0.50782 2.69532,0 4.10157,2.07032 0.35156,0.50781 0.58593,1.09375 l 5.54688,16.24999 5.54687,-16.24999 q 0.89844,-2.42188 3.47657,-3.00782 0.625,-0.15625 1.21093,-0.15625 2.8125,0 4.41407,2.1875 0.89843,1.28907 1.09375,2.96875 l 2.73437,24.72656 h -6.40625 z"
               id="path21828"
               style="stroke:none;stroke-width:4.89258;stroke-linecap:round;stroke-linejoin:round;stroke-miterlimit:4;stroke-dasharray:none;stroke-opacity:1" />
            <path
               d="m 827.93262,142.05817 h -16.73606 l 3.20313,-5.15625 h 11.73605 l -5.07812,-14.57031 -8.28125,23.67187 h -6.40625 l 8.71093,-24.84374 c 1.27605,-3.46355 3.26824,-5.20834 5.97657,-5.23438 2.70833,0.0261 4.6875,1.77086 5.9375,5.23438 l 8.75,24.84374 h -6.40625 z"
               id="path21830"
               sodipodi:nodetypes="ccccccccccccc"
               style="stroke:none;stroke-width:4.89258;stroke-linecap:round;stroke-linejoin:round;stroke-miterlimit:4;stroke-dasharray:none;stroke-opacity:1" />
            <path
               d="m 166.2334,184.71442 v -7.10938 q 0,-3.08593 -2.22656,-4.92187 -1.44532,-1.21094 -3.24219,-1.21094 h -7.73438 v 19.375 h 7.73438 q 2.69531,0 4.33594,-2.42187 1.13281,-1.67969 1.13281,-3.71094 z m -19.17969,-13.16406 q 0,-2.65625 2.26563,-4.21875 1.52343,-1.01563 3.35937,-1.01563 h 8.08594 q 4.84375,0 8.24219,3.4375 3.24218,3.28125 3.24218,7.85156 v 7.10938 q 0,4.76562 -3.4375,8.08594 -3.39843,3.20312 -8.04687,3.20312 h -13.71094 z"
               id="path21832"
               style="stroke:none;stroke-width:4.89258;stroke-linecap:round;stroke-linejoin:round;stroke-miterlimit:4;stroke-dasharray:none;stroke-opacity:1" />
            <path
               d="m 182.60059,183.89411 v 6.95312 h 15.3125 l 2.8125,5.15625 h -18.47657 q -2.85156,0 -4.57031,-2.14844 -1.09375,-1.40625 -1.09375,-3.08593 v -19.21875 q 0,-2.61719 2.26563,-4.17969 1.52343,-1.05469 3.39843,-1.05469 h 18.47657 l -2.8125,5.15625 h -15.3125 v 7.26563 h 14.10156 v 5.15625 z"
               id="path21834"
               style="stroke:none;stroke-width:4.89258;stroke-linecap:round;stroke-linejoin:round;stroke-miterlimit:4;stroke-dasharray:none;stroke-opacity:1" />
            <path
               d="m 204.08496,174.79254 q 0,-3.59375 3.35938,-6.09375 3.24218,-2.38281 7.73437,-2.38281 h 3.98438 q 3.63281,0 7.03125,1.67969 1.40625,0.74219 2.26562,1.5625 l -5.23437,4.02344 q -1.28907,-1.79688 -3.51563,-2.07032 -0.27344,-0.0391 -0.54687,-0.0391 h -3.98438 q -2.92969,0 -4.41406,1.64063 -0.66406,0.82031 -0.66406,1.67969 0,1.52343 3.24218,2.61718 1.01563,0.35157 3.4375,0.97657 5.85938,1.52343 8.20313,2.96875 3.82812,2.34375 3.86719,6.17187 0,3.55469 -3.4375,6.05469 -3.39844,2.42187 -8.04688,2.42187 h -3.98437 q -3.78907,0 -7.34375,-1.67968 -1.48438,-0.74219 -2.34375,-1.5625 l 5.15625,-3.98438 q 1.36718,1.71875 3.82812,2.03125 0.39063,0.0391 0.70313,0.0391 h 3.98437 q 3.16406,0 4.76563,-1.67969 0.70312,-0.78125 0.70312,-1.64062 0,-1.71875 -3.24219,-2.85156 -0.46875,-0.19532 -5.66406,-1.60157 -5.97656,-1.60156 -8.125,-3.86718 -1.71875,-1.875 -1.71875,-4.41407 z"
               id="path21836"
               style="stroke:none;stroke-width:4.89258;stroke-linecap:round;stroke-linejoin:round;stroke-miterlimit:4;stroke-dasharray:none;stroke-opacity:1" />
            <path
               d="m 233.81152,166.31598 h 5.97657 v 29.6875 h -5.97657 z"
               id="path21838"
               style="stroke:none;stroke-width:4.89258;stroke-linecap:round;stroke-linejoin:round;stroke-miterlimit:4;stroke-dasharray:none;stroke-opacity:1" />
            <path
               d="m 255.64746,166.31598 h 3.98438 q 3.78906,0 7.34375,1.67969 1.48437,0.74219 2.34375,1.5625 l -5.19532,4.02344 q -1.36718,-1.75782 -3.78906,-2.07032 -0.39062,-0.0391 -0.70312,-0.0391 h -3.98438 q -2.65625,0 -4.29687,2.38282 -1.13282,1.67968 -1.13282,3.75 v 7.10937 q 0,3.04688 2.1875,4.88281 1.52344,1.25 3.32032,1.25 h 7.69531 v -9.64843 h 6.01562 v 9.57031 q 0,2.65625 -2.26562,4.21875 -1.52344,1.01562 -3.35938,1.01562 h -8.08593 q -4.84375,0 -8.24219,-3.4375 -3.24219,-3.28125 -3.24219,-7.85156 v -7.10937 q 0,-4.80469 3.47656,-8.125 3.32032,-3.16407 7.92969,-3.16407 z"
               id="path21840"
               style="stroke:none;stroke-width:4.89258;stroke-linecap:round;stroke-linejoin:round;stroke-miterlimit:4;stroke-dasharray:none;stroke-opacity:1" />
            <path
               d="m 280.64746,166.12067 q 3.28125,0 5.3125,3.82812 0.3125,0.625 0.66406,1.40625 l 8.32032,19.60938 v -24.64844 h 5.97656 v 24.64844 q 0,2.5 -2.38281,4.10156 -1.67969,1.13281 -3.63282,1.13281 -3.28125,0 -5.3125,-3.82812 -0.3125,-0.625 -0.66406,-1.40625 l -8.32031,-19.60938 v 24.64844 h -5.97656 v -24.64844 q 0,-2.5 2.38281,-4.10156 1.67969,-1.13281 3.63281,-1.13281 z"
               id="path21842"
               style="stroke:none;stroke-width:4.89258;stroke-linecap:round;stroke-linejoin:round;stroke-miterlimit:4;stroke-dasharray:none;stroke-opacity:1" />
            <path
               d="m 312.20996,183.89411 v 6.95312 h 15.3125 l 2.8125,5.15625 H 311.8584 q -2.85156,0 -4.57031,-2.14844 -1.09375,-1.40625 -1.09375,-3.08593 v -19.21875 q 0,-2.61719 2.26562,-4.17969 1.52344,-1.05469 3.39844,-1.05469 h 18.47656 l -2.8125,5.15625 h -15.3125 v 7.26563 h 14.10156 v 5.15625 z"
               id="path21844"
               style="stroke:none;stroke-width:4.89258;stroke-linecap:round;stroke-linejoin:round;stroke-miterlimit:4;stroke-dasharray:none;stroke-opacity:1" />
            <path
               d="m 353.85059,184.71442 v -7.10938 q 0,-3.08593 -2.22657,-4.92187 -1.44531,-1.21094 -3.24218,-1.21094 h -7.73438 v 19.375 h 7.73438 q 2.69531,0 4.33593,-2.42187 1.13282,-1.67969 1.13282,-3.71094 z M 334.6709,171.55036 q 0,-2.65625 2.26562,-4.21875 1.52344,-1.01563 3.35938,-1.01563 h 8.08594 q 4.84375,0 8.24218,3.4375 3.24219,3.28125 3.24219,7.85156 v 7.10938 q 0,4.76562 -3.4375,8.08594 -3.39844,3.20312 -8.04687,3.20312 H 334.6709 Z"
               id="path21846"
               style="stroke:none;stroke-width:4.89258;stroke-linecap:round;stroke-linejoin:round;stroke-miterlimit:4;stroke-dasharray:none;stroke-opacity:1" />
            <path
               d="m 396.93652,180.73004 c 2.52605,1.32813 4.01042,3.20313 4.45313,5.625 0.0781,0.44271 0.11719,0.8724 0.11719,1.28907 0,2.44791 -1.05469,4.45312 -3.16407,6.01562 -2.08333,1.5625 -4.79167,2.34375 -8.125,2.34375 h -13.71093 v -24.45312 c 0,-1.77084 0.75521,-3.17709 2.26562,-4.21875 1.01563,-0.67709 2.13542,-1.01563 3.35938,-1.01563 h 8.08593 c 3.64583,0 6.35417,1.19792 8.125,3.59375 1.04167,1.38021 1.5625,2.92969 1.5625,4.64844 0,2.36979 -0.89844,4.34896 -2.69531,5.9375 -0.10417,0.10417 -0.19531,0.18229 -0.27344,0.23437 z m -15.56864,-2.30468 h 8.84989 c 1.74479,0 2.91667,-0.67709 3.51563,-2.03125 0.20833,-0.46875 0.3125,-0.95052 0.3125,-1.44532 0,-1.3802 -0.59896,-2.38281 -1.79688,-3.00781 -0.59895,-0.3125 -1.27604,-0.46875 -2.03125,-0.46875 h -7.73437 v 19.375 h 7.73437 c 2.44792,0 4.11459,-0.6901 5,-2.07031 0.28646,-0.49479 0.42969,-1.00261 0.42969,-1.52344 0,-1.25 -0.6901,-2.22656 -2.07031,-2.92969 -0.9375,-0.46875 -2.05729,-0.70312 -3.35938,-0.70312 h -12.05302 z"
               id="path21848"
               sodipodi:nodetypes="ccscscscsscscccscsssccscscscc"
               style="stroke:none;stroke-width:4.89258;stroke-linecap:round;stroke-linejoin:round;stroke-miterlimit:4;stroke-dasharray:none;stroke-opacity:1" />
            <path
               d="m 417.99121,179.20661 8.28125,-12.89063 h 6.40625 l -8.75,14.0625 q -1.5625,2.42188 -2.89062,3.39844 v 12.22656 h -6.01563 v -12.14844 q -1.52344,-1.09375 -3.00781,-3.47656 l -8.71094,-14.0625 h 6.40625 z"
               id="path21850"
               style="stroke:none;stroke-width:4.89258;stroke-linecap:round;stroke-linejoin:round;stroke-miterlimit:4;stroke-dasharray:none;stroke-opacity:1" />
            <path
               d="m 457.44434,166.31598 h 3.98437 q 3.78906,0 7.34375,1.67969 1.48438,0.74219 2.34375,1.5625 l -5.19531,4.02344 q -1.36719,-1.75782 -3.78906,-2.07032 -0.39063,-0.0391 -0.70313,-0.0391 h -3.98437 q -2.65625,0 -4.29688,2.38282 -1.13281,1.67968 -1.13281,3.75 v 7.10937 q 0,3.04688 2.1875,4.88281 1.52344,1.25 3.32031,1.25 h 7.69531 v -9.64843 h 6.01563 v 9.57031 q 0,2.65625 -2.26563,4.21875 -1.52343,1.01562 -3.35937,1.01562 h -8.08594 q -4.84375,0 -8.24219,-3.4375 -3.24218,-3.28125 -3.24218,-7.85156 v -7.10937 q 0,-4.80469 3.47656,-8.125 3.32031,-3.16407 7.92969,-3.16407 z"
               id="path21852"
               style="stroke:none;stroke-width:4.89258;stroke-linecap:round;stroke-linejoin:round;stroke-miterlimit:4;stroke-dasharray:none;stroke-opacity:1" />
            <path
               d="m 490.68652,196.39411 h -3.98437 q -4.84375,0 -8.24219,-3.4375 -3.24219,-3.28125 -3.24219,-7.85157 v -7.89062 q 0,-4.76563 3.4375,-8.08594 3.39844,-3.20312 8.04688,-3.20312 h 3.98437 q 4.84375,0 8.24219,3.4375 3.24219,3.28125 3.24219,7.85156 v 7.89062 q 0,4.76563 -3.4375,8.08594 -3.39844,3.20313 -8.04688,3.20313 z m -3.98437,-5.15625 h 3.98437 q 2.69532,0 4.33594,-2.42188 1.13281,-1.67969 1.13281,-3.71094 v -7.89062 q 0,-3.08594 -2.22656,-4.92188 -1.44531,-1.21093 -3.24219,-1.21093 h -3.98437 q -2.69531,0 -4.33594,2.38281 -1.17187,1.67969 -1.17187,3.75 v 7.89062 q 0,3.04688 2.1875,4.88282 1.52343,1.25 3.32031,1.25 z"
               id="path21854"
               style="stroke:none;stroke-width:4.89258;stroke-linecap:round;stroke-linejoin:round;stroke-miterlimit:4;stroke-dasharray:none;stroke-opacity:1" />
            <path
               d="m 512.95215,166.12067 q 3.28125,0 5.3125,3.82812 0.3125,0.625 0.66406,1.40625 l 8.32031,19.60938 v -24.64844 h 5.97657 v 24.64844 q 0,2.5 -2.38282,4.10156 -1.67968,1.13281 -3.63281,1.13281 -3.28125,0 -5.3125,-3.82812 -0.3125,-0.625 -0.66406,-1.40625 l -8.32031,-19.60938 v 24.64844 h -5.97657 v -24.64844 q 0,-2.5 2.38282,-4.10156 1.67968,-1.13281 3.63281,-1.13281 z"
               id="path21856"
               style="stroke:none;stroke-width:4.89258;stroke-linecap:round;stroke-linejoin:round;stroke-miterlimit:4;stroke-dasharray:none;stroke-opacity:1" />
            <path
               d="m 557.99121,184.71442 v -7.10938 q 0,-3.08593 -2.22656,-4.92187 -1.44531,-1.21094 -3.24219,-1.21094 h -7.73437 v 19.375 h 7.73437 q 2.69531,0 4.33594,-2.42187 1.13281,-1.67969 1.13281,-3.71094 z m -19.17969,-13.16406 q 0,-2.65625 2.26563,-4.21875 1.52344,-1.01563 3.35937,-1.01563 h 8.08594 q 4.84375,0 8.24219,3.4375 3.24219,3.28125 3.24219,7.85156 v 7.10938 q 0,4.76562 -3.4375,8.08594 -3.39844,3.20312 -8.04688,3.20312 h -13.71094 z"
               id="path21858"
               style="stroke:none;stroke-width:4.89258;stroke-linecap:round;stroke-linejoin:round;stroke-miterlimit:4;stroke-dasharray:none;stroke-opacity:1" />
            <path
               d="m 582.91309,196.39411 h -3.98438 q -4.84375,0 -8.24219,-3.4375 -3.24218,-3.28125 -3.24218,-7.85157 v -7.89062 q 0,-4.76563 3.4375,-8.08594 3.39843,-3.20312 8.04687,-3.20312 h 3.98438 q 4.84375,0 8.24218,3.4375 3.24219,3.28125 3.24219,7.85156 v 7.89062 q 0,4.76563 -3.4375,8.08594 -3.39844,3.20313 -8.04687,3.20313 z m -3.98438,-5.15625 h 3.98438 q 2.69531,0 4.33593,-2.42188 1.13282,-1.67969 1.13282,-3.71094 v -7.89062 q 0,-3.08594 -2.22657,-4.92188 -1.44531,-1.21093 -3.24218,-1.21093 h -3.98438 q -2.69531,0 -4.33594,2.38281 -1.17187,1.67969 -1.17187,3.75 v 7.89062 q 0,3.04688 2.1875,4.88282 1.52344,1.25 3.32031,1.25 z"
               id="path21860"
               style="stroke:none;stroke-width:4.89258;stroke-linecap:round;stroke-linejoin:round;stroke-miterlimit:4;stroke-dasharray:none;stroke-opacity:1" />
            <path
               d="m 605.21777,190.84723 h 14.14063 l 2.77344,5.15625 h -17.26563 q -2.89062,0 -4.57031,-2.1875 -1.05469,-1.36719 -1.05469,-3.04687 v -24.45313 h 5.97656 z"
               id="path21862"
               style="stroke:none;stroke-width:4.89258;stroke-linecap:round;stroke-linejoin:round;stroke-miterlimit:4;stroke-dasharray:none;stroke-opacity:1" />
            <path
               d="m 624.6709,166.31598 h 5.97656 v 29.6875 h -5.97656 z"
               id="path21864"
               style="stroke:none;stroke-width:4.89258;stroke-linecap:round;stroke-linejoin:round;stroke-miterlimit:4;stroke-dasharray:none;stroke-opacity:1" />
            <path
               d="m 642.40527,166.12067 q 3.28125,0 5.3125,3.82812 0.3125,0.625 0.66407,1.40625 l 8.32031,19.60938 v -24.64844 h 5.97656 v 24.64844 q 0,2.5 -2.38281,4.10156 -1.67969,1.13281 -3.63281,1.13281 -3.28125,0 -5.3125,-3.82812 -0.3125,-0.625 -0.66407,-1.40625 l -8.32031,-19.60938 v 24.64844 h -5.97656 v -24.64844 q 0,-2.5 2.38281,-4.10156 1.67969,-1.13281 3.63281,-1.13281 z"
               id="path21866"
               style="stroke:none;stroke-width:4.89258;stroke-linecap:round;stroke-linejoin:round;stroke-miterlimit:4;stroke-dasharray:none;stroke-opacity:1" />
            <path
               d="m 687.44434,184.71442 v -7.10938 q 0,-3.08593 -2.22657,-4.92187 -1.44531,-1.21094 -3.24218,-1.21094 h -7.73438 v 19.375 h 7.73438 q 2.69531,0 4.33593,-2.42187 1.13282,-1.67969 1.13282,-3.71094 z m -19.17969,-13.16406 q 0,-2.65625 2.26562,-4.21875 1.52344,-1.01563 3.35938,-1.01563 h 8.08594 q 4.84375,0 8.24218,3.4375 3.24219,3.28125 3.24219,7.85156 v 7.10938 q 0,4.76562 -3.4375,8.08594 -3.39844,3.20312 -8.04687,3.20312 h -13.71094 z"
               id="path21868"
               style="stroke:none;stroke-width:4.89258;stroke-linecap:round;stroke-linejoin:round;stroke-miterlimit:4;stroke-dasharray:none;stroke-opacity:1" />
            <path
               d="m 704.08496,171.47223 v 24.53125 h -5.97656 v -24.45312 c 0,-1.77084 0.75521,-3.17709 2.26562,-4.21875 1.01563,-0.67709 2.13542,-1.01563 3.35938,-1.01563 h 8.08594 c 3.61979,0 6.52343,1.08073 8.71093,3.24219 1.84896,1.84896 2.77344,4.1276 2.77344,6.83594 v 1.13281 c 0,3.38542 -1.34115,6.01562 -4.02344,7.89062 -1.01562,0.70313 -2.13541,1.23698 -3.35937,1.60157 l 8.04687,8.98437 h -7.46093 l -7.42188,-8.39844 h -9.89693 l 3.20312,-5.15625 h 9.42819 c 2.44791,0 4.10156,-0.84635 4.96093,-2.53906 0.33855,-0.70312 0.50782,-1.49739 0.50782,-2.38281 v -1.13281 c 0,-2.34375 -1.05469,-3.86719 -3.16407,-4.57032 -0.70312,-0.23437 -1.47135,-0.35156 -2.30468,-0.35156 z"
               id="path21870"
               sodipodi:nodetypes="cccscsscsscccccccscssssc"
               style="stroke:none;stroke-width:4.89258;stroke-linecap:round;stroke-linejoin:round;stroke-miterlimit:4;stroke-dasharray:none;stroke-opacity:1" />
            <path
               d="m 728.49902,166.31598 h 5.97657 v 29.6875 h -5.97657 z"
               id="path21872"
               style="stroke:none;stroke-width:4.89258;stroke-linecap:round;stroke-linejoin:round;stroke-miterlimit:4;stroke-dasharray:none;stroke-opacity:1" />
            <path
               d="m 767.44434,172.44879 -6.64063,19.21875 h -6.32812 l -6.64063,-19.21875 -2.26562,23.55469 h -6.40625 l 2.73437,-24.72656 q 0.39063,-3.32031 3.125,-4.64844 1.13281,-0.50781 2.38281,-0.50781 2.69532,0 4.10157,2.07031 0.35156,0.50781 0.58593,1.09375 l 5.54688,16.25 5.54687,-16.25 q 0.89844,-2.42187 3.47657,-3.00781 0.625,-0.15625 1.21093,-0.15625 2.8125,0 4.41407,2.1875 0.89843,1.28906 1.09375,2.96875 l 2.73437,24.72656 h -6.40625 z"
               id="path21874"
               style="stroke:none;stroke-width:4.89258;stroke-linecap:round;stroke-linejoin:round;stroke-miterlimit:4;stroke-dasharray:none;stroke-opacity:1" />
            <g
               id="g21904"
               transform="matrix(1,0,-0.2943109,1,1.3698104,226.50543)"
               style="stroke:none;stroke-width:4.89258;stroke-linecap:round;stroke-linejoin:round;stroke-miterlimit:4;stroke-dasharray:none;stroke-opacity:1">
              <path
                 d="m 249.72949,-10.189453 h 5.97656 v 29.6875 h -5.97656 z"
                 id="path21876"
                 style="stroke:none;stroke-width:4.89258;stroke-linecap:round;stroke-linejoin:round;stroke-miterlimit:4;stroke-dasharray:none;stroke-opacity:1" />
              <path
                 d="m 279.49512,14.341797 h 14.14062 l 2.77344,5.15625 h -17.26563 q -2.89062,0 -4.57031,-2.1875 -1.05469,-1.367188 -1.05469,-3.046875 v -24.453125 h 5.97657 z"
                 id="path21878"
                 style="stroke:none;stroke-width:4.89258;stroke-linecap:round;stroke-linejoin:round;stroke-miterlimit:4;stroke-dasharray:none;stroke-opacity:1" />
              <path
                 d="m 312.93262,19.888672 h -3.98438 q -4.84375,0 -8.24219,-3.4375 -3.24218,-3.28125 -3.24218,-7.8515626 V 0.70898437 q 0,-4.76562497 3.4375,-8.08593747 3.39843,-3.2031249 8.04687,-3.2031249 h 3.98438 q 4.84375,0 8.24218,3.4374999 3.24219,3.28125 3.24219,7.85156247 V 8.5996094 q 0,4.7656246 -3.4375,8.0859376 -3.39844,3.203125 -8.04687,3.203125 z m -3.98438,-5.15625 h 3.98438 q 2.69531,0 4.33593,-2.421875 1.13282,-1.679688 1.13282,-3.7109376 V 0.70898437 q 0,-3.08593747 -2.22657,-4.92187497 -1.44531,-1.2109375 -3.24218,-1.2109375 h -3.98438 q -2.69531,0 -4.33594,2.3828125 -1.17187,1.6796875 -1.17187,3.74999997 V 8.5996094 q 0,3.0468746 2.1875,4.8828126 1.52344,1.25 3.32031,1.25 z"
                 id="path21880"
                 style="stroke:none;stroke-width:4.89258;stroke-linecap:round;stroke-linejoin:round;stroke-miterlimit:4;stroke-dasharray:none;stroke-opacity:1" />
              <path
                 d="m 341.99512,13.482422 8.28125,-23.671875 h 6.40625 l -8.71094,24.84375 q -1.91406,5.195312 -5.97656,5.234375 -4.0625,-0.03906 -5.9375,-5.234375 l -8.75,-24.84375 h 6.40625 z"
                 id="path21882"
                 style="stroke:none;stroke-width:4.89258;stroke-linecap:round;stroke-linejoin:round;stroke-miterlimit:4;stroke-dasharray:none;stroke-opacity:1" />
              <path
                 d="m 365.82324,7.3886719 v 6.9531251 h 15.3125 l 2.8125,5.15625 h -18.47656 q -2.85156,0 -4.57031,-2.148438 -1.09375,-1.40625 -1.09375,-3.085937 V -4.9550781 q 0,-2.6171875 2.26562,-4.1796875 1.52344,-1.0546874 3.39844,-1.0546874 h 18.47656 l -2.8125,5.1562499 h -15.3125 v 7.265625 h 14.10156 v 5.15625 z"
                 id="path21884"
                 style="stroke:none;stroke-width:4.89258;stroke-linecap:round;stroke-linejoin:round;stroke-miterlimit:4;stroke-dasharray:none;stroke-opacity:1" />
              <path
                 d="M 406.25293,7.3886719 V 19.498047 h -5.97656 V -4.9550781 q 0,-2.65625 2.26562,-4.21875 1.52344,-1.0156249 3.35938,-1.0156249 h 18.47656 l -2.8125,5.1562499 h -15.3125 v 7.265625 h 14.14062 v 5.15625 z"
                 id="path21886"
                 style="stroke:none;stroke-width:4.89258;stroke-linecap:round;stroke-linejoin:round;stroke-miterlimit:4;stroke-dasharray:none;stroke-opacity:1" />
              <path
                 d="M 433.3623,-5.0332031 V 19.498047 h -5.97656 V -4.9550781 c 0,-1.7708333 0.75521,-3.1770833 2.26563,-4.21875 1.01562,-0.6770833 2.13541,-1.0156249 3.35937,-1.0156249 h 8.08594 c 3.61979,0 6.52344,1.0807291 8.71094,3.2421874 1.84895,1.8489583 2.77343,4.1276042 2.77343,6.83593748 V 1.0214844 c 0,3.3854167 -1.34114,6.015625 -4.02343,7.890625 -1.01563,0.703125 -2.13542,1.2369796 -3.35938,1.6015626 l 8.04688,8.984375 h -7.46094 l -7.42188,-8.398438 h -9.29056 l 3.20312,-5.1562496 h 8.82182 c 2.44791,0 4.10156,-0.8463542 4.96094,-2.5390625 0.33854,-0.703125 0.50781,-1.4973958 0.50781,-2.3828125 v -1.13281252 c 0,-2.34374998 -1.05469,-3.86718748 -3.16406,-4.57031248 -0.70313,-0.234375 -1.47136,-0.3515625 -2.30469,-0.3515625 z"
                 id="path21888"
                 sodipodi:nodetypes="cccscsscsscccccccscssssc"
                 style="stroke:none;stroke-width:4.89258;stroke-linecap:round;stroke-linejoin:round;stroke-miterlimit:4;stroke-dasharray:none;stroke-opacity:1" />
              <path
                 d="m 471.76074,19.888672 h -3.98437 q -4.84375,0 -8.24219,-3.4375 -3.24219,-3.28125 -3.24219,-7.8515626 V 0.70898437 q 0,-4.76562497 3.4375,-8.08593747 3.39844,-3.2031249 8.04688,-3.2031249 h 3.98437 q 4.84375,0 8.24219,3.4374999 3.24219,3.28125 3.24219,7.85156247 V 8.5996094 q 0,4.7656246 -3.4375,8.0859376 -3.39844,3.203125 -8.04688,3.203125 z m -3.98437,-5.15625 h 3.98437 q 2.69531,0 4.33594,-2.421875 1.13281,-1.679688 1.13281,-3.7109376 V 0.70898437 q 0,-3.08593747 -2.22656,-4.92187497 -1.44531,-1.2109375 -3.24219,-1.2109375 h -3.98437 q -2.69532,0 -4.33594,2.3828125 -1.17188,1.6796875 -1.17188,3.74999997 V 8.5996094 q 0,3.0468746 2.1875,4.8828126 1.52344,1.25 3.32032,1.25 z"
                 id="path21890"
                 style="stroke:none;stroke-width:4.89258;stroke-linecap:round;stroke-linejoin:round;stroke-miterlimit:4;stroke-dasharray:none;stroke-opacity:1" />
              <path
                 d="m 498.12793,-10.189453 h 3.98437 q 3.78907,0 7.34375,1.6796874 1.48438,0.7421875 2.34375,1.5625 l -5.19531,4.0234375 q -1.36719,-1.7578125 -3.78906,-2.0703125 -0.39063,-0.039063 -0.70313,-0.039063 h -3.98437 q -2.65625,0 -4.29688,2.3828125 -1.13281,1.67968747 -1.13281,3.75 v 7.109375 q 0,3.0468751 2.1875,4.8828131 1.52344,1.25 3.32031,1.25 h 7.69532 V 4.6933594 h 6.01562 v 9.5703126 q 0,2.65625 -2.26562,4.21875 -1.52344,1.015625 -3.35938,1.015625 h -8.08594 q -4.84375,0 -8.24218,-3.4375 -3.24219,-3.28125 -3.24219,-7.8515626 v -7.109375 q 0,-4.8046875 3.47656,-8.125 3.32031,-3.1640624 7.92969,-3.1640624 z"
                 id="path21892"
                 style="stroke:none;stroke-width:4.89258;stroke-linecap:round;stroke-linejoin:round;stroke-miterlimit:4;stroke-dasharray:none;stroke-opacity:1" />
              <path
                 d="m 548.28418,8.2089844 v -7.109375 q 0,-3.0859375 -2.22656,-4.921875 -1.44532,-1.2109375 -3.24219,-1.2109375 h -7.73438 V 14.341797 h 7.73438 q 2.69531,0 4.33594,-2.421875 1.13281,-1.679688 1.13281,-3.7109376 z M 529.10449,-4.9550781 q 0,-2.65625 2.26563,-4.21875 1.52343,-1.0156249 3.35937,-1.0156249 h 8.08594 q 4.84375,0 8.24219,3.4374999 3.24218,3.28125 3.24218,7.8515625 v 7.109375 q 0,4.7656246 -3.4375,8.0859376 -3.39843,3.203125 -8.04687,3.203125 h -13.71094 z"
                 id="path21894"
                 style="stroke:none;stroke-width:4.89258;stroke-linecap:round;stroke-linejoin:round;stroke-miterlimit:4;stroke-dasharray:none;stroke-opacity:1" />
              <path
                 d="m 577.93262,15.552734 h -16.73606 l 3.20313,-5.15625 h 11.73605 l -5.07812,-14.5703121 -8.28125,23.6718751 h -6.40625 l 8.71093,-24.8437501 c 1.27605,-3.4635419 3.26824,-5.2083339 5.97657,-5.2343749 2.70833,0.02604 4.6875,1.7708316 5.9375,5.2343749 l 8.75,24.8437501 h -6.40625 z"
                 id="path21896"
                 sodipodi:nodetypes="ccccccccccccc"
                 style="stroke:none;stroke-width:4.89258;stroke-linecap:round;stroke-linejoin:round;stroke-miterlimit:4;stroke-dasharray:none;stroke-opacity:1" />
              <path
                 d="m 608.24512,8.2089844 v -7.109375 q 0,-3.0859375 -2.22657,-4.921875 -1.44531,-1.2109375 -3.24218,-1.2109375 h -7.73438 V 14.341797 h 7.73438 q 2.69531,0 4.33593,-2.421875 1.13282,-1.679688 1.13282,-3.7109376 z M 589.06543,-4.9550781 q 0,-2.65625 2.26562,-4.21875 1.52344,-1.0156249 3.35938,-1.0156249 h 8.08594 q 4.84375,0 8.24218,3.4374999 3.24219,3.28125 3.24219,7.8515625 v 7.109375 q 0,4.7656246 -3.4375,8.0859376 -3.39844,3.203125 -8.04687,3.203125 h -13.71094 z"
                 id="path21898"
                 style="stroke:none;stroke-width:4.89258;stroke-linecap:round;stroke-linejoin:round;stroke-miterlimit:4;stroke-dasharray:none;stroke-opacity:1" />
              <path
                 d="m 638.08887,8.2089844 v -7.109375 q 0,-3.0859375 -2.22657,-4.921875 -1.44531,-1.2109375 -3.24218,-1.2109375 h -7.73438 V 14.341797 h 7.73438 q 2.69531,0 4.33593,-2.421875 1.13282,-1.679688 1.13282,-3.7109376 z M 618.90918,-4.9550781 q 0,-2.65625 2.26562,-4.21875 1.52344,-1.0156249 3.35938,-1.0156249 h 8.08594 q 4.84375,0 8.24218,3.4374999 3.24219,3.28125 3.24219,7.8515625 v 7.109375 q 0,4.7656246 -3.4375,8.0859376 -3.39844,3.203125 -8.04687,3.203125 h -13.71094 z"
                 id="path21900"
                 style="stroke:none;stroke-width:4.89258;stroke-linecap:round;stroke-linejoin:round;stroke-miterlimit:4;stroke-dasharray:none;stroke-opacity:1" />
              <path
                 d="m 660.90137,2.7011719 8.28125,-12.8906249 h 6.40625 l -8.75,14.0624999 q -1.5625,2.421875 -2.89063,3.3984375 V 19.498047 h -6.01562 V 7.3496094 q -1.52344,-1.09375 -3.00782,-3.4765625 l -8.71093,-14.0624999 h 6.40625 z"
                 id="path21902"
                 style="stroke:none;stroke-width:4.89258;stroke-linecap:round;stroke-linejoin:round;stroke-miterlimit:4;stroke-dasharray:none;stroke-opacity:1" />
            </g>
          </g>
        </g>
      </g>
    </g>
  </g>
</svg>
