<?xml version="1.0" encoding="UTF-8" standalone="no"?>
<svg
   width="33.633194mm"
   height="6.3499994mm"
   viewBox="0 0 33.633193 6.3499996"
   version="1.1"
   id="svg8"
   inkscape:version="1.1.1 (3bf5ae0d25, 2021-09-20, custom)"
   sodipodi:docname="apollo87h_label.svg"
   inkscape:export-filename="/home/alvaro/Desktop/AcheronProject/Apollo87H/resources/apollo87h_label_no_outline.png"
   inkscape:export-xdpi="5000"
   inkscape:export-ydpi="5000"
   xmlns:inkscape="http://www.inkscape.org/namespaces/inkscape"
   xmlns:sodipodi="http://sodipodi.sourceforge.net/DTD/sodipodi-0.dtd"
   xmlns="http://www.w3.org/2000/svg"
   xmlns:svg="http://www.w3.org/2000/svg"
   xmlns:rdf="http://www.w3.org/1999/02/22-rdf-syntax-ns#"
   xmlns:cc="http://creativecommons.org/ns#"
   xmlns:dc="http://purl.org/dc/elements/1.1/">
  <defs
     id="defs2">
    <rect
       x="-8.3373413"
       y="52.204136"
       width="202.7422"
       height="114.19224"
       id="rect2634" />
    <rect
       x="55.171597"
       y="-117.49468"
       width="812.12262"
       height="274.33664"
       id="rect2831" />
    <rect
       x="-208.05171"
       y="110.20891"
       width="508.40088"
       height="11.106036"
       id="rect12" />
    <rect
       x="-208.05171"
       y="110.20891"
       width="424.19156"
       height="15.861772"
       id="rect74" />
    <rect
       x="-208.05171"
       y="110.20891"
       width="508.40088"
       height="11.106036"
       id="rect172" />
    <rect
       x="-208.05171"
       y="110.20891"
       width="508.40088"
       height="11.106036"
       id="rect2326" />
    <rect
       x="55.171597"
       y="-117.49468"
       width="812.12262"
       height="274.33664"
       id="rect20391" />
    <rect
       x="-8.3373413"
       y="52.204136"
       width="202.7422"
       height="114.19224"
       id="rect34814" />
  </defs>
  <sodipodi:namedview
     id="base"
     pagecolor="#ffffff"
     bordercolor="#666666"
     borderopacity="1.0"
     inkscape:pageopacity="0.0"
     inkscape:pageshadow="2"
     inkscape:zoom="3.9999998"
     inkscape:cx="93.625005"
     inkscape:cy="52.375003"
     inkscape:document-units="mm"
     inkscape:current-layer="text20389"
     inkscape:document-rotation="0"
     showgrid="false"
     inkscape:window-width="1920"
     inkscape:window-height="1043"
     inkscape:window-x="1920"
     inkscape:window-y="293"
     inkscape:window-maximized="1"
     inkscape:pagecheckerboard="0" />
  <metadata
     id="metadata5">
    <rdf:RDF>
      <cc:Work
         rdf:about="">
        <dc:format>image/svg+xml</dc:format>
        <dc:type
           rdf:resource="http://purl.org/dc/dcmitype/StillImage" />
      </cc:Work>
    </rdf:RDF>
  </metadata>
  <g
     inkscape:label="Layer 1"
     inkscape:groupmode="layer"
     id="layer1"
     transform="translate(198.83072,-108.5006)">
    <g
       aria-label="Apollo87H PCB rev. pre-GAMMA | Designed by Gondolindrim | I love frog daddy "
       transform="matrix(0.11979523,0,0,0.11979523,-183.11819,101.28276)"
       id="text2324"
       style="font-size:10.5833px;line-height:1;letter-spacing:0px;word-spacing:0px;white-space:pre;shape-inside:url(#rect2326);stroke:#000000;stroke-width:0;stroke-miterlimit:4;stroke-dasharray:none;stroke-opacity:1">
      <g
         id="g4567"
         style="stroke:#000000;stroke-width:0;stroke-linecap:round;stroke-linejoin:round;stroke-miterlimit:4;stroke-dasharray:none;stroke-opacity:1">
        <g
           aria-label="Apollo87H pcb rev. pre-gamma Designed by Gondolindrim I love frog daddy"
           transform="matrix(2.20863,0,0,2.20863,-695.30495,398.30184)"
           id="text20389"
           style="font-size:40px;line-height:1.25;font-family:'a Astro Space';-inkscape-font-specification:'a Astro Space';text-align:center;text-anchor:middle;shape-inside:url(#rect20391);stroke:none">
          <text
             xml:space="preserve"
             transform="translate(228.53959,-240.74656)"
             id="text2632"
             style="font-style:normal;font-weight:normal;font-size:5.33333px;line-height:1.25;font-family:sans-serif;white-space:pre;shape-inside:url(#rect2634);fill:#000000;fill-opacity:1;stroke:none"><tspan
               x="42.561879"
               y="57.137367"
               id="tspan36597"><tspan
                 style="font-family:'a Astro Space'"
                 id="tspan36595">Apollo87h PCB rev. gamma - rc1
</tspan></tspan><tspan
               x="50.793645"
               y="64.181655"
               id="tspan36601"><tspan
                 style="font-family:'a Astro Space'"
                 id="tspan36599">designed by Gondolindrim
</tspan></tspan><tspan
               x="64.447283"
               y="71.225944"
               id="tspan36605"><tspan
                 style="font-family:'a Astro Space'"
                 id="tspan36603">I love frog daddy</tspan></tspan></text>
          <g
             id="g36158">
            <g
               aria-label="Apollo87h PCB rev. gamma - rc1
designed by Gondolindrim
I love frog daddy"
               transform="matrix(1.2493566,0,0,1.2493566,237.94136,-175.3956)"
               id="text34812"
               style="font-size:5.33333px;font-family:sans-serif;shape-inside:url(#rect34814)">
              <g
                 id="g35765"
                 transform="translate(-27.966493,-34.643312)">
                <path
                   d="m 45.442086,56.611325 h -2.297694 l 0.427083,-0.687499 h 1.631027 l -0.677082,-1.942707 -1.104166,3.156248 h -0.854167 l 1.161458,-3.312498 c 0.170139,-0.461805 0.435764,-0.694444 0.796875,-0.697916 0.361111,0.0035 0.624999,0.236105 0.791666,0.697916 l 1.166666,3.312498 h -0.854166 z"
                   style="font-family:'a Astro Space';stroke:#000000;stroke-width:0.30251791;stroke-linecap:round;stroke-linejoin:round;stroke-miterlimit:4;stroke-dasharray:none;stroke-opacity:1"
                   id="path34816"
                   sodipodi:nodetypes="ccccccccccccc" />
                <path
                   d="m 47.723334,53.866535 v 3.270832 H 46.92646 v -3.260415 c 0,-0.236111 0.100694,-0.423611 0.302083,-0.5625 0.135417,-0.09028 0.284722,-0.135416 0.447916,-0.135416 h 1.078125 c 0.482639,0 0.869791,0.144097 1.161457,0.432291 0.246528,0.246528 0.369792,0.550347 0.369792,0.911458 v 0.151042 c 0,0.447916 -0.178819,0.79861 -0.536458,1.052082 -0.277778,0.194445 -0.609375,0.291667 -0.994791,0.291667 h -1.590421 l 0.427083,-0.6875 h 1.163338 c 0.326389,0 0.546875,-0.112847 0.661458,-0.338541 0.04514,-0.09375 0.06771,-0.199653 0.06771,-0.317708 v -0.151042 c 0,-0.3125 -0.140625,-0.515625 -0.421875,-0.609375 -0.09375,-0.03125 -0.19618,-0.04687 -0.307291,-0.04687 z"
                   style="font-family:'a Astro Space';stroke:#000000;stroke-width:0.30251791;stroke-linecap:round;stroke-linejoin:round;stroke-miterlimit:4;stroke-dasharray:none;stroke-opacity:1"
                   id="path34818"
                   sodipodi:nodetypes="cccscsscsscsccscssssc" />
                <path
                   d="m 52.744165,57.18945 h -0.53125 q -0.645833,0 -1.098957,-0.458333 -0.432292,-0.4375 -0.432292,-1.046874 V 54.63216 q 0,-0.635416 0.458333,-1.078124 0.453125,-0.427083 1.072916,-0.427083 h 0.53125 q 0.645833,0 1.098958,0.458333 0.432291,0.437499 0.432291,1.046874 v 1.052083 q 0,0.635416 -0.458333,1.078124 -0.453125,0.427083 -1.072916,0.427083 z m -0.53125,-0.687499 h 0.53125 q 0.359375,0 0.578125,-0.322917 0.151041,-0.223958 0.151041,-0.494791 V 54.63216 q 0,-0.411458 -0.296875,-0.65625 -0.192708,-0.161458 -0.432291,-0.161458 h -0.53125 q -0.359375,0 -0.578124,0.317708 -0.15625,0.223959 -0.15625,0.5 v 1.052083 q 0,0.406249 0.291666,0.651041 0.203125,0.166667 0.442708,0.166667 z"
                   style="font-family:'a Astro Space';stroke:#000000;stroke-width:0.30251791;stroke-linecap:round;stroke-linejoin:round;stroke-miterlimit:4;stroke-dasharray:none;stroke-opacity:1"
                   id="path34820" />
                <path
                   d="m 55.718122,56.449867 h 1.885415 l 0.369792,0.6875 h -2.302082 q -0.385417,0 -0.609375,-0.291667 -0.140625,-0.182291 -0.140625,-0.406249 v -3.260415 h 0.796875 z"
                   style="font-family:'a Astro Space';stroke:#000000;stroke-width:0.30251791;stroke-linecap:round;stroke-linejoin:round;stroke-miterlimit:4;stroke-dasharray:none;stroke-opacity:1"
                   id="path34822" />
                <path
                   d="m 59.082703,56.449867 h 1.885415 l 0.369792,0.6875 h -2.302082 q -0.385417,0 -0.609375,-0.291667 -0.140625,-0.182291 -0.140625,-0.406249 v -3.260415 h 0.796875 z"
                   style="font-family:'a Astro Space';stroke:#000000;stroke-width:0.30251791;stroke-linecap:round;stroke-linejoin:round;stroke-miterlimit:4;stroke-dasharray:none;stroke-opacity:1"
                   id="path34824" />
                <path
                   d="m 63.541034,57.18945 h -0.531249 q -0.645833,0 -1.098958,-0.458333 -0.432292,-0.4375 -0.432292,-1.046874 V 54.63216 q 0,-0.635416 0.458333,-1.078124 0.453125,-0.427083 1.072917,-0.427083 h 0.531249 q 0.645833,0 1.098958,0.458333 0.432291,0.437499 0.432291,1.046874 v 1.052083 q 0,0.635416 -0.458333,1.078124 -0.453125,0.427083 -1.072916,0.427083 z m -0.531249,-0.687499 h 0.531249 q 0.359375,0 0.578125,-0.322917 Q 64.2702,55.955076 64.2702,55.684243 V 54.63216 q 0,-0.411458 -0.296874,-0.65625 -0.192709,-0.161458 -0.432292,-0.161458 h -0.531249 q -0.359375,0 -0.578125,0.317708 -0.15625,0.223959 -0.15625,0.5 v 1.052083 q 0,0.406249 0.291666,0.651041 0.203125,0.166667 0.442709,0.166667 z"
                   style="font-family:'a Astro Space';stroke:#000000;stroke-width:0.30251791;stroke-linecap:round;stroke-linejoin:round;stroke-miterlimit:4;stroke-dasharray:none;stroke-opacity:1"
                   id="path34826" />
                <path
                   d="m 67.624364,57.137367 h -0.442708 q -0.859374,0 -1.270832,-0.489583 -0.234375,-0.276042 -0.234375,-0.625 0,-0.494791 0.4375,-0.817708 0.08333,-0.05729 0.171874,-0.104166 -0.374999,-0.348958 -0.395833,-0.822916 0,-0.484375 0.380208,-0.802083 0.354167,-0.296875 0.911458,-0.296875 h 0.442708 q 0.729167,0 1.083333,0.479166 0.208333,0.276042 0.208333,0.619792 0,0.473958 -0.359375,0.791666 -0.02083,0.02083 -0.03646,0.03125 0.505208,0.265625 0.59375,0.749999 0.01563,0.08854 0.01563,0.171875 0,0.489583 -0.421875,0.802083 -0.416666,0.3125 -1.083333,0.3125 z m 0,-0.6875 q 0.489583,0 0.666667,-0.276041 0.05729,-0.09896 0.05729,-0.203125 0,-0.25 -0.276041,-0.390625 -0.1875,-0.09375 -0.447917,-0.09375 h -0.442708 q -0.489583,0 -0.666666,0.28125 -0.05729,0.09896 -0.05729,0.203125 0,0.255208 0.28125,0.390625 0.1875,0.08854 0.442708,0.08854 z m 0,-2.583332 h -0.442708 q -0.354166,0 -0.473958,0.276042 -0.03646,0.08854 -0.03646,0.1875 0,0.270833 0.229166,0.395833 0.125,0.06771 0.28125,0.06771 h 0.442708 q 0.348958,0 0.473958,-0.270833 0.04167,-0.09375 0.04167,-0.192708 0,-0.270833 -0.234375,-0.401042 -0.125,-0.0625 -0.28125,-0.0625 z"
                   style="font-family:'a Astro Space';stroke:#000000;stroke-width:0.30251791;stroke-linecap:round;stroke-linejoin:round;stroke-miterlimit:4;stroke-dasharray:none;stroke-opacity:1"
                   id="path34828" />
                <path
                   d="m 70.639987,57.137367 h -0.880208 l 1.864582,-3.270832 h -1.958332 l -0.421875,-0.687499 h 2.546874 q 0.557291,0 0.588541,0.484375 0,0.02604 0,0.05208 0,0.369791 -0.239583,0.786458 z"
                   style="font-family:'a Astro Space';stroke:#000000;stroke-width:0.30251791;stroke-linecap:round;stroke-linejoin:round;stroke-miterlimit:4;stroke-dasharray:none;stroke-opacity:1"
                   id="path34830" />
                <path
                   d="m 73.754569,55.267576 -0.340422,-0.432291 h 2.053963 v -1.656249 h 0.802082 v 3.958331 H 75.46811 v -1.614583 h -1.713541 v 1.614583 h -0.796875 v -3.958331 h 0.796875 z"
                   style="font-family:'a Astro Space';stroke:#000000;stroke-width:0.30251791;stroke-linecap:round;stroke-linejoin:round;stroke-miterlimit:4;stroke-dasharray:none;stroke-opacity:1"
                   id="path34832"
                   sodipodi:nodetypes="cccccccccccccc" />
                <path
                   d="m 79.426443,53.866535 v 3.270832 h -0.796875 v -3.260415 c 0,-0.236111 0.100694,-0.423611 0.302083,-0.5625 0.135417,-0.09028 0.284722,-0.135416 0.447917,-0.135416 h 1.078124 c 0.482639,0 0.869791,0.144097 1.161458,0.432291 0.246527,0.246528 0.369791,0.550347 0.369791,0.911458 v 0.151042 c 0,0.447916 -0.178819,0.79861 -0.536458,1.052082 -0.277777,0.194445 -0.609374,0.291667 -0.994791,0.291667 h -1.590421 l 0.427083,-0.6875 h 1.163338 c 0.326389,0 0.546875,-0.112847 0.661458,-0.338541 0.04514,-0.09375 0.06771,-0.199653 0.06771,-0.317708 v -0.151042 c 0,-0.3125 -0.140625,-0.515625 -0.421875,-0.609375 -0.09375,-0.03125 -0.19618,-0.04687 -0.307291,-0.04687 z"
                   style="font-family:'a Astro Space';stroke:#000000;stroke-width:0.30251791;stroke-linecap:round;stroke-linejoin:round;stroke-miterlimit:4;stroke-dasharray:none;stroke-opacity:1"
                   id="path34834"
                   sodipodi:nodetypes="cccscsscsscsccscssssc" />
                <path
                   d="m 83.171232,54.684243 v 0.947916 q 0,0.40625 0.291666,0.651042 0.203125,0.166666 0.442708,0.166666 h 0.53125 q 0.322917,0 0.546875,-0.21875 0.03125,-0.03125 0.05208,-0.05729 l 0.692708,0.531249 q -0.291667,0.276042 -0.901041,0.390625 -0.213542,0.04167 -0.390625,0.04167 h -0.53125 q -0.645833,0 -1.098957,-0.458333 -0.432292,-0.4375 -0.432292,-1.046875 v -0.947916 q 0,-0.635416 0.458333,-1.078124 0.453125,-0.427083 1.072916,-0.427083 h 0.53125 q 0.505208,0 0.979166,0.223958 0.197917,0.09896 0.3125,0.208333 l -0.692708,0.536458 q -0.182291,-0.234375 -0.505208,-0.276041 -0.05208,-0.0052 -0.09375,-0.0052 h -0.53125 q -0.359374,0 -0.578124,0.317709 -0.15625,0.223958 -0.15625,0.499999 z"
                   style="font-family:'a Astro Space';stroke:#000000;stroke-width:0.30251791;stroke-linecap:round;stroke-linejoin:round;stroke-miterlimit:4;stroke-dasharray:none;stroke-opacity:1"
                   id="path34836" />
                <path
                   d="m 89.030603,55.10091 c 0.336805,0.177083 0.534722,0.427083 0.59375,0.749999 0.01042,0.05903 0.01563,0.116318 0.01563,0.171875 0,0.326389 -0.140625,0.59375 -0.421875,0.802083 -0.277777,0.208333 -0.638888,0.3125 -1.083333,0.3125 h -1.828124 v -3.260415 c 0,-0.236111 0.100694,-0.423611 0.302083,-0.5625 0.135417,-0.09028 0.284722,-0.135416 0.447917,-0.135416 h 1.078124 c 0.486111,0 0.847222,0.159722 1.083333,0.479166 0.138889,0.184028 0.208333,0.390625 0.208333,0.619792 0,0.315972 -0.119792,0.579861 -0.359375,0.791666 -0.01389,0.01389 -0.02604,0.0243 -0.03646,0.03125 z m -2.059171,-0.307292 h 1.163338 c 0.232639,0 0.388889,-0.09028 0.46875,-0.270833 0.02778,-0.0625 0.04167,-0.126736 0.04167,-0.192708 0,-0.184028 -0.07986,-0.317709 -0.239584,-0.401042 -0.07986,-0.04167 -0.170138,-0.0625 -0.270833,-0.0625 h -1.031249 v 2.583332 h 1.031249 c 0.326389,0 0.548611,-0.09201 0.666667,-0.276041 0.03819,-0.06597 0.05729,-0.133682 0.05729,-0.203125 0,-0.166667 -0.09201,-0.296875 -0.276041,-0.390625 -0.125,-0.0625 -0.274306,-0.09375 -0.447917,-0.09375 h -1.590421 z"
                   style="font-family:'a Astro Space';stroke:#000000;stroke-width:0.30251791;stroke-linecap:round;stroke-linejoin:round;stroke-miterlimit:4;stroke-dasharray:none;stroke-opacity:1"
                   id="path34838"
                   sodipodi:nodetypes="scscscscsscscsscscsssccscscscc" />
                <path
                   d="m 92.613931,53.866535 v 3.270832 h -0.796874 v -3.260415 c 0,-0.236111 0.100694,-0.423611 0.302083,-0.5625 0.135417,-0.09028 0.284722,-0.135416 0.447916,-0.135416 h 1.078125 c 0.482638,0 0.86979,0.144097 1.161457,0.432291 0.246528,0.246528 0.369792,0.550347 0.369792,0.911458 v 0.151042 c 0,0.451389 -0.178819,0.802083 -0.536458,1.052082 -0.135417,0.09375 -0.284722,0.164931 -0.447917,0.213542 l 1.072916,1.197916 H 94.27018 l -0.989583,-1.119791 h -1.225838 l 0.427084,-0.6875 h 1.163338 c 0.326389,0 0.546874,-0.112847 0.661457,-0.338541 0.04514,-0.09375 0.06771,-0.199653 0.06771,-0.317708 v -0.151042 c 0,-0.3125 -0.140625,-0.515625 -0.421875,-0.609375 -0.09375,-0.03125 -0.19618,-0.04687 -0.307291,-0.04687 z"
                   style="font-family:'a Astro Space';stroke:#000000;stroke-width:0.30251791;stroke-linecap:round;stroke-linejoin:round;stroke-miterlimit:4;stroke-dasharray:none;stroke-opacity:1"
                   id="path34840"
                   sodipodi:nodetypes="cccscsscsscccccccscssssc" />
                <path
                   d="m 96.593098,55.522784 v 0.927083 h 2.041665 l 0.375,0.6875 h -2.46354 q -0.380208,0 -0.609375,-0.286458 -0.145833,-0.1875 -0.145833,-0.411458 v -2.562499 q 0,-0.348958 0.302083,-0.557291 0.203125,-0.140625 0.453125,-0.140625 h 2.46354 l -0.375,0.687499 h -2.041665 v 0.96875 h 1.880207 v 0.687499 z"
                   style="font-family:'a Astro Space';stroke:#000000;stroke-width:0.30251791;stroke-linecap:round;stroke-linejoin:round;stroke-miterlimit:4;stroke-dasharray:none;stroke-opacity:1"
                   id="path34842" />
                <path
                   d="m 101.29622,56.335284 1.10417,-3.156248 h 0.85416 l -1.16145,3.312498 q -0.25521,0.692708 -0.79688,0.697916 -0.54167,-0.0052 -0.79167,-0.697916 l -1.166661,-3.312498 h 0.854171 z"
                   style="font-family:'a Astro Space';stroke:#000000;stroke-width:0.30251791;stroke-linecap:round;stroke-linejoin:round;stroke-miterlimit:4;stroke-dasharray:none;stroke-opacity:1"
                   id="path34844" />
                <path
                   d="m 102.81184,56.918617 q 0,-0.270833 0.22917,-0.416666 0.125,-0.07813 0.26562,-0.07813 0.27084,0 0.41667,0.229166 0.0781,0.125 0.0781,0.265625 0,0.270833 -0.22917,0.416666 -0.125,0.07813 -0.26563,0.07813 -0.27083,0 -0.41666,-0.229166 -0.0781,-0.125 -0.0781,-0.265625 z"
                   style="font-family:'a Astro Space';stroke:#000000;stroke-width:0.30251791;stroke-linecap:round;stroke-linejoin:round;stroke-miterlimit:4;stroke-dasharray:none;stroke-opacity:1"
                   id="path34846" />
                <path
                   d="m 107.33267,53.179036 h 0.53125 q 0.50521,0 0.97917,0.223958 0.19792,0.09896 0.3125,0.208333 l -0.69271,0.536458 q -0.18229,-0.234375 -0.50521,-0.276041 -0.0521,-0.0052 -0.0937,-0.0052 h -0.53125 q -0.35416,0 -0.57291,0.317709 -0.15104,0.223958 -0.15104,0.499999 v 0.947916 q 0,0.40625 0.29166,0.651042 0.20313,0.166666 0.44271,0.166666 h 1.02604 V 55.16341 h 0.80209 v 1.276041 q 0,0.354166 -0.30209,0.562499 -0.20312,0.135417 -0.44791,0.135417 h -1.07813 q -0.64583,0 -1.09896,-0.458333 -0.43229,-0.4375 -0.43229,-1.046875 v -0.947916 q 0,-0.640624 0.46354,-1.083332 0.44271,-0.421875 1.05729,-0.421875 z"
                   style="font-family:'a Astro Space';stroke:#000000;stroke-width:0.30251791;stroke-linecap:round;stroke-linejoin:round;stroke-miterlimit:4;stroke-dasharray:none;stroke-opacity:1"
                   id="path34848" />
                <path
                   d="m 112.39517,56.611325 h -2.34562 l 0.42708,-0.687499 h 1.67896 l -0.67708,-1.942707 -1.10417,3.156248 h -0.85417 l 1.16146,-3.312498 c 0.17014,-0.461805 0.43577,-0.694444 0.79688,-0.697916 0.36111,0.0035 0.62499,0.236105 0.79166,0.697916 l 1.16667,3.312498 h -0.85417 z"
                   style="font-family:'a Astro Space';stroke:#000000;stroke-width:0.30251791;stroke-linecap:round;stroke-linejoin:round;stroke-miterlimit:4;stroke-dasharray:none;stroke-opacity:1"
                   id="path34850"
                   sodipodi:nodetypes="ccccccccccccc" />
                <path
                   d="m 117.50976,53.996744 -0.88542,2.562498 h -0.84375 l -0.88542,-2.562498 -0.30208,3.140623 h -0.85417 l 0.36459,-3.296873 q 0.0521,-0.442708 0.41666,-0.619791 0.15105,-0.06771 0.31771,-0.06771 0.35938,0 0.54688,0.276042 0.0469,0.06771 0.0781,0.145833 l 0.73958,2.166665 0.73959,-2.166665 q 0.11979,-0.322916 0.46354,-0.401041 0.0833,-0.02083 0.16146,-0.02083 0.375,0 0.58854,0.291667 0.11979,0.171875 0.14583,0.395833 l 0.36458,3.296873 h -0.85416 z"
                   style="font-family:'a Astro Space';stroke:#000000;stroke-width:0.30251791;stroke-linecap:round;stroke-linejoin:round;stroke-miterlimit:4;stroke-dasharray:none;stroke-opacity:1"
                   id="path34852" />
                <path
                   d="m 122.90037,53.996744 -0.88541,2.562498 h -0.84375 l -0.88542,-2.562498 -0.30208,3.140623 h -0.85417 l 0.36458,-3.296873 q 0.0521,-0.442708 0.41667,-0.619791 0.15104,-0.06771 0.31771,-0.06771 0.35937,0 0.54687,0.276042 0.0469,0.06771 0.0781,0.145833 l 0.73958,2.166665 0.73958,-2.166665 q 0.1198,-0.322916 0.46355,-0.401041 0.0833,-0.02083 0.16145,-0.02083 0.375,0 0.58855,0.291667 0.11979,0.171875 0.14583,0.395833 l 0.36458,3.296873 h -0.85416 z"
                   style="font-family:'a Astro Space';stroke:#000000;stroke-width:0.30251791;stroke-linecap:round;stroke-linejoin:round;stroke-miterlimit:4;stroke-dasharray:none;stroke-opacity:1"
                   id="path34854" />
                <path
                   d="m 127.19204,56.611325 h -2.34562 l 0.42708,-0.687499 h 1.67896 l -0.67709,-1.942707 -1.10416,3.156248 h -0.85417 l 1.16146,-3.312498 c 0.17014,-0.461805 0.43576,-0.694444 0.79687,-0.697916 0.36111,0.0035 0.625,0.236105 0.79167,0.697916 l 1.16667,3.312498 h -0.85417 z"
                   style="font-family:'a Astro Space';stroke:#000000;stroke-width:0.30251791;stroke-linecap:round;stroke-linejoin:round;stroke-miterlimit:4;stroke-dasharray:none;stroke-opacity:1"
                   id="path34856"
                   sodipodi:nodetypes="ccccccccccccc" />
                <path
                   d="m 130.21808,55.522784 v -0.687499 h 2.06771 v 0.687499 z"
                   style="font-family:'a Astro Space';stroke:#000000;stroke-width:0.30251791;stroke-linecap:round;stroke-linejoin:round;stroke-miterlimit:4;stroke-dasharray:none;stroke-opacity:1"
                   id="path34858" />
                <path
                   d="m 135.27537,53.866535 v 3.270832 h -0.79688 v -3.260415 c 0,-0.236111 0.1007,-0.423611 0.30209,-0.5625 0.13541,-0.09028 0.28472,-0.135416 0.44791,-0.135416 h 1.07813 c 0.48264,0 0.86979,0.144097 1.16146,0.432291 0.24653,0.246528 0.36979,0.550347 0.36979,0.911458 v 0.151042 c 0,0.451389 -0.17882,0.802083 -0.53646,1.052082 -0.13542,0.09375 -0.28473,0.164931 -0.44792,0.213542 l 1.07292,1.197916 h -0.99479 l -0.98958,-1.119791 h -1.22584 l 0.42709,-0.6875 h 1.16333 c 0.32639,0 0.54687,-0.112847 0.66146,-0.338541 0.0451,-0.09375 0.0677,-0.199653 0.0677,-0.317708 v -0.151042 c 0,-0.3125 -0.14062,-0.515625 -0.42187,-0.609375 -0.0937,-0.03125 -0.19618,-0.04687 -0.30729,-0.04687 z"
                   style="font-family:'a Astro Space';stroke:#000000;stroke-width:0.30251791;stroke-linecap:round;stroke-linejoin:round;stroke-miterlimit:4;stroke-dasharray:none;stroke-opacity:1"
                   id="path34860"
                   sodipodi:nodetypes="cccscsscsscccccccscssssc" />
                <path
                   d="m 139.11911,54.684243 v 0.947916 q 0,0.40625 0.29167,0.651042 0.20312,0.166666 0.44271,0.166666 h 0.53125 q 0.32291,0 0.54687,-0.21875 0.0312,-0.03125 0.0521,-0.05729 l 0.69271,0.531249 q -0.29166,0.276042 -0.90104,0.390625 -0.21354,0.04167 -0.39062,0.04167 h -0.53125 q -0.64584,0 -1.09896,-0.458333 -0.43229,-0.4375 -0.43229,-1.046875 v -0.947916 q 0,-0.635416 0.45833,-1.078124 0.45312,-0.427083 1.07292,-0.427083 h 0.53125 q 0.5052,0 0.97916,0.223958 0.19792,0.09896 0.3125,0.208333 l -0.69271,0.536458 q -0.18229,-0.234375 -0.5052,-0.276041 -0.0521,-0.0052 -0.0937,-0.0052 h -0.53125 q -0.35938,0 -0.57813,0.317709 -0.15625,0.223958 -0.15625,0.499999 z"
                   style="font-family:'a Astro Space';stroke:#000000;stroke-width:0.30251791;stroke-linecap:round;stroke-linejoin:round;stroke-miterlimit:4;stroke-dasharray:none;stroke-opacity:1"
                   id="path34862" />
                <path
                   d="m 142.30661,53.179036 h 0.79687 v 3.958331 h -0.79687 z"
                   style="font-family:'a Astro Space';stroke:#000000;stroke-width:0.30251791;stroke-linecap:round;stroke-linejoin:round;stroke-miterlimit:4;stroke-dasharray:none;stroke-opacity:1"
                   id="path34864" />
                <path
                   d="m 53.699893,62.676448 v -0.947916 q 0,-0.411458 -0.296875,-0.65625 -0.192708,-0.161458 -0.432291,-0.161458 h -1.031249 v 2.583332 h 1.031249 q 0.359375,0 0.578125,-0.322917 0.151041,-0.223958 0.151041,-0.494791 z m -2.55729,-1.755207 q 0,-0.354167 0.302083,-0.5625 0.203125,-0.135416 0.447917,-0.135416 h 1.078124 q 0.645833,0 1.098958,0.458333 0.432291,0.437499 0.432291,1.046874 v 0.947916 q 0,0.635416 -0.458333,1.078124 -0.453125,0.427083 -1.072916,0.427083 h -1.828124 z"
                   style="font-family:'a Astro Space';stroke:#000000;stroke-width:0;stroke-miterlimit:4;stroke-dasharray:none;stroke-opacity:1"
                   id="path34866" />
                <path
                   d="m 55.882184,62.567073 v 0.927083 h 2.041665 l 0.375,0.687499 h -2.46354 q -0.380208,0 -0.609375,-0.286458 -0.145833,-0.1875 -0.145833,-0.411458 v -2.562498 q 0,-0.348958 0.302083,-0.557292 0.203125,-0.140624 0.453125,-0.140624 h 2.46354 l -0.375,0.687499 h -2.041665 v 0.96875 h 1.880207 v 0.687499 z"
                   style="font-family:'a Astro Space';stroke:#000000;stroke-width:0;stroke-miterlimit:4;stroke-dasharray:none;stroke-opacity:1"
                   id="path34868" />
                <path
                   d="m 58.746765,61.353532 q 0,-0.479166 0.447916,-0.812499 0.432292,-0.317708 1.03125,-0.317708 h 0.53125 q 0.484374,0 0.937499,0.223958 0.1875,0.09896 0.302083,0.208333 l -0.697916,0.536458 q -0.171875,-0.239583 -0.46875,-0.276042 -0.03646,-0.0052 -0.07292,-0.0052 h -0.53125 q -0.390625,0 -0.588541,0.21875 -0.08854,0.109375 -0.08854,0.223958 0,0.203125 0.432291,0.348958 0.135417,0.04687 0.458333,0.130209 0.78125,0.203124 1.09375,0.395833 0.510416,0.312499 0.515624,0.822916 0,0.473958 -0.458333,0.807291 -0.453124,0.322916 -1.072916,0.322916 h -0.531249 q -0.505208,0 -0.979166,-0.223958 -0.197917,-0.09896 -0.3125,-0.208333 l 0.687499,-0.53125 q 0.182292,0.229167 0.510417,0.270834 0.05208,0.0052 0.09375,0.0052 h 0.531249 q 0.421875,0 0.635417,-0.223958 0.09375,-0.104167 0.09375,-0.21875 0,-0.229167 -0.432292,-0.380208 -0.0625,-0.02604 -0.755208,-0.213542 -0.796874,-0.213541 -1.083332,-0.515625 -0.229167,-0.249999 -0.229167,-0.588541 z"
                   style="font-family:'a Astro Space';stroke:#000000;stroke-width:0;stroke-miterlimit:4;stroke-dasharray:none;stroke-opacity:1"
                   id="path34870" />
                <path
                   d="m 62.710305,60.223325 h 0.796874 v 3.95833 h -0.796874 z"
                   style="font-family:'a Astro Space';stroke:#000000;stroke-width:0;stroke-miterlimit:4;stroke-dasharray:none;stroke-opacity:1"
                   id="path34872" />
                <path
                   d="m 65.621761,60.223325 h 0.53125 q 0.505208,0 0.979166,0.223958 0.197916,0.09896 0.3125,0.208333 l -0.692708,0.536458 q -0.182292,-0.234375 -0.505208,-0.276042 -0.05208,-0.0052 -0.09375,-0.0052 h -0.53125 q -0.354166,0 -0.572916,0.317708 -0.151042,0.223958 -0.151042,0.5 v 0.947916 q 0,0.40625 0.291667,0.651041 0.203124,0.166667 0.442708,0.166667 h 1.026041 v -1.286458 h 0.802083 v 1.276041 q 0,0.354167 -0.302084,0.5625 -0.203124,0.135416 -0.447916,0.135416 h -1.078124 q -0.645833,0 -1.098958,-0.458333 -0.432291,-0.437499 -0.432291,-1.046874 V 61.72854 q 0,-0.640625 0.463541,-1.083333 0.442708,-0.421874 1.057291,-0.421874 z"
                   style="font-family:'a Astro Space';stroke:#000000;stroke-width:0;stroke-miterlimit:4;stroke-dasharray:none;stroke-opacity:1"
                   id="path34874" />
                <path
                   d="m 68.955092,60.197283 q 0.4375,0 0.708333,0.510416 0.04167,0.08333 0.08854,0.1875 l 1.109374,2.614582 v -3.286456 h 0.796875 v 3.286456 q 0,0.333333 -0.317708,0.546875 -0.223959,0.151041 -0.484375,0.151041 -0.4375,0 -0.708333,-0.510416 -0.04167,-0.08333 -0.08854,-0.1875 l -1.109374,-2.614582 v 3.286456 H 68.15301 v -3.286456 q 0,-0.333333 0.317708,-0.546875 0.223958,-0.151041 0.484374,-0.151041 z"
                   style="font-family:'a Astro Space';stroke:#000000;stroke-width:0;stroke-miterlimit:4;stroke-dasharray:none;stroke-opacity:1"
                   id="path34876" />
                <path
                   d="m 73.163424,62.567073 v 0.927083 h 2.041665 l 0.375,0.687499 h -2.46354 q -0.380208,0 -0.609375,-0.286458 -0.145833,-0.1875 -0.145833,-0.411458 v -2.562498 q 0,-0.348958 0.302083,-0.557292 0.203125,-0.140624 0.453125,-0.140624 h 2.46354 l -0.375,0.687499 h -2.041665 v 0.96875 h 1.880207 v 0.687499 z"
                   style="font-family:'a Astro Space';stroke:#000000;stroke-width:0;stroke-miterlimit:4;stroke-dasharray:none;stroke-opacity:1"
                   id="path34878" />
                <path
                   d="m 78.715503,62.676448 v -0.947916 q 0,-0.411458 -0.296875,-0.65625 -0.192708,-0.161458 -0.432291,-0.161458 h -1.03125 v 2.583332 h 1.03125 q 0.359375,0 0.578124,-0.322917 0.151042,-0.223958 0.151042,-0.494791 z m -2.55729,-1.755207 q 0,-0.354167 0.302083,-0.5625 0.203125,-0.135416 0.447916,-0.135416 h 1.078125 q 0.645833,0 1.098957,0.458333 0.432292,0.437499 0.432292,1.046874 v 0.947916 q 0,0.635416 -0.458333,1.078124 -0.453125,0.427083 -1.072916,0.427083 h -1.828124 z"
                   style="font-family:'a Astro Space';stroke:#000000;stroke-width:0;stroke-miterlimit:4;stroke-dasharray:none;stroke-opacity:1"
                   id="path34880" />
                <path
                   d="m 84.460293,62.145198 c 0.336805,0.177083 0.534722,0.427083 0.593749,0.75 0.01042,0.05903 0.01563,0.116318 0.01563,0.171875 0,0.326389 -0.140625,0.59375 -0.421874,0.802083 -0.277778,0.208333 -0.638889,0.312499 -1.083333,0.312499 h -1.828124 v -3.260414 c 0,-0.236111 0.100694,-0.423611 0.302083,-0.5625 0.135417,-0.09028 0.284722,-0.135416 0.447916,-0.135416 h 1.078125 c 0.486111,0 0.847222,0.159722 1.083333,0.479166 0.138889,0.184027 0.208333,0.390624 0.208333,0.619791 0,0.315972 -0.119792,0.579861 -0.359375,0.791666 -0.01389,0.01389 -0.02604,0.0243 -0.03646,0.03125 z M 82.50635,61.837907 h 1.05811 c 0.232639,0 0.388889,-0.09028 0.46875,-0.270833 0.02778,-0.0625 0.04167,-0.126736 0.04167,-0.192709 0,-0.184027 -0.07986,-0.317708 -0.239583,-0.401041 -0.07986,-0.04167 -0.170139,-0.0625 -0.270833,-0.0625 h -1.03125 v 2.583332 h 1.03125 c 0.326389,0 0.548611,-0.09201 0.666666,-0.276042 0.03819,-0.06597 0.05729,-0.133681 0.05729,-0.203124 0,-0.166667 -0.09201,-0.296875 -0.276042,-0.390625 -0.125,-0.0625 -0.274305,-0.09375 -0.447916,-0.09375 h -1.485193 z"
                   style="font-family:'a Astro Space';stroke:#000000;stroke-width:0;stroke-miterlimit:4;stroke-dasharray:none;stroke-opacity:1"
                   id="path34882"
                   sodipodi:nodetypes="scscscscsscscsscscsssccscscscc" />
                <path
                   d="m 87.267582,61.942073 1.104166,-1.718748 h 0.854166 l -1.166666,1.874998 q -0.208333,0.322917 -0.385416,0.453125 v 1.630207 h -0.802083 v -1.61979 Q 86.668624,62.416032 86.470707,62.098323 L 85.30925,60.223325 h 0.854166 z"
                   style="font-family:'a Astro Space';stroke:#000000;stroke-width:0;stroke-miterlimit:4;stroke-dasharray:none;stroke-opacity:1"
                   id="path34884" />
                <path
                   d="m 92.527995,60.223325 h 0.531249 q 0.505209,0 0.979167,0.223958 0.197916,0.09896 0.312499,0.208333 l -0.692708,0.536458 q -0.182291,-0.234375 -0.505208,-0.276042 -0.05208,-0.0052 -0.09375,-0.0052 h -0.531249 q -0.354167,0 -0.572917,0.317708 -0.151041,0.223958 -0.151041,0.5 v 0.947916 q 0,0.40625 0.291666,0.651041 0.203125,0.166667 0.442708,0.166667 h 1.026042 v -1.286458 h 0.802082 v 1.276041 q 0,0.354167 -0.302083,0.5625 -0.203125,0.135416 -0.447916,0.135416 h -1.078125 q -0.645832,0 -1.098957,-0.458333 -0.432292,-0.437499 -0.432292,-1.046874 V 61.72854 q 0,-0.640625 0.463542,-1.083333 0.442708,-0.421874 1.057291,-0.421874 z"
                   style="font-family:'a Astro Space';stroke:#000000;stroke-width:0;stroke-miterlimit:4;stroke-dasharray:none;stroke-opacity:1"
                   id="path34886" />
                <path
                   d="m 96.960285,64.233739 h -0.53125 q -0.645833,0 -1.098957,-0.458333 -0.432292,-0.4375 -0.432292,-1.046875 v -1.052082 q 0,-0.635417 0.458333,-1.078125 0.453125,-0.427083 1.072916,-0.427083 h 0.53125 q 0.645833,0 1.098958,0.458333 0.432291,0.4375 0.432291,1.046875 v 1.052082 q 0,0.635417 -0.458333,1.078125 -0.453125,0.427083 -1.072916,0.427083 z m -0.53125,-0.6875 h 0.53125 q 0.359375,0 0.578125,-0.322916 0.151041,-0.223958 0.151041,-0.494792 v -1.052082 q 0,-0.411458 -0.296875,-0.65625 -0.192708,-0.161458 -0.432291,-0.161458 h -0.53125 q -0.359375,0 -0.578124,0.317708 -0.15625,0.223958 -0.15625,0.5 v 1.052082 q 0,0.40625 0.291666,0.651042 0.203125,0.166666 0.442708,0.166666 z"
                   style="font-family:'a Astro Space';stroke:#000000;stroke-width:0;stroke-miterlimit:4;stroke-dasharray:none;stroke-opacity:1"
                   id="path34888" />
                <path
                   d="m 99.929034,60.197283 q 0.437496,0 0.708336,0.510416 0.0417,0.08333 0.0885,0.1875 l 1.10937,2.614582 v -3.286456 h 0.79688 v 3.286456 q 0,0.333333 -0.31771,0.546875 -0.22396,0.151041 -0.48438,0.151041 -0.43749,0 -0.70833,-0.510416 -0.0417,-0.08333 -0.0885,-0.1875 l -1.109374,-2.614582 v 3.286456 h -0.796875 v -3.286456 q 0,-0.333333 0.317709,-0.546875 0.223958,-0.151041 0.484374,-0.151041 z"
                   style="font-family:'a Astro Space';stroke:#000000;stroke-width:0;stroke-miterlimit:4;stroke-dasharray:none;stroke-opacity:1"
                   id="path34890" />
                <path
                   d="m 105.93424,62.676448 v -0.947916 q 0,-0.411458 -0.29688,-0.65625 -0.19271,-0.161458 -0.43229,-0.161458 h -1.03125 v 2.583332 h 1.03125 q 0.35938,0 0.57813,-0.322917 0.15104,-0.223958 0.15104,-0.494791 z m -2.55729,-1.755207 q 0,-0.354167 0.30208,-0.5625 0.20313,-0.135416 0.44792,-0.135416 h 1.07812 q 0.64583,0 1.09896,0.458333 0.43229,0.437499 0.43229,1.046874 v 0.947916 q 0,0.635416 -0.45833,1.078124 -0.45313,0.427083 -1.07292,0.427083 h -1.82812 z"
                   style="font-family:'a Astro Space';stroke:#000000;stroke-width:0;stroke-miterlimit:4;stroke-dasharray:none;stroke-opacity:1"
                   id="path34892" />
                <path
                   d="m 109.25715,64.233739 h -0.53125 q -0.64583,0 -1.09896,-0.458333 -0.43229,-0.4375 -0.43229,-1.046875 v -1.052082 q 0,-0.635417 0.45834,-1.078125 0.45312,-0.427083 1.07291,-0.427083 h 0.53125 q 0.64584,0 1.09896,0.458333 0.43229,0.4375 0.43229,1.046875 v 1.052082 q 0,0.635417 -0.45833,1.078125 -0.45313,0.427083 -1.07292,0.427083 z m -0.53125,-0.6875 h 0.53125 q 0.35938,0 0.57813,-0.322916 0.15104,-0.223958 0.15104,-0.494792 v -1.052082 q 0,-0.411458 -0.29688,-0.65625 -0.1927,-0.161458 -0.43229,-0.161458 h -0.53125 q -0.35937,0 -0.57812,0.317708 -0.15625,0.223958 -0.15625,0.5 v 1.052082 q 0,0.40625 0.29166,0.651042 0.20313,0.166666 0.44271,0.166666 z"
                   style="font-family:'a Astro Space';stroke:#000000;stroke-width:0;stroke-miterlimit:4;stroke-dasharray:none;stroke-opacity:1"
                   id="path34894" />
                <path
                   d="m 112.23111,63.494156 h 1.88542 l 0.36979,0.687499 h -2.30209 q -0.38541,0 -0.60937,-0.291666 -0.14062,-0.182292 -0.14062,-0.40625 v -3.260414 h 0.79687 z"
                   style="font-family:'a Astro Space';stroke:#000000;stroke-width:0;stroke-miterlimit:4;stroke-dasharray:none;stroke-opacity:1"
                   id="path34896" />
                <path
                   d="m 114.82486,60.223325 h 0.79687 v 3.95833 h -0.79687 z"
                   style="font-family:'a Astro Space';stroke:#000000;stroke-width:0;stroke-miterlimit:4;stroke-dasharray:none;stroke-opacity:1"
                   id="path34898" />
                <path
                   d="m 117.18944,60.197283 q 0.4375,0 0.70833,0.510416 0.0417,0.08333 0.0885,0.1875 l 1.10938,2.614582 v -3.286456 h 0.79687 v 3.286456 q 0,0.333333 -0.31771,0.546875 -0.22396,0.151041 -0.48437,0.151041 -0.4375,0 -0.70834,-0.510416 -0.0417,-0.08333 -0.0885,-0.1875 l -1.10937,-2.614582 v 3.286456 h -0.79688 v -3.286456 q 0,-0.333333 0.31771,-0.546875 0.22396,-0.151041 0.48438,-0.151041 z"
                   style="font-family:'a Astro Space';stroke:#000000;stroke-width:0;stroke-miterlimit:4;stroke-dasharray:none;stroke-opacity:1"
                   id="path34900" />
                <path
                   d="m 123.19464,62.676448 v -0.947916 q 0,-0.411458 -0.29687,-0.65625 -0.19271,-0.161458 -0.43229,-0.161458 h -1.03125 v 2.583332 h 1.03125 q 0.35937,0 0.57812,-0.322917 0.15104,-0.223958 0.15104,-0.494791 z m -2.55729,-1.755207 q 0,-0.354167 0.30209,-0.5625 0.20312,-0.135416 0.44791,-0.135416 h 1.07813 q 0.64583,0 1.09896,0.458333 0.43229,0.437499 0.43229,1.046874 v 0.947916 q 0,0.635416 -0.45834,1.078124 -0.45312,0.427083 -1.07291,0.427083 h -1.82813 z"
                   style="font-family:'a Astro Space';stroke:#000000;stroke-width:0;stroke-miterlimit:4;stroke-dasharray:none;stroke-opacity:1"
                   id="path34902" />
                <path
                   d="m 125.41339,60.910824 v 3.270831 h -0.79687 v -3.260414 c 0,-0.236111 0.10069,-0.423611 0.30208,-0.5625 0.13542,-0.09028 0.28473,-0.135416 0.44792,-0.135416 h 1.07812 c 0.48264,0 0.86979,0.144097 1.16146,0.432291 0.24653,0.246527 0.36979,0.550347 0.36979,0.911458 v 0.151041 c 0,0.451389 -0.17882,0.802083 -0.53646,1.052083 -0.13541,0.09375 -0.28472,0.164931 -0.44791,0.213542 l 1.07291,1.197915 h -0.99479 l -0.98958,-1.119791 h -1.12061 l 0.42708,-0.687499 h 1.05811 c 0.32639,0 0.54688,-0.112847 0.66146,-0.338542 0.0451,-0.09375 0.0677,-0.199652 0.0677,-0.317708 v -0.151041 c 0,-0.3125 -0.14063,-0.515625 -0.42188,-0.609375 -0.0937,-0.03125 -0.19618,-0.04687 -0.30729,-0.04687 z"
                   style="font-family:'a Astro Space';stroke:#000000;stroke-width:0;stroke-miterlimit:4;stroke-dasharray:none;stroke-opacity:1"
                   id="path34904"
                   sodipodi:nodetypes="cccscsscsscccccccscssssc" />
                <path
                   d="m 128.6686,60.223325 h 0.79688 v 3.95833 h -0.79688 z"
                   style="font-family:'a Astro Space';stroke:#000000;stroke-width:0;stroke-miterlimit:4;stroke-dasharray:none;stroke-opacity:1"
                   id="path34906" />
                <path
                   d="m 133.8613,61.041032 -0.88541,2.562499 h -0.84375 l -0.88542,-2.562499 -0.30208,3.140623 h -0.85417 l 0.36458,-3.296873 q 0.0521,-0.442708 0.41667,-0.619791 0.15104,-0.06771 0.31771,-0.06771 0.35937,0 0.54687,0.276041 0.0469,0.06771 0.0781,0.145834 l 0.73958,2.166665 0.73958,-2.166665 q 0.1198,-0.322917 0.46355,-0.401042 0.0833,-0.02083 0.16145,-0.02083 0.375,0 0.58855,0.291666 0.11979,0.171875 0.14583,0.395833 l 0.36458,3.296873 h -0.85416 z"
                   style="font-family:'a Astro Space';stroke:#000000;stroke-width:0;stroke-miterlimit:4;stroke-dasharray:none;stroke-opacity:1"
                   id="path34908" />
                <g
                   id="g35701"
                   transform="matrix(1,0,-0.30999874,1,21.466414,0)"
                   style="stroke:#000000;stroke-width:0;stroke-miterlimit:4;stroke-dasharray:none;stroke-opacity:1">
                  <path
                     d="m 64.832699,67.267613 h 0.796875 v 3.958331 h -0.796875 z"
                     style="font-family:'a Astro Space';stroke:#000000;stroke-width:0;stroke-miterlimit:4;stroke-dasharray:none;stroke-opacity:1"
                     id="path34910" />
                  <path
                     d="m 68.801447,70.538445 h 1.885415 l 0.369792,0.687499 h -2.302082 q -0.385417,0 -0.609375,-0.291666 -0.140625,-0.182292 -0.140625,-0.40625 v -3.260415 h 0.796875 z"
                     style="font-family:'a Astro Space';stroke:#000000;stroke-width:0;stroke-miterlimit:4;stroke-dasharray:none;stroke-opacity:1"
                     id="path34912" />
                  <path
                     d="m 73.259778,71.278027 h -0.53125 q -0.645833,0 -1.098958,-0.458333 -0.432291,-0.437499 -0.432291,-1.046874 v -1.052083 q 0,-0.635416 0.458333,-1.078124 0.453125,-0.427083 1.072916,-0.427083 h 0.53125 q 0.645832,0 1.098957,0.458333 0.432292,0.4375 0.432292,1.046874 v 1.052083 q 0,0.635416 -0.458333,1.078124 -0.453125,0.427083 -1.072916,0.427083 z m -0.53125,-0.687499 h 0.53125 q 0.359374,0 0.578124,-0.322917 0.151042,-0.223958 0.151042,-0.494791 v -1.052083 q 0,-0.411458 -0.296875,-0.656249 -0.192708,-0.161459 -0.432291,-0.161459 h -0.53125 q -0.359375,0 -0.578125,0.317709 -0.15625,0.223958 -0.15625,0.499999 v 1.052083 q 0,0.40625 0.291667,0.651041 0.203125,0.166667 0.442708,0.166667 z"
                     style="font-family:'a Astro Space';stroke:#000000;stroke-width:0;stroke-miterlimit:4;stroke-dasharray:none;stroke-opacity:1"
                     id="path34914" />
                  <path
                     d="m 77.134775,70.423861 1.104166,-3.156248 h 0.854167 l -1.161458,3.312498 q -0.255208,0.692708 -0.796875,0.697916 -0.541666,-0.0052 -0.791666,-0.697916 l -1.166666,-3.312498 h 0.854166 z"
                     style="font-family:'a Astro Space';stroke:#000000;stroke-width:0;stroke-miterlimit:4;stroke-dasharray:none;stroke-opacity:1"
                     id="path34916" />
                  <path
                     d="m 80.311856,69.611362 v 0.927083 h 2.041666 l 0.375,0.687499 h -2.463541 q -0.380208,0 -0.609374,-0.286458 -0.145833,-0.1875 -0.145833,-0.411458 v -2.562499 q 0,-0.348958 0.302083,-0.557291 0.203125,-0.140625 0.453124,-0.140625 h 2.463541 l -0.375,0.6875 h -2.041666 v 0.968749 h 1.880208 v 0.6875 z"
                     style="font-family:'a Astro Space';stroke:#000000;stroke-width:0;stroke-miterlimit:4;stroke-dasharray:none;stroke-opacity:1"
                     id="path34918" />
                  <path
                     d="m 85.702479,69.611362 v 1.614582 h -0.796875 v -3.260415 q 0,-0.354166 0.302083,-0.562499 0.203125,-0.135417 0.447917,-0.135417 h 2.46354 l -0.375,0.6875 h -2.041665 v 0.968749 h 1.885415 v 0.6875 z"
                     style="font-family:'a Astro Space';stroke:#000000;stroke-width:0;stroke-miterlimit:4;stroke-dasharray:none;stroke-opacity:1"
                     id="path34920" />
                  <path
                     d="m 89.317059,67.955113 v 3.270831 h -0.796875 v -3.260415 c 0,-0.236111 0.100695,-0.42361 0.302084,-0.562499 0.135417,-0.09028 0.284722,-0.135417 0.447916,-0.135417 h 1.078124 c 0.482639,0 0.869791,0.144097 1.161458,0.432292 0.246527,0.246527 0.369791,0.550346 0.369791,0.911457 v 0.151042 c 0,0.451389 -0.178819,0.802083 -0.536458,1.052083 -0.135416,0.09375 -0.284721,0.16493 -0.447916,0.213541 l 1.072916,1.197916 h -0.994791 l -0.989583,-1.119791 h -1.12061 l 0.427083,-0.687499 h 1.05811 c 0.326389,0 0.546875,-0.112847 0.661458,-0.338542 0.04514,-0.09375 0.06771,-0.199653 0.06771,-0.317708 v -0.151042 c 0,-0.312499 -0.140625,-0.515624 -0.421875,-0.609374 -0.09375,-0.03125 -0.196181,-0.04687 -0.307292,-0.04687 z"
                     style="font-family:'a Astro Space';stroke:#000000;stroke-width:0;stroke-miterlimit:4;stroke-dasharray:none;stroke-opacity:1"
                     id="path34922"
                     sodipodi:nodetypes="cccscsscsscccccccscssssc" />
                  <path
                     d="m 94.436848,71.278027 h -0.53125 q -0.645833,0 -1.098957,-0.458333 -0.432292,-0.437499 -0.432292,-1.046874 v -1.052083 q 0,-0.635416 0.458333,-1.078124 0.453125,-0.427083 1.072916,-0.427083 h 0.53125 q 0.645833,0 1.098958,0.458333 0.432291,0.4375 0.432291,1.046874 v 1.052083 q 0,0.635416 -0.458333,1.078124 -0.453125,0.427083 -1.072916,0.427083 z m -0.53125,-0.687499 h 0.53125 q 0.359375,0 0.578125,-0.322917 0.151041,-0.223958 0.151041,-0.494791 v -1.052083 q 0,-0.411458 -0.296874,-0.656249 -0.192709,-0.161459 -0.432292,-0.161459 h -0.53125 q -0.359374,0 -0.578124,0.317709 -0.15625,0.223958 -0.15625,0.499999 v 1.052083 q 0,0.40625 0.291666,0.651041 0.203125,0.166667 0.442708,0.166667 z"
                     style="font-family:'a Astro Space';stroke:#000000;stroke-width:0;stroke-miterlimit:4;stroke-dasharray:none;stroke-opacity:1"
                     id="path34924" />
                  <path
                     d="m 97.952472,67.267613 h 0.53125 q 0.505208,0 0.979166,0.223958 0.197916,0.09896 0.3125,0.208334 l -0.692708,0.536458 q -0.182292,-0.234375 -0.505208,-0.276042 -0.05208,-0.0052 -0.09375,-0.0052 h -0.53125 q -0.354166,0 -0.572916,0.317708 -0.151042,0.223958 -0.151042,0.5 v 0.947916 q 0,0.406249 0.291667,0.651041 0.203125,0.166667 0.442708,0.166667 h 1.026041 v -1.286458 h 0.802083 v 1.276041 q 0,0.354166 -0.302083,0.5625 -0.203125,0.135416 -0.447917,0.135416 h -1.078124 q -0.645833,0 -1.098958,-0.458333 -0.432291,-0.4375 -0.432291,-1.046874 v -0.947916 q 0,-0.640625 0.463541,-1.083333 0.442708,-0.421875 1.057291,-0.421875 z"
                     style="font-family:'a Astro Space';stroke:#000000;stroke-width:0;stroke-miterlimit:4;stroke-dasharray:none;stroke-opacity:1"
                     id="path34926" />
                  <path
                     d="m 104.63997,69.720737 v -0.947916 q 0,-0.411459 -0.29688,-0.65625 -0.1927,-0.161458 -0.43229,-0.161458 h -1.03125 v 2.583332 h 1.03125 q 0.35938,0 0.57813,-0.322917 0.15104,-0.223958 0.15104,-0.494791 z m -2.55729,-1.755208 q 0,-0.354166 0.30208,-0.562499 0.20313,-0.135417 0.44792,-0.135417 h 1.07812 q 0.64584,0 1.09896,0.458333 0.43229,0.4375 0.43229,1.046875 v 0.947916 q 0,0.635416 -0.45833,1.078124 -0.45313,0.427083 -1.07292,0.427083 h -1.82812 z"
                     style="font-family:'a Astro Space';stroke:#000000;stroke-width:0;stroke-miterlimit:4;stroke-dasharray:none;stroke-opacity:1"
                     id="path34928" />
                  <path
                     d="m 108.59309,70.699903 h -2.2404 l 0.42708,-0.6875 h 1.57374 l -0.67708,-1.942707 -1.10417,3.156248 h -0.85417 l 1.16146,-3.312498 c 0.17014,-0.461805 0.43577,-0.694444 0.79688,-0.697916 0.36111,0.0035 0.62499,0.236105 0.79166,0.697916 l 1.16667,3.312498 h -0.85417 z"
                     style="font-family:'a Astro Space';stroke:#000000;stroke-width:0;stroke-miterlimit:4;stroke-dasharray:none;stroke-opacity:1"
                     id="path34930"
                     sodipodi:nodetypes="ccccccccccccc" />
                  <path
                     d="m 112.63475,69.720737 v -0.947916 q 0,-0.411459 -0.29687,-0.65625 -0.19271,-0.161458 -0.43229,-0.161458 h -1.03125 v 2.583332 h 1.03125 q 0.35937,0 0.57812,-0.322917 0.15104,-0.223958 0.15104,-0.494791 z m -2.55729,-1.755208 q 0,-0.354166 0.30209,-0.562499 0.20312,-0.135417 0.44791,-0.135417 h 1.07813 q 0.64583,0 1.09896,0.458333 0.43229,0.4375 0.43229,1.046875 v 0.947916 q 0,0.635416 -0.45834,1.078124 -0.45312,0.427083 -1.07291,0.427083 h -1.82813 z"
                     style="font-family:'a Astro Space';stroke:#000000;stroke-width:0;stroke-miterlimit:4;stroke-dasharray:none;stroke-opacity:1"
                     id="path34932" />
                  <path
                     d="m 116.61392,69.720737 v -0.947916 q 0,-0.411459 -0.29688,-0.65625 -0.1927,-0.161458 -0.43229,-0.161458 h -1.03125 v 2.583332 h 1.03125 q 0.35938,0 0.57813,-0.322917 0.15104,-0.223958 0.15104,-0.494791 z m -2.55729,-1.755208 q 0,-0.354166 0.30208,-0.562499 0.20313,-0.135417 0.44792,-0.135417 h 1.07812 q 0.64584,0 1.09896,0.458333 0.43229,0.4375 0.43229,1.046875 v 0.947916 q 0,0.635416 -0.45833,1.078124 -0.45313,0.427083 -1.07292,0.427083 h -1.82812 z"
                     style="font-family:'a Astro Space';stroke:#000000;stroke-width:0;stroke-miterlimit:4;stroke-dasharray:none;stroke-opacity:1"
                     id="path34934" />
                  <path
                     d="m 119.65558,68.986362 1.10417,-1.718749 h 0.85417 l -1.16667,1.874999 q -0.20833,0.322917 -0.38542,0.453125 v 1.630207 h -0.80208 v -1.619791 q -0.20312,-0.145833 -0.40104,-0.463541 l -1.16146,-1.874999 h 0.85417 z"
                     style="font-family:'a Astro Space';stroke:#000000;stroke-width:0;stroke-miterlimit:4;stroke-dasharray:none;stroke-opacity:1"
                     id="path34936" />
                </g>
              </g>
            </g>
          </g>
        </g>
      </g>
    </g>
  </g>
</svg>
